<svg width="50" height="50" viewBox="0 0 50 50" fill="none" xmlns="http://www.w3.org/2000/svg">
<path opacity="0.4" d="M44.2712 28.0758C42.5607 28.0758 41.1691 26.6969 41.1691 25.0021C41.1691 23.3052 42.5607 21.9263 44.2712 21.9263C44.6857 21.9263 45.0837 21.7632 45.3753 21.4742C45.6691 21.1831 45.8337 20.7888 45.8337 20.378L45.8316 14.8003C45.8316 10.0855 41.9587 6.25 37.2003 6.25H12.8003C8.04199 6.25 4.16908 10.0855 4.16908 14.8003L4.16699 20.5576C4.16699 20.9684 4.33158 21.3627 4.62533 21.6538C4.91699 21.9428 5.31491 22.1059 5.72949 22.1059C7.49824 22.1059 8.83158 23.3506 8.83158 25.0021C8.83158 26.6969 7.43991 28.0758 5.72949 28.0758C4.86699 28.0758 4.16699 28.7694 4.16699 29.624V35.1976C4.16699 39.9125 8.03783 43.75 12.7982 43.75H37.2024C41.9628 43.75 45.8337 39.9125 45.8337 35.1976V29.624C45.8337 28.7694 45.1337 28.0758 44.2712 28.0758" fill="#2AB2A8"/>
<path d="M32.1465 24.1433L29.6902 26.535L30.2715 29.9162C30.3715 30.5016 30.1361 31.0787 29.6548 31.4245C29.1777 31.7745 28.5548 31.8183 28.0298 31.5391L24.9986 29.9454L21.9611 31.5412C21.7361 31.66 21.4902 31.7225 21.2465 31.7225C20.9277 31.7225 20.6132 31.6225 20.3423 31.4266C19.8632 31.0787 19.6277 30.5016 19.7277 29.9162L20.3069 26.535L17.8507 24.1433C17.4257 23.7308 17.2777 23.1245 17.4611 22.56C17.6465 21.9975 18.1257 21.5975 18.7111 21.5141L22.0986 21.0204L23.6173 17.9433C23.8819 17.4141 24.4111 17.085 24.9986 17.085H25.0027C25.5923 17.087 26.1215 17.4162 26.3819 17.9454L27.9007 21.0204L31.2944 21.5162C31.8736 21.5975 32.3527 21.9975 32.5361 22.56C32.7215 23.1245 32.5736 23.7308 32.1465 24.1433" fill="#2AB2A8"/>
</svg>
