<svg width="50" height="50" viewBox="0 0 50 50" fill="none" xmlns="http://www.w3.org/2000/svg">
<path opacity="0.4" d="M28.6472 20.2143V16.0063C27.8211 16.0063 27.136 15.3408 27.136 14.5384V9.52789C27.136 8.86048 26.592 8.33398 25.907 8.33398H12.0651C7.71309 8.33398 4.16699 11.7767 4.16699 16.0063V21.0735C4.16699 21.4669 4.32818 21.8388 4.61025 22.1128C4.89233 22.3848 5.27515 22.5414 5.67811 22.5414C7.20938 22.5414 8.37799 23.5983 8.37799 24.9879C8.37799 26.4382 7.18924 27.593 5.69826 27.6106C4.87218 27.6106 4.16699 28.1782 4.16699 29.0002V34.0126C4.16699 38.2402 7.71309 41.6654 12.045 41.6654H25.907C26.592 41.6654 27.136 41.135 27.136 40.4715V36.2419C27.136 35.4218 27.8211 34.774 28.6472 34.774V30.979C27.8211 30.979 27.136 30.3116 27.136 29.5111V21.6822C27.136 20.8797 27.8211 20.2143 28.6472 20.2143" fill="#2AB2A8"/>
<path d="M41.622 24.9889C41.622 26.4372 42.8309 27.592 44.3017 27.6116C45.1278 27.6116 45.833 28.1792 45.833 28.9816V34.0117C45.833 38.2412 42.307 41.6663 37.955 41.6663H31.3867C30.7218 41.6663 30.1576 41.1359 30.1576 40.4705V36.2429C30.1576 35.4209 29.4927 34.775 28.6465 34.775V30.9799C29.4927 30.9799 30.1576 30.3125 30.1576 29.512V21.6832C30.1576 20.8788 29.4927 20.2153 28.6465 20.2153V16.0053C29.4927 16.0053 30.1576 15.3398 30.1576 14.5374V9.52887C30.1576 8.86146 30.7218 8.33301 31.3867 8.33301H37.955C42.307 8.33301 45.833 11.7581 45.833 15.9857V20.9179C45.833 21.3093 45.6718 21.6832 45.3897 21.9552C45.1076 22.2292 44.7248 22.3858 44.3219 22.3858C42.8309 22.3858 41.622 23.5621 41.622 24.9889" fill="#2AB2A8"/>
</svg>
