<?xml version="1.0" encoding="UTF-8"?>
<svg xmlns="http://www.w3.org/2000/svg" width="184" height="59" viewBox="0 0 184 59" fill="none" style="background-color:transparent;">
<g clip-path="url(#clip0_189_480)">
<rect width="184" height="59" fill="none"/>
<path d="M63.9814 34.375C63.9814 34.2064 63.9564 34.056 63.9062 33.9238C63.8561 33.7871 63.765 33.6618 63.6328 33.5479C63.5007 33.4339 63.3138 33.32 63.0723 33.2061C62.8307 33.0876 62.514 32.9668 62.1221 32.8438C61.6755 32.6979 61.2493 32.5339 60.8438 32.3516C60.4427 32.1647 60.085 31.9482 59.7705 31.7021C59.4561 31.4561 59.2077 31.1689 59.0254 30.8408C58.8477 30.5127 58.7588 30.1299 58.7588 29.6924C58.7588 29.2686 58.8522 28.8857 59.0391 28.5439C59.2259 28.2021 59.488 27.9105 59.8252 27.6689C60.1624 27.4229 60.5589 27.236 61.0146 27.1084C61.4704 26.9762 61.9717 26.9102 62.5186 26.9102C63.2477 26.9102 63.888 27.04 64.4395 27.2998C64.9954 27.555 65.4284 27.915 65.7383 28.3799C66.0482 28.8402 66.2031 29.3757 66.2031 29.9863H63.9883C63.9883 29.7174 63.9313 29.4805 63.8174 29.2754C63.708 29.0658 63.5394 28.9017 63.3115 28.7832C63.0882 28.6647 62.8079 28.6055 62.4707 28.6055C62.1426 28.6055 61.8669 28.6556 61.6436 28.7559C61.4248 28.8516 61.2585 28.9837 61.1445 29.1523C61.0352 29.321 60.9805 29.5055 60.9805 29.7061C60.9805 29.8656 61.0215 30.0114 61.1035 30.1436C61.1901 30.2712 61.3132 30.3919 61.4727 30.5059C61.6367 30.6152 61.8372 30.7201 62.0742 30.8203C62.3112 30.9206 62.5824 31.0163 62.8877 31.1074C63.4209 31.276 63.8926 31.4629 64.3027 31.668C64.7174 31.873 65.0661 32.1055 65.3486 32.3652C65.6312 32.625 65.8431 32.9189 65.9844 33.2471C66.1302 33.5752 66.2031 33.9466 66.2031 34.3613C66.2031 34.8034 66.1165 35.1953 65.9434 35.5371C65.7747 35.8789 65.5286 36.1706 65.2051 36.4121C64.8861 36.6491 64.5033 36.8291 64.0566 36.9521C63.61 37.0752 63.111 37.1367 62.5596 37.1367C62.0583 37.1367 61.5638 37.0729 61.0762 36.9453C60.5885 36.8132 60.1465 36.6126 59.75 36.3438C59.3581 36.0749 59.0436 35.7331 58.8066 35.3184C58.5742 34.8991 58.458 34.4023 58.458 33.8281H60.6865C60.6865 34.1289 60.7298 34.3841 60.8164 34.5938C60.903 34.7988 61.026 34.9652 61.1855 35.0928C61.3496 35.2204 61.5479 35.3115 61.7803 35.3662C62.0127 35.4209 62.2725 35.4482 62.5596 35.4482C62.8923 35.4482 63.1611 35.4027 63.3662 35.3115C63.5758 35.2158 63.7308 35.0859 63.8311 34.9219C63.9313 34.7578 63.9814 34.5755 63.9814 34.375ZM69.8877 27.0469V37H67.666V27.0469H69.8877ZM76.8467 34.375C76.8467 34.2064 76.8216 34.056 76.7715 33.9238C76.7214 33.7871 76.6302 33.6618 76.498 33.5479C76.3659 33.4339 76.179 33.32 75.9375 33.2061C75.696 33.0876 75.3792 32.9668 74.9873 32.8438C74.5407 32.6979 74.1146 32.5339 73.709 32.3516C73.3079 32.1647 72.9502 31.9482 72.6357 31.7021C72.3213 31.4561 72.0729 31.1689 71.8906 30.8408C71.7129 30.5127 71.624 30.1299 71.624 29.6924C71.624 29.2686 71.7174 28.8857 71.9043 28.5439C72.0911 28.2021 72.3532 27.9105 72.6904 27.6689C73.0277 27.4229 73.4242 27.236 73.8799 27.1084C74.3356 26.9762 74.8369 26.9102 75.3838 26.9102C76.113 26.9102 76.7533 27.04 77.3047 27.2998C77.8607 27.555 78.2936 27.915 78.6035 28.3799C78.9134 28.8402 79.0684 29.3757 79.0684 29.9863H76.8535C76.8535 29.7174 76.7965 29.4805 76.6826 29.2754C76.5732 29.0658 76.4046 28.9017 76.1768 28.7832C75.9535 28.6647 75.6732 28.6055 75.3359 28.6055C75.0078 28.6055 74.7321 28.6556 74.5088 28.7559C74.29 28.8516 74.1237 28.9837 74.0098 29.1523C73.9004 29.321 73.8457 29.5055 73.8457 29.7061C73.8457 29.8656 73.8867 30.0114 73.9688 30.1436C74.0553 30.2712 74.1784 30.3919 74.3379 30.5059C74.502 30.6152 74.7025 30.7201 74.9395 30.8203C75.1764 30.9206 75.4476 31.0163 75.7529 31.1074C76.2861 31.276 76.7578 31.4629 77.168 31.668C77.5827 31.873 77.9313 32.1055 78.2139 32.3652C78.4964 32.625 78.7083 32.9189 78.8496 33.2471C78.9954 33.5752 79.0684 33.9466 79.0684 34.3613C79.0684 34.8034 78.9818 35.1953 78.8086 35.5371C78.64 35.8789 78.3939 36.1706 78.0703 36.4121C77.7513 36.6491 77.3685 36.8291 76.9219 36.9521C76.4753 37.0752 75.9762 37.1367 75.4248 37.1367C74.9235 37.1367 74.429 37.0729 73.9414 36.9453C73.4538 36.8132 73.0117 36.6126 72.6152 36.3438C72.2233 36.0749 71.9089 35.7331 71.6719 35.3184C71.4395 34.8991 71.3232 34.4023 71.3232 33.8281H73.5518C73.5518 34.1289 73.5951 34.3841 73.6816 34.5938C73.7682 34.7988 73.8913 34.9652 74.0508 35.0928C74.2148 35.2204 74.4131 35.3115 74.6455 35.3662C74.8779 35.4209 75.1377 35.4482 75.4248 35.4482C75.7575 35.4482 76.0264 35.4027 76.2314 35.3115C76.4411 35.2158 76.596 35.0859 76.6963 34.9219C76.7965 34.7578 76.8467 34.5755 76.8467 34.375ZM82.6094 27.0469V37H80.3809V27.0469H82.6094ZM88.5566 27.0469L84.6602 32.0234L82.3906 34.4844L81.9873 32.4131L83.4844 30.2666L85.8223 27.0469H88.5566ZM85.9727 37L83.2246 32.4541L84.9199 31.1348L88.6113 37H85.9727ZM97.3887 31.8047V32.249C97.3887 33.0055 97.2839 33.6846 97.0742 34.2861C96.8691 34.8877 96.5752 35.4004 96.1924 35.8242C95.8141 36.248 95.363 36.5739 94.8389 36.8018C94.3193 37.0251 93.7428 37.1367 93.1094 37.1367C92.4759 37.1367 91.8971 37.0251 91.373 36.8018C90.849 36.5739 90.3932 36.248 90.0059 35.8242C89.623 35.4004 89.3268 34.8877 89.1172 34.2861C88.9076 33.6846 88.8027 33.0055 88.8027 32.249V31.8047C88.8027 31.0482 88.9076 30.3691 89.1172 29.7676C89.3268 29.1615 89.6208 28.6465 89.999 28.2227C90.3818 27.7988 90.8353 27.4753 91.3594 27.252C91.8835 27.0241 92.4622 26.9102 93.0957 26.9102C93.7292 26.9102 94.3079 27.0241 94.832 27.252C95.3561 27.4753 95.8073 27.7988 96.1855 28.2227C96.5684 28.6465 96.8646 29.1615 97.0742 29.7676C97.2839 30.3691 97.3887 31.0482 97.3887 31.8047ZM95.1396 32.249V31.791C95.1396 31.2852 95.0941 30.8385 95.0029 30.4512C94.9118 30.0592 94.7796 29.7311 94.6064 29.4668C94.4333 29.2025 94.2191 29.0042 93.9639 28.8721C93.7087 28.7354 93.4193 28.667 93.0957 28.667C92.7585 28.667 92.4645 28.7354 92.2139 28.8721C91.9632 29.0042 91.7513 29.2025 91.5781 29.4668C91.4095 29.7311 91.2796 30.0592 91.1885 30.4512C91.1019 30.8385 91.0586 31.2852 91.0586 31.791V32.249C91.0586 32.7503 91.1019 33.1969 91.1885 33.5889C91.2796 33.9762 91.4118 34.3044 91.585 34.5732C91.7581 34.8421 91.9701 35.0449 92.2207 35.1816C92.4759 35.3184 92.7721 35.3867 93.1094 35.3867C93.4329 35.3867 93.7201 35.3184 93.9707 35.1816C94.2259 35.0449 94.4401 34.8421 94.6133 34.5732C94.7865 34.3044 94.9163 33.9762 95.0029 33.5889C95.0941 33.1969 95.1396 32.7503 95.1396 32.249ZM105.435 31.0527V32.7754H100.28V31.0527H105.435ZM100.984 27.0469V37H98.7559V27.0469H100.984ZM106.973 27.0469V37H104.751V27.0469H106.973ZM112.886 28.9404L110.315 37H107.937L111.621 27.0469H113.125L112.886 28.9404ZM115.019 37L112.441 28.9404L112.175 27.0469H113.699L117.397 37H115.019ZM114.909 33.2949V35.0176H109.721V33.2949H114.909ZM122.025 27.0469V37H119.804V27.0469H122.025ZM125.054 27.0469V28.7764H116.837V27.0469H125.054ZM128.383 27.0469V37H126.154V27.0469H128.383ZM134.33 27.0469L130.434 32.0234L128.164 34.4844L127.761 32.4131L129.258 30.2666L131.596 27.0469H134.33ZM131.746 37L128.998 32.4541L130.693 31.1348L134.385 37H131.746ZM141.85 35.2773V37H136.552V35.2773H141.85ZM137.311 27.0469V37H135.082V27.0469H137.311ZM141.166 31.0527V32.7207H136.552V31.0527H141.166ZM141.856 27.0469V28.7764H136.552V27.0469H141.856ZM148.104 34.375C148.104 34.2064 148.079 34.056 148.029 33.9238C147.979 33.7871 147.888 33.6618 147.756 33.5479C147.624 33.4339 147.437 33.32 147.195 33.2061C146.954 33.0876 146.637 32.9668 146.245 32.8438C145.799 32.6979 145.372 32.5339 144.967 32.3516C144.566 32.1647 144.208 31.9482 143.894 31.7021C143.579 31.4561 143.331 31.1689 143.148 30.8408C142.971 30.5127 142.882 30.1299 142.882 29.6924C142.882 29.2686 142.975 28.8857 143.162 28.5439C143.349 28.2021 143.611 27.9105 143.948 27.6689C144.285 27.4229 144.682 27.236 145.138 27.1084C145.593 26.9762 146.095 26.9102 146.642 26.9102C147.371 26.9102 148.011 27.04 148.562 27.2998C149.118 27.555 149.551 27.915 149.861 28.3799C150.171 28.8402 150.326 29.3757 150.326 29.9863H148.111C148.111 29.7174 148.054 29.4805 147.94 29.2754C147.831 29.0658 147.662 28.9017 147.435 28.7832C147.211 28.6647 146.931 28.6055 146.594 28.6055C146.266 28.6055 145.99 28.6556 145.767 28.7559C145.548 28.8516 145.382 28.9837 145.268 29.1523C145.158 29.321 145.104 29.5055 145.104 29.7061C145.104 29.8656 145.145 30.0114 145.227 30.1436C145.313 30.2712 145.436 30.3919 145.596 30.5059C145.76 30.6152 145.96 30.7201 146.197 30.8203C146.434 30.9206 146.705 31.0163 147.011 31.1074C147.544 31.276 148.016 31.4629 148.426 31.668C148.84 31.873 149.189 32.1055 149.472 32.3652C149.754 32.625 149.966 32.9189 150.107 33.2471C150.253 33.5752 150.326 33.9466 150.326 34.3613C150.326 34.8034 150.24 35.1953 150.066 35.5371C149.898 35.8789 149.652 36.1706 149.328 36.4121C149.009 36.6491 148.626 36.8291 148.18 36.9521C147.733 37.0752 147.234 37.1367 146.683 37.1367C146.181 37.1367 145.687 37.0729 145.199 36.9453C144.712 36.8132 144.27 36.6126 143.873 36.3438C143.481 36.0749 143.167 35.7331 142.93 35.3184C142.697 34.8991 142.581 34.4023 142.581 33.8281H144.81C144.81 34.1289 144.853 34.3841 144.939 34.5938C145.026 34.7988 145.149 34.9652 145.309 35.0928C145.473 35.2204 145.671 35.3115 145.903 35.3662C146.136 35.4209 146.396 35.4482 146.683 35.4482C147.015 35.4482 147.284 35.4027 147.489 35.3115C147.699 35.2158 147.854 35.0859 147.954 34.9219C148.054 34.7578 148.104 34.5755 148.104 34.375Z" fill="black"/>
<path d="M60.4678 40.8745L59.1143 45H58.0239L59.873 40.0234H60.5669L60.4678 40.8745ZM61.5923 45L60.2354 40.8745L60.126 40.0234H60.8267L62.686 45H61.5923ZM61.5308 43.1475V43.9507H58.9023V43.1475H61.5308ZM63.1475 40.0234H65.0034C65.384 40.0234 65.7109 40.0804 65.9844 40.1943C66.2601 40.3083 66.472 40.4769 66.6201 40.7002C66.7682 40.9235 66.8423 41.1981 66.8423 41.5239C66.8423 41.7905 66.7967 42.0195 66.7056 42.2109C66.6167 42.4001 66.4902 42.5584 66.3262 42.686C66.1644 42.8114 65.9741 42.9116 65.7554 42.9868L65.4307 43.1577H63.8174L63.8105 42.3579H65.0103C65.1903 42.3579 65.3395 42.326 65.458 42.2622C65.5765 42.1984 65.6654 42.1095 65.7246 41.9956C65.7861 41.8817 65.8169 41.7495 65.8169 41.5991C65.8169 41.4396 65.7873 41.3018 65.728 41.1855C65.6688 41.0693 65.5788 40.9805 65.458 40.9189C65.3372 40.8574 65.1857 40.8267 65.0034 40.8267H64.1729V45H63.1475V40.0234ZM65.9297 45L64.7949 42.7817L65.8784 42.7749L67.0269 44.9521V45H65.9297ZM69.6553 40.8745L68.3018 45H67.2114L69.0605 40.0234H69.7544L69.6553 40.8745ZM70.7798 45L69.4229 40.8745L69.3135 40.0234H70.0142L71.8735 45H70.7798ZM70.7183 43.1475V43.9507H68.0898V43.1475H70.7183ZM74.2832 42.8159H73.0049L72.998 42.1118H74.0713C74.2604 42.1118 74.4154 42.0879 74.5361 42.04C74.6569 41.9899 74.7469 41.9181 74.8062 41.8247C74.8677 41.729 74.8984 41.6128 74.8984 41.4761C74.8984 41.3211 74.8688 41.1958 74.8096 41.1001C74.7526 41.0044 74.6626 40.9349 74.5396 40.8916C74.4188 40.8483 74.2627 40.8267 74.0713 40.8267H73.3604V45H72.335V40.0234H74.0713C74.3607 40.0234 74.6193 40.0508 74.8472 40.1055C75.0773 40.1602 75.2721 40.2433 75.4316 40.355C75.5911 40.4666 75.7131 40.6079 75.7974 40.7788C75.8817 40.9474 75.9238 41.1479 75.9238 41.3804C75.9238 41.5854 75.8771 41.7746 75.7837 41.9478C75.6925 42.1209 75.5479 42.2622 75.3496 42.3716C75.1536 42.481 74.8973 42.5413 74.5806 42.5527L74.2832 42.8159ZM74.2388 45H72.7246L73.1245 44.2002H74.2388C74.4188 44.2002 74.5658 44.1717 74.6797 44.1147C74.7936 44.0555 74.8779 43.9757 74.9326 43.8755C74.9873 43.7752 75.0146 43.6602 75.0146 43.5303C75.0146 43.3844 74.9896 43.258 74.9395 43.1509C74.8916 43.0438 74.8141 42.9618 74.707 42.9048C74.5999 42.8455 74.4587 42.8159 74.2832 42.8159H73.2954L73.3022 42.1118H74.5327L74.7686 42.3887C75.0716 42.3841 75.3154 42.4377 75.5 42.5493C75.6868 42.6587 75.8224 42.8011 75.9067 42.9766C75.9933 43.152 76.0366 43.34 76.0366 43.5405C76.0366 43.8595 75.9671 44.1284 75.8281 44.3472C75.6891 44.5636 75.4852 44.7266 75.2163 44.8359C74.9497 44.9453 74.6239 45 74.2388 45ZM81.1396 43.6978C81.1396 43.6089 81.126 43.5291 81.0986 43.4585C81.0736 43.3856 81.0257 43.3195 80.9551 43.2603C80.8844 43.1987 80.7853 43.1383 80.6577 43.0791C80.5301 43.0199 80.3649 42.9583 80.1621 42.8945C79.9365 42.8216 79.7223 42.7396 79.5195 42.6484C79.319 42.5573 79.1413 42.4513 78.9863 42.3306C78.8337 42.2075 78.7129 42.0651 78.624 41.9033C78.5374 41.7415 78.4941 41.5535 78.4941 41.3394C78.4941 41.132 78.5397 40.944 78.6309 40.7754C78.722 40.6045 78.8496 40.4587 79.0137 40.3379C79.1777 40.2148 79.3714 40.1203 79.5947 40.0542C79.8203 39.9881 80.0675 39.9551 80.3364 39.9551C80.7033 39.9551 81.0234 40.0212 81.2969 40.1533C81.5703 40.2855 81.7822 40.4666 81.9326 40.6968C82.0853 40.9269 82.1616 41.1901 82.1616 41.4863H81.1431C81.1431 41.3405 81.1123 41.2129 81.0508 41.1035C80.9915 40.9919 80.9004 40.9041 80.7773 40.8403C80.6566 40.7765 80.5039 40.7446 80.3193 40.7446C80.1416 40.7446 79.9935 40.772 79.875 40.8267C79.7565 40.8791 79.6676 40.9508 79.6084 41.042C79.5492 41.1309 79.5195 41.2311 79.5195 41.3428C79.5195 41.4271 79.54 41.5034 79.5811 41.5718C79.6243 41.6401 79.6882 41.7039 79.7725 41.7632C79.8568 41.8224 79.9604 41.8783 80.0835 41.9307C80.2065 41.9831 80.349 42.0343 80.5107 42.0845C80.7819 42.1665 81.02 42.2588 81.2251 42.3613C81.4325 42.4639 81.6056 42.5789 81.7446 42.7065C81.8836 42.8341 81.9884 42.9788 82.0591 43.1406C82.1297 43.3024 82.165 43.4858 82.165 43.6909C82.165 43.9074 82.1229 44.1011 82.0386 44.272C81.9543 44.4429 81.8324 44.5876 81.6729 44.7061C81.5133 44.8245 81.3231 44.9146 81.1021 44.9761C80.881 45.0376 80.6338 45.0684 80.3604 45.0684C80.1143 45.0684 79.8716 45.0365 79.6323 44.9727C79.3931 44.9066 79.1755 44.8075 78.9795 44.6753C78.7858 44.5431 78.6309 44.3745 78.5146 44.1694C78.3984 43.9644 78.3403 43.7217 78.3403 43.4414H79.3691C79.3691 43.5964 79.3931 43.7274 79.4409 43.8345C79.4888 43.9416 79.556 44.0282 79.6426 44.0942C79.7314 44.1603 79.8363 44.2082 79.957 44.2378C80.0801 44.2674 80.2145 44.2822 80.3604 44.2822C80.5381 44.2822 80.6839 44.2572 80.7979 44.207C80.9141 44.1569 80.9995 44.0874 81.0542 43.9985C81.1112 43.9097 81.1396 43.8094 81.1396 43.6978ZM84.8857 40.8745L83.5322 45H82.4419L84.291 40.0234H84.9849L84.8857 40.8745ZM86.0103 45L84.6533 40.8745L84.5439 40.0234H85.2446L87.104 45H86.0103ZM85.9487 43.1475V43.9507H83.3203V43.1475H85.9487ZM90.252 40.0234H91.2739V43.3115C91.2739 43.6943 91.1919 44.0168 91.0278 44.2788C90.866 44.5409 90.6416 44.738 90.3545 44.8701C90.0697 45.0023 89.7415 45.0684 89.3701 45.0684C88.9987 45.0684 88.6683 45.0023 88.3789 44.8701C88.0918 44.738 87.8662 44.5409 87.7021 44.2788C87.5404 44.0168 87.4595 43.6943 87.4595 43.3115V40.0234H88.4849V43.3115C88.4849 43.5348 88.5202 43.7171 88.5908 43.8584C88.6615 43.9997 88.7629 44.1034 88.895 44.1694C89.0295 44.2355 89.1878 44.2686 89.3701 44.2686C89.557 44.2686 89.7153 44.2355 89.8452 44.1694C89.9774 44.1034 90.0776 43.9997 90.146 43.8584C90.2166 43.7171 90.252 43.5348 90.252 43.3115V40.0234ZM93.646 45H92.5625L92.5693 44.2002H93.646C93.9149 44.2002 94.1416 44.1398 94.3262 44.019C94.5107 43.896 94.6497 43.7171 94.7432 43.4824C94.8389 43.2477 94.8867 42.964 94.8867 42.6313V42.3887C94.8867 42.1335 94.8594 41.909 94.8047 41.7153C94.7523 41.5216 94.6737 41.3587 94.5688 41.2266C94.464 41.0944 94.3353 40.9953 94.1826 40.9292C94.0299 40.8608 93.8545 40.8267 93.6562 40.8267H92.542V40.0234H93.6562C93.9889 40.0234 94.2931 40.0804 94.5688 40.1943C94.8468 40.306 95.0872 40.4666 95.29 40.6763C95.4928 40.8859 95.6489 41.1366 95.7583 41.4282C95.87 41.7176 95.9258 42.04 95.9258 42.3955V42.6313C95.9258 42.9845 95.87 43.307 95.7583 43.5986C95.6489 43.8903 95.4928 44.141 95.29 44.3506C95.0895 44.5579 94.8491 44.7186 94.5688 44.8325C94.2909 44.9442 93.9832 45 93.646 45ZM93.1436 40.0234V45H92.1182V40.0234H93.1436ZM97.7612 40.0234V45H96.7393V40.0234H97.7612Z" fill="black"/>
<path d="M65.08 16.64C67.12 18.6 68.5667 20.0733 69.42 21.06C69.86 21.5533 70.08 21.9733 70.08 22.32C70.08 22.6533 69.8133 23.0533 69.28 23.52C68.7467 23.9733 68.3067 24.2 67.96 24.2C67.6267 24.2 67.22 23.92 66.74 23.36L62.34 18.34V22.24C62.34 22.56 62.3267 22.7933 62.3 22.94C62.2867 23.0867 62.2267 23.26 62.12 23.46C61.9333 23.82 61.4133 24 60.56 24C59.6267 24 59.08 23.7467 58.92 23.24C58.84 23.0267 58.8 22.6867 58.8 22.22V11.1C58.8 10.7933 58.8067 10.5667 58.82 10.42C58.8467 10.26 58.9133 10.08 59.02 9.88C59.2067 9.52 59.7267 9.34 60.58 9.34C61.5133 9.34 62.0667 9.58667 62.24 10.08C62.3067 10.3067 62.34 10.6533 62.34 11.12V14.94C64.1533 12.9 65.62 11.2267 66.74 9.92C67.2067 9.37333 67.6133 9.1 67.96 9.1C68.3067 9.1 68.7467 9.33333 69.28 9.8C69.8133 10.2533 70.08 10.6533 70.08 11C70.08 11.3333 69.88 11.7333 69.48 12.2C68.7067 13.0933 67.5067 14.32 65.88 15.88L65.08 16.64ZM80.9327 17.48C80.9327 18.2933 80.726 18.9 80.3127 19.3C79.9127 19.6867 79.466 19.88 78.9727 19.88H74.2327C74.2327 20.2533 74.4527 20.5667 74.8927 20.82C75.3327 21.0733 75.7727 21.2 76.2127 21.2C76.986 21.2 77.5927 21.12 78.0327 20.96L78.2527 20.88C78.5727 20.7333 78.8393 20.66 79.0527 20.66C79.4793 20.66 79.846 20.96 80.1527 21.56C80.326 21.92 80.4127 22.2267 80.4127 22.48C80.4127 23.6667 78.9927 24.26 76.1527 24.26C75.166 24.26 74.286 24.0933 73.5127 23.76C72.7527 23.4133 72.1593 22.96 71.7327 22.4C70.8927 21.32 70.4727 20.1133 70.4727 18.78C70.4727 17.1 71.0127 15.76 72.0927 14.76C73.186 13.7467 74.546 13.24 76.1727 13.24C78.026 13.24 79.386 13.8933 80.2527 15.2C80.706 15.8933 80.9327 16.6533 80.9327 17.48ZM76.7127 18.06C77.2193 18.06 77.4727 17.8467 77.4727 17.42C77.4727 17.1133 77.3527 16.8667 77.1127 16.68C76.886 16.4933 76.5527 16.4 76.1127 16.4C75.686 16.4 75.2593 16.58 74.8327 16.94C74.406 17.2867 74.1927 17.66 74.1927 18.06H76.7127ZM85.6775 14.86C86.3042 13.9133 87.0575 13.44 87.9375 13.44C89.2975 13.44 90.3108 14.02 90.9775 15.18C91.1242 14.98 91.2975 14.7733 91.4975 14.56C91.7108 14.3333 92.0442 14.0933 92.4975 13.84C92.9508 13.5733 93.4175 13.44 93.8975 13.44C94.9642 13.44 95.8575 13.8533 96.5775 14.68C97.2975 15.4933 97.6575 16.8467 97.6575 18.74V22.24C97.6575 22.5467 97.6442 22.78 97.6175 22.94C97.6042 23.0867 97.5442 23.26 97.4375 23.46C97.2642 23.82 96.7508 24 95.8975 24C95.0575 24 94.5442 23.8133 94.3575 23.44C94.2642 23.24 94.2042 23.0667 94.1775 22.92C94.1642 22.76 94.1575 22.5267 94.1575 22.22V18.72C94.1575 17.56 93.7442 16.98 92.9175 16.98C92.4508 16.98 92.1308 17.1333 91.9575 17.44C91.7975 17.7467 91.7175 18.18 91.7175 18.74V22.24C91.7175 22.56 91.7042 22.7933 91.6775 22.94C91.6642 23.0867 91.6042 23.26 91.4975 23.46C91.3108 23.82 90.7908 24 89.9375 24C89.0975 24 88.5842 23.8133 88.3975 23.44C88.3042 23.24 88.2442 23.0667 88.2175 22.92C88.2042 22.76 88.1975 22.5267 88.1975 22.22V18.72C88.1975 17.56 87.7842 16.98 86.9575 16.98C86.1575 16.98 85.7575 17.56 85.7575 18.72V22.26C85.7575 22.5667 85.7442 22.8 85.7175 22.96C85.7042 23.1067 85.6442 23.28 85.5375 23.48C85.3375 23.8267 84.8175 24 83.9775 24C83.1375 24 82.6242 23.82 82.4375 23.46C82.3442 23.26 82.2842 23.0867 82.2575 22.94C82.2442 22.7933 82.2375 22.56 82.2375 22.24V15.2C82.2375 14.8933 82.2442 14.6667 82.2575 14.52C82.2842 14.36 82.3508 14.1867 82.4575 14C82.6575 13.64 83.1308 13.46 83.8775 13.46C84.6242 13.46 85.1108 13.58 85.3375 13.82C85.5642 14.06 85.6775 14.4067 85.6775 14.86ZM109.409 17.48C109.409 18.2933 109.203 18.9 108.789 19.3C108.389 19.6867 107.943 19.88 107.449 19.88H102.709C102.709 20.2533 102.929 20.5667 103.369 20.82C103.809 21.0733 104.249 21.2 104.689 21.2C105.463 21.2 106.069 21.12 106.509 20.96L106.729 20.88C107.049 20.7333 107.316 20.66 107.529 20.66C107.956 20.66 108.323 20.96 108.629 21.56C108.803 21.92 108.889 22.2267 108.889 22.48C108.889 23.6667 107.469 24.26 104.629 24.26C103.643 24.26 102.763 24.0933 101.989 23.76C101.229 23.4133 100.636 22.96 100.209 22.4C99.3692 21.32 98.9492 20.1133 98.9492 18.78C98.9492 17.1 99.4892 15.76 100.569 14.76C101.663 13.7467 103.023 13.24 104.649 13.24C106.503 13.24 107.863 13.8933 108.729 15.2C109.183 15.8933 109.409 16.6533 109.409 17.48ZM105.189 18.06C105.696 18.06 105.949 17.8467 105.949 17.42C105.949 17.1133 105.829 16.8667 105.589 16.68C105.363 16.4933 105.029 16.4 104.589 16.4C104.163 16.4 103.736 16.58 103.309 16.94C102.883 17.2867 102.669 17.66 102.669 18.06H105.189ZM116.574 13.46C117.907 13.46 119.014 13.9733 119.894 15C120.787 16.0133 121.234 17.2533 121.234 18.72V22.24C121.234 22.5467 121.221 22.78 121.194 22.94C121.181 23.0867 121.127 23.2533 121.034 23.44C120.847 23.8 120.327 23.98 119.474 23.98C118.527 23.98 117.981 23.7333 117.834 23.24C117.754 23.0133 117.714 22.6733 117.714 22.22V18.7C117.714 18.1533 117.554 17.7267 117.234 17.42C116.927 17.1133 116.507 16.96 115.974 16.96C115.454 16.96 115.027 17.12 114.694 17.44C114.374 17.76 114.214 18.18 114.214 18.7V22.24C114.214 22.5467 114.201 22.78 114.174 22.94C114.161 23.0867 114.101 23.2533 113.994 23.44C113.821 23.8 113.307 23.98 112.454 23.98C111.614 23.98 111.101 23.8 110.914 23.44C110.821 23.24 110.761 23.0667 110.734 22.92C110.721 22.76 110.714 22.5267 110.714 22.22V15.14C110.714 14.8467 110.721 14.6267 110.734 14.48C110.761 14.32 110.827 14.1467 110.934 13.96C111.121 13.6267 111.634 13.46 112.474 13.46C113.287 13.46 113.787 13.6133 113.974 13.92C114.107 14.1467 114.174 14.42 114.174 14.74C114.227 14.6467 114.347 14.5133 114.534 14.34C114.721 14.1667 114.901 14.0267 115.074 13.92C115.527 13.6133 116.027 13.46 116.574 13.46ZM129.043 18.72L131.703 20.92C132.036 21.2 132.243 21.4133 132.323 21.56C132.416 21.7067 132.463 21.8467 132.463 21.98C132.463 22.3 132.256 22.7333 131.843 23.28C131.39 23.84 130.99 24.12 130.643 24.12C130.35 24.12 129.943 23.9267 129.423 23.54L129.223 23.4C128.916 23.1467 128.443 22.7067 127.803 22.08C127.163 21.44 126.676 20.9867 126.343 20.72V22.26C126.343 22.5667 126.33 22.8 126.303 22.96C126.29 23.1067 126.23 23.28 126.123 23.48C125.95 23.8267 125.436 24 124.583 24C123.743 24 123.23 23.82 123.043 23.46C122.95 23.26 122.89 23.0867 122.863 22.94C122.85 22.78 122.843 22.5467 122.843 22.24V10.26C122.843 9.95333 122.85 9.72667 122.863 9.58C122.89 9.42 122.95 9.24 123.043 9.04C123.23 8.68 123.75 8.5 124.603 8.5C125.243 8.5 125.696 8.61333 125.963 8.84C126.19 9.02667 126.31 9.32 126.323 9.72C126.336 9.84 126.343 10.0267 126.343 10.28V16.62C126.583 16.42 126.943 16.08 127.423 15.6C127.916 15.12 128.283 14.78 128.523 14.58L128.763 14.42C129.23 14.06 129.63 13.88 129.963 13.88C130.296 13.88 130.676 14.1533 131.103 14.7C131.543 15.2333 131.763 15.6533 131.763 15.96C131.763 16.2667 131.516 16.6267 131.023 17.04L129.043 18.72ZM143.12 17.48C143.12 18.2933 142.913 18.9 142.5 19.3C142.1 19.6867 141.653 19.88 141.16 19.88H136.42C136.42 20.2533 136.64 20.5667 137.08 20.82C137.52 21.0733 137.96 21.2 138.4 21.2C139.173 21.2 139.78 21.12 140.22 20.96L140.44 20.88C140.76 20.7333 141.027 20.66 141.24 20.66C141.667 20.66 142.033 20.96 142.34 21.56C142.513 21.92 142.6 22.2267 142.6 22.48C142.6 23.6667 141.18 24.26 138.34 24.26C137.353 24.26 136.473 24.0933 135.7 23.76C134.94 23.4133 134.347 22.96 133.92 22.4C133.08 21.32 132.66 20.1133 132.66 18.78C132.66 17.1 133.2 15.76 134.28 14.76C135.373 13.7467 136.733 13.24 138.36 13.24C140.213 13.24 141.573 13.8933 142.44 15.2C142.893 15.8933 143.12 16.6533 143.12 17.48ZM138.9 18.06C139.407 18.06 139.66 17.8467 139.66 17.42C139.66 17.1133 139.54 16.8667 139.3 16.68C139.073 16.4933 138.74 16.4 138.3 16.4C137.873 16.4 137.447 16.58 137.02 16.94C136.593 17.2867 136.38 17.66 136.38 18.06H138.9ZM144.505 23.06C144.252 22.9 144.125 22.6467 144.125 22.3C144.125 21.9533 144.378 21.4267 144.885 20.72C145.032 20.4933 145.265 20.38 145.585 20.38C145.918 20.38 146.365 20.5467 146.925 20.88C147.485 21.2 147.992 21.36 148.445 21.36C149.258 21.36 149.665 21.2 149.665 20.88C149.665 20.6267 149.218 20.44 148.325 20.32C147.485 20.2 146.652 19.8867 145.825 19.38C145.438 19.14 145.118 18.7667 144.865 18.26C144.612 17.74 144.485 17.1267 144.485 16.42C144.485 14.3133 145.932 13.26 148.825 13.26C149.772 13.26 150.745 13.4867 151.745 13.94C152.212 14.1533 152.445 14.42 152.445 14.74C152.445 15.06 152.298 15.4533 152.005 15.92C151.712 16.3867 151.412 16.62 151.105 16.62C150.945 16.62 150.645 16.52 150.205 16.32C149.778 16.12 149.312 16.02 148.805 16.02C148.018 16.02 147.625 16.1667 147.625 16.46C147.625 16.86 148.078 17.12 148.985 17.24C149.865 17.3333 150.718 17.5867 151.545 18C151.932 18.1867 152.252 18.5133 152.505 18.98C152.772 19.4333 152.905 20.0067 152.905 20.7C152.905 21.3933 152.772 21.9867 152.505 22.48C152.252 22.96 151.892 23.32 151.425 23.56C150.572 23.9733 149.498 24.18 148.205 24.18C146.925 24.18 145.692 23.8067 144.505 23.06Z" fill="#05BBCC"/>
<g clip-path="url(#clip1_189_480)">
<path d="M25.5454 28.583C25.8266 28.7187 26.0552 28.8732 26.2892 29.083C26.2892 29.138 26.2892 29.193 26.2892 29.2497C26.3437 29.2497 26.3983 29.2497 26.4545 29.2497C26.5888 29.3643 26.5888 29.3643 26.7024 29.4997C26.7024 29.5547 26.7024 29.6097 26.7024 29.6663C26.7842 29.6938 26.866 29.7213 26.9503 29.7497C26.9503 29.8047 26.9503 29.8597 26.9503 29.9163C27.0049 29.9163 27.0594 29.9163 27.1156 29.9163C27.2499 30.0309 27.2499 30.0309 27.3636 30.1663C27.3636 30.2213 27.3636 30.2763 27.3636 30.333C27.4454 30.3605 27.5272 30.388 27.6115 30.4163C27.6115 30.4713 27.6115 30.5263 27.6115 30.583C27.6933 30.6105 27.7751 30.638 27.8594 30.6663C28.0815 30.8695 28.0815 30.8695 28.2727 31.083C28.2727 31.138 28.2727 31.193 28.2727 31.2497C28.3204 31.2703 28.3681 31.2909 28.4173 31.3122C28.6305 31.4316 28.7736 31.565 28.9338 31.7497C28.9338 31.8047 28.9338 31.8597 28.9338 31.9163C29.0156 31.9438 29.0975 31.9713 29.1818 31.9997C29.1818 32.0547 29.1818 32.1097 29.1818 32.1663C29.2363 32.1663 29.2908 32.1663 29.347 32.1663C29.4813 32.2809 29.4813 32.2809 29.595 32.4163C29.595 32.4713 29.595 32.5263 29.595 32.583C29.6768 32.6105 29.7586 32.638 29.8429 32.6663C29.9553 32.7845 29.9553 32.7845 30.0702 32.932C30.2419 33.1423 30.4138 33.322 30.6229 33.4945C30.9006 33.7257 31.1287 33.9841 31.3621 34.2598C31.6154 34.5565 31.8897 34.8181 32.1879 35.0674C32.4654 35.3033 32.6971 35.5652 32.9324 35.8431C33.1872 36.1417 33.4636 36.4046 33.7634 36.6559C34.0164 36.8713 34.2266 37.1045 34.4378 37.361C34.6593 37.626 34.896 37.8614 35.1683 38.0726C35.3948 38.262 35.5673 38.4676 35.7546 38.695C35.8814 38.8471 35.8814 38.8471 36.0826 38.9997C36.2602 39.143 36.3835 39.2726 36.5268 39.4476C36.6965 39.6538 36.8692 39.8293 37.0743 39.9997C37.3296 40.2117 37.5338 40.4442 37.7439 40.7008C37.8659 40.848 37.8659 40.848 38.066 40.9997C38.2899 41.1803 38.4558 41.3764 38.6342 41.6012C38.7714 41.7637 38.7714 41.7637 38.9877 41.9043C39.1818 42.083 39.1818 42.083 39.2337 42.3086C39.2011 43.849 38.6494 45.1752 37.7768 46.4163C37.7222 46.4988 37.6677 46.5813 37.6115 46.6663C37.557 46.6663 37.5024 46.6663 37.4462 46.6663C37.3917 46.7763 37.3371 46.8863 37.2809 46.9997C37.2264 46.9997 37.1718 46.9997 37.1156 46.9997C37.1156 47.0547 37.1156 47.1097 37.1156 47.1663C37.0611 47.1663 37.0065 47.1663 36.9503 47.1663C36.9503 47.2213 36.9503 47.2763 36.9503 47.333C36.8958 47.333 36.8413 47.333 36.7851 47.333C36.7851 47.388 36.7851 47.443 36.7851 47.4997C35.6245 48.5216 34.1066 49.0622 32.5843 49.0431C32.4158 49.0413 32.2476 49.0431 32.0792 49.0452C30.9 49.0479 29.8824 48.7473 28.8512 48.1663C28.8512 48.1113 28.8512 48.0563 28.8512 47.9997C28.803 47.9901 28.7549 47.9806 28.7053 47.9707C28.5069 47.9123 28.3777 47.8345 28.2107 47.7132C28.16 47.6772 28.1093 47.6412 28.057 47.6042C28.0191 47.5697 27.9812 47.5352 27.9421 47.4997C27.9421 47.4447 27.9421 47.3897 27.9421 47.333C27.8858 47.3193 27.8296 47.3055 27.7716 47.2913C26.7729 46.7771 26.1509 45.3606 25.7932 44.3489C25.5312 43.5245 25.5001 42.7805 25.5079 41.9222C25.508 41.7759 25.5079 41.6296 25.5077 41.4833C25.5076 41.0898 25.5095 40.6963 25.5119 40.3028C25.5139 39.8902 25.5141 39.4775 25.5145 39.0649C25.5155 38.2852 25.5183 37.5055 25.5216 36.7258C25.5253 35.8374 25.5271 34.9491 25.5288 34.0607C25.5322 32.2348 25.538 30.4089 25.5454 28.583Z" fill="#17B3AC"/>
<path d="M32.5908 5.98417C32.7018 5.98543 32.8127 5.98657 32.9237 5.98759C33.1916 5.9905 33.4594 5.99459 33.7272 5.9998C33.7272 6.0548 33.7272 6.1098 33.7272 6.16646C33.8295 6.15873 33.8295 6.15873 33.9338 6.15084C34.2909 6.17013 34.5568 6.28091 34.8842 6.41646C34.9961 6.45657 35.108 6.49651 35.22 6.53625C35.5438 6.6578 35.8285 6.81982 36.1239 6.9998C36.1239 7.0548 36.1239 7.1098 36.1239 7.16646C36.1716 7.17506 36.2194 7.18365 36.2685 7.1925C36.484 7.25888 36.6176 7.34902 36.7851 7.4998C36.7851 7.5548 36.7851 7.6098 36.7851 7.66646C36.8515 7.69224 36.8515 7.69224 36.9194 7.71855C37.1917 7.8775 37.4126 8.08714 37.6115 8.33313C37.6115 8.38813 37.6115 8.44313 37.6115 8.4998C37.6933 8.5273 37.7751 8.5548 37.8594 8.58313C38.8139 9.86366 39.2526 11.4077 39.1818 12.9998C39.1272 12.9998 39.0727 12.9998 39.0165 12.9998C39.0165 13.0548 39.0165 13.1098 39.0165 13.1665C38.9619 13.1665 38.9074 13.1665 38.8512 13.1665C38.8296 13.2163 38.8081 13.2662 38.7859 13.3175C38.6785 13.5132 38.5793 13.6091 38.4079 13.7491C37.9167 14.1685 37.4704 14.6332 37.0175 15.0935C36.9285 15.1837 36.8394 15.2739 36.7504 15.3641C36.5867 15.5297 36.4232 15.6956 36.2598 15.8615C36.1877 15.9346 36.1156 16.0078 36.0413 16.0831C35.9302 16.2004 35.9302 16.2004 35.8168 16.3201C35.628 16.4998 35.628 16.4998 35.4628 16.4998C35.4218 16.6235 35.4218 16.6235 35.3801 16.7498C35.0232 17.1475 35.0232 17.1475 34.7189 17.2498C34.7189 17.3048 34.7189 17.3598 34.7189 17.4165C34.5826 17.5293 34.4448 17.6404 34.3057 17.7498C34.2785 17.8048 34.2512 17.8598 34.2231 17.9165C34.1685 17.9165 34.114 17.9165 34.0578 17.9165C34.0305 17.999 34.0032 18.0815 33.9751 18.1665C33.9206 18.1665 33.8661 18.1665 33.8099 18.1665C33.8099 18.2215 33.8099 18.2765 33.8099 18.3331C33.691 18.4508 33.691 18.4508 33.5251 18.5887C33.0637 18.9841 32.6473 19.4207 32.2254 19.858C32.1655 19.9193 32.1057 19.9806 32.044 20.0437C31.9902 20.0994 31.9364 20.155 31.881 20.2123C31.7437 20.3331 31.7437 20.3331 31.5785 20.3331C31.5785 20.3881 31.5785 20.4431 31.5785 20.4998C31.5239 20.4998 31.4694 20.4998 31.4132 20.4998C31.3859 20.5823 31.3586 20.6648 31.3305 20.7498C31.276 20.7498 31.2214 20.7498 31.1652 20.7498C31.1652 20.8048 31.1652 20.8598 31.1652 20.9165C31.0103 21.0935 31.0103 21.0935 30.8347 21.2498C30.7801 21.2498 30.7256 21.2498 30.6694 21.2498C30.6694 21.3048 30.6694 21.3598 30.6694 21.4165C30.6148 21.4165 30.5603 21.4165 30.5041 21.4165C30.5041 21.4715 30.5041 21.5265 30.5041 21.5831C30.3491 21.7602 30.3491 21.7602 30.1735 21.9165C30.1189 21.9165 30.0644 21.9165 30.0082 21.9165C30.0082 21.9715 30.0082 22.0265 30.0082 22.0831C29.9537 22.0831 29.8991 22.0831 29.8429 22.0831C29.8429 22.1381 29.8429 22.1931 29.8429 22.2498C29.7884 22.2498 29.7338 22.2498 29.6776 22.2498C29.6776 22.3048 29.6776 22.3598 29.6776 22.4165C29.6231 22.4165 29.5685 22.4165 29.5123 22.4165C29.5123 22.4715 29.5123 22.5265 29.5123 22.5831C29.388 22.7065 29.388 22.7065 29.2179 22.8488C28.8853 23.1337 28.5777 23.4354 28.2727 23.7498C28.1349 23.8887 27.9972 24.0276 27.8594 24.1665C27.8045 24.2238 27.7495 24.2812 27.6929 24.3403C27.604 24.4321 27.604 24.4321 27.5134 24.5258C27.4298 24.613 27.4298 24.613 27.3445 24.7019C27.1983 24.8331 27.1983 24.8331 27.033 24.8331C27.0125 24.8813 26.9921 24.9294 26.971 24.979C26.8526 25.1939 26.7203 25.3382 26.5371 25.4998C26.4826 25.4998 26.428 25.4998 26.3718 25.4998C26.3548 25.5462 26.3378 25.5926 26.3202 25.6404C26.1589 25.914 25.9634 26.0587 25.7107 26.2498C25.6561 26.2498 25.6016 26.2498 25.5454 26.2498C25.5396 24.3656 25.5352 22.4815 25.5325 20.5973C25.5313 19.7224 25.5295 18.8475 25.5267 17.9726C25.5242 17.2097 25.5226 16.4468 25.5221 15.6839C25.5217 15.2803 25.521 14.8766 25.5192 14.473C25.5175 14.0924 25.517 13.7118 25.5174 13.3313C25.5173 13.1922 25.5168 13.0531 25.5158 12.9141C25.5078 11.6782 25.7262 10.6891 26.2892 9.58313C26.3438 9.47501 26.3438 9.47501 26.3996 9.3647C26.6372 8.93186 26.927 8.56789 27.2551 8.20292C27.2944 8.15914 27.3338 8.11536 27.3743 8.07025C27.5618 7.86855 27.6778 7.75529 27.9421 7.66646C27.9421 7.61146 27.9421 7.55646 27.9421 7.4998C28.3018 7.16646 28.3018 7.16646 28.6032 7.16646C28.6032 7.11146 28.6032 7.05646 28.6032 6.9998C29.0923 6.7101 29.5628 6.45193 30.1143 6.30888C30.261 6.27026 30.4071 6.22906 30.5523 6.18498C31.2385 5.98773 31.8807 5.97014 32.5908 5.98417Z" fill="#17B3AC"/>
<path d="M17.3513 20.6381C17.4292 20.638 17.5072 20.638 17.5875 20.638C17.8366 20.6382 18.0858 20.6401 18.3349 20.642C18.49 20.6424 18.6451 20.6427 18.8001 20.6428C19.3714 20.6441 19.9427 20.6476 20.5141 20.6508C21.7925 20.656 23.0709 20.6611 24.388 20.6664C24.388 25.2039 24.388 29.7414 24.388 34.4164C24.0269 34.4893 23.7093 34.5089 23.3456 34.5029C23.2836 34.5022 23.2216 34.5016 23.1577 34.5009C22.9531 34.4986 22.7486 34.4956 22.544 34.4926C22.4008 34.4908 22.2576 34.489 22.1144 34.4873C21.814 34.4835 21.5136 34.4794 21.2132 34.475C20.831 34.4696 20.4487 34.4648 20.0665 34.4602C19.7704 34.4566 19.4743 34.4527 19.1782 34.4486C19.0375 34.4467 18.8967 34.4449 18.756 34.4432C17.2418 34.4246 15.8091 34.3918 14.4707 33.5831C14.3955 33.538 14.3202 33.4929 14.2427 33.4464C13.6055 33.0421 13.0594 32.577 12.5698 31.9998C12.5698 31.9448 12.5698 31.8898 12.5698 31.8331C12.5153 31.8331 12.4607 31.8331 12.4045 31.8331C12.298 31.6961 12.298 31.6961 12.1876 31.5154C12.1323 31.4269 12.1323 31.4269 12.0759 31.3367C11.9913 31.1664 11.9913 31.1664 11.9913 30.9164C11.9368 30.9164 11.8822 30.9164 11.826 30.9164C11.2522 29.8213 10.97 28.7947 10.9738 27.5571C10.9718 27.4257 10.9718 27.4257 10.9697 27.2916C10.969 26.1705 11.298 25.0681 11.826 24.0831C11.8806 24.0831 11.9351 24.0831 11.9913 24.0831C11.9991 24.0371 12.0069 23.9912 12.0149 23.9438C12.0898 23.6978 12.2114 23.5225 12.3581 23.3123C12.4091 23.2379 12.4601 23.1636 12.5127 23.087C12.5588 23.0307 12.605 22.9744 12.6525 22.9164C12.707 22.9164 12.7616 22.9164 12.8178 22.9164C12.8178 22.8614 12.8178 22.8064 12.8178 22.7498C12.9314 22.6144 12.9314 22.6144 13.0657 22.4998C13.1203 22.4998 13.1748 22.4998 13.231 22.4998C13.231 22.4448 13.231 22.3898 13.231 22.3331C13.4373 22.1484 13.6669 21.9935 13.8922 21.8331C13.9402 21.7979 13.9882 21.7626 14.0377 21.7263C14.2575 21.57 14.3605 21.4998 14.636 21.4998C14.636 21.4448 14.636 21.3898 14.636 21.3331C14.7976 21.2685 14.9595 21.2043 15.1215 21.1404C15.2567 21.0868 15.2567 21.0868 15.3946 21.032C16.056 20.785 16.6425 20.629 17.3513 20.6381Z" fill="#16B2AB"/>
<path d="M39.9256 28.2497C40.5239 28.2348 41.1223 28.2247 41.7208 28.2176C41.9242 28.2147 42.1275 28.2107 42.3309 28.2057C42.6241 28.1986 42.9171 28.1953 43.2104 28.1927C43.3005 28.1897 43.3907 28.1867 43.4836 28.1836C44.0713 28.1833 44.392 28.3047 44.8398 28.6911C44.9669 28.833 44.9669 28.833 44.9669 28.9997C45.0214 28.9997 45.076 28.9997 45.1322 28.9997C45.5262 29.3582 45.5262 29.3582 45.628 29.6664C45.6758 29.6904 45.7235 29.7145 45.7727 29.7393C46.0222 29.8651 46.1776 30.049 46.3718 30.2497C46.4486 30.3098 46.5253 30.37 46.6043 30.432C46.6938 30.5067 46.6938 30.5067 46.7851 30.583C46.7851 30.638 46.7851 30.693 46.7851 30.7497C46.8396 30.7497 46.8942 30.7497 46.9504 30.7497C46.9504 30.8047 46.9504 30.8597 46.9504 30.9164C47.0049 30.9164 47.0595 30.9164 47.1156 30.9164C47.1156 30.9714 47.1156 31.0264 47.1156 31.083C47.1702 31.083 47.2247 31.083 47.2809 31.083C47.2809 31.138 47.2809 31.193 47.2809 31.2497C47.39 31.3047 47.4991 31.3597 47.6115 31.4164C47.6115 31.4714 47.6115 31.5264 47.6115 31.583C47.7479 31.638 47.8842 31.693 48.0247 31.7497C48.0247 31.8047 48.0247 31.8597 48.0247 31.9164C48.1475 31.9576 48.1475 31.9576 48.2727 31.9997C48.2727 32.0547 48.2727 32.1097 48.2727 32.1664C48.3954 32.2076 48.3954 32.2076 48.5206 32.2497C48.5206 32.3047 48.5206 32.3597 48.5206 32.4164C48.5752 32.4164 48.6297 32.4164 48.6859 32.4164C48.6859 32.4714 48.6859 32.5264 48.6859 32.583C48.8086 32.6243 48.8086 32.6243 48.9338 32.6664C49.0733 32.7861 49.0733 32.7861 49.1818 32.9164C49.1818 32.9714 49.1818 33.0264 49.1818 33.083C49.2363 33.083 49.2909 33.083 49.3471 33.083C49.3471 33.1655 49.3471 33.248 49.3471 33.333C49.4698 33.3743 49.4698 33.3743 49.595 33.4164C49.6518 33.5882 49.6518 33.5882 49.6776 33.7497C49.7322 33.7497 49.7867 33.7497 49.8429 33.7497C49.9344 33.9579 50.0256 34.1663 50.1167 34.3747C50.155 34.4617 50.155 34.4617 50.194 34.5505C50.6916 35.6913 50.7821 36.6642 50.752 37.9164C50.7516 37.9793 50.7512 38.0422 50.7507 38.1071C50.6822 39.3859 49.9537 40.7552 49.0991 41.6664C49.0446 41.6664 48.99 41.6664 48.9338 41.6664C48.9066 41.7489 48.8793 41.8314 48.8512 41.9164C48.7966 41.9164 48.7421 41.9164 48.6859 41.9164C48.6586 41.9989 48.6314 42.0814 48.6033 42.1664C48.4246 42.2991 48.2491 42.4189 48.0609 42.5361C48.0079 42.5696 47.9549 42.6031 47.9003 42.6376C46.811 43.3192 45.8052 43.6502 44.5072 43.6403C44.4493 43.6403 44.3915 43.6402 44.3319 43.6402C43.3275 43.6356 42.4746 43.4699 41.5785 42.9997C41.45 42.9346 41.45 42.9346 41.3189 42.8682C41.154 42.7794 40.9933 42.6826 40.8347 42.583C40.8347 42.528 40.8347 42.473 40.8347 42.4164C40.7864 42.4062 40.7382 42.396 40.6885 42.3855C40.3443 42.2875 40.1224 42.1379 39.9256 41.833C39.8397 41.3995 39.8524 40.9691 39.8599 40.5293C39.8601 40.3954 39.86 40.2616 39.8596 40.1277C39.8595 39.7649 39.8629 39.4022 39.8669 39.0394C39.8705 38.6601 39.8709 38.2807 39.8716 37.9014C39.8733 37.1833 39.8781 36.4653 39.8839 35.7472C39.8904 34.9296 39.8935 34.112 39.8965 33.2944C39.9025 31.6128 39.9127 29.9312 39.9256 28.2497Z" fill="#D2DB03"/>
<path d="M46.5373 11.833C46.6135 11.857 46.6898 11.8811 46.7684 11.9059C47.5777 12.197 48.3157 12.7379 48.9339 13.333C48.9339 13.388 48.9339 13.443 48.9339 13.4996C49.0567 13.5409 49.0567 13.5409 49.1819 13.583C49.28 13.7965 49.28 13.7965 49.3472 13.9996C49.4017 13.9996 49.4563 13.9996 49.5125 13.9996C49.9356 14.5888 50.2802 15.2246 50.5042 15.9163C50.5288 15.9844 50.5534 16.0525 50.5788 16.1227C51.0548 17.6579 50.8168 19.4366 50.0902 20.8495C49.5955 21.7566 48.8816 22.5155 48.1085 23.1862C47.9646 23.3132 47.8314 23.4437 47.6994 23.583C47.529 23.7496 47.529 23.7496 47.3637 23.7496C47.3637 23.8046 47.3637 23.8596 47.3637 23.9163C47.2501 24.0517 47.2501 24.0517 47.1158 24.1663C47.0612 24.1663 47.0067 24.1663 46.9505 24.1663C46.9232 24.2488 46.8959 24.3313 46.8678 24.4163C46.749 24.5569 46.749 24.5569 46.6199 24.6663C46.5653 24.6663 46.5108 24.6663 46.4546 24.6663C46.4546 24.7213 46.4546 24.7763 46.4546 24.833C46.4001 24.833 46.3455 24.833 46.2893 24.833C46.2893 24.888 46.2893 24.943 46.2893 24.9996C46.165 25.123 46.165 25.123 45.9949 25.2653C45.7017 25.5152 45.4327 25.778 45.1691 26.0592C45.0496 26.1663 45.0496 26.1663 44.8844 26.1663C44.8844 26.2213 44.8844 26.2763 44.8844 26.333C44.8298 26.333 44.7753 26.333 44.7191 26.333C44.7191 26.388 44.7191 26.443 44.7191 26.4996C44.6645 26.4996 44.61 26.4996 44.5538 26.4996C44.5538 26.5546 44.5538 26.6096 44.5538 26.6663C44.4992 26.6663 44.4447 26.6663 44.3885 26.6663C44.3885 26.7213 44.3885 26.7763 44.3885 26.833C43.9008 26.9041 43.4285 26.9286 42.9361 26.9274C42.8628 26.9275 42.7895 26.9275 42.714 26.9276C42.5601 26.9277 42.4063 26.9275 42.2525 26.9272C42.0174 26.9267 41.7824 26.9272 41.5474 26.9277C41.3974 26.9276 41.2473 26.9275 41.0972 26.9274C41.0273 26.9275 40.9574 26.9277 40.8854 26.9279C40.8197 26.9276 40.754 26.9274 40.6864 26.9271C40.6291 26.927 40.5718 26.927 40.5128 26.9269C40.3118 26.9147 40.1227 26.8742 39.9257 26.833C39.9122 25.0814 39.902 23.3299 39.8957 21.5783C39.8927 20.765 39.8887 19.9518 39.882 19.1385C39.8763 18.4297 39.8725 17.7208 39.8712 17.012C39.8705 16.6366 39.8687 16.2613 39.8645 15.886C39.8606 15.5326 39.8594 15.1793 39.8602 14.8259C39.8601 14.6963 39.8589 14.5667 39.8567 14.4371C39.8408 13.4571 39.8408 13.4571 40.0528 13.1472C40.1979 13.0198 40.3357 12.9254 40.5042 12.833C40.5617 12.7868 40.6192 12.7406 40.6785 12.693C41.0552 12.4163 41.0552 12.4163 41.3306 12.4163C41.3306 12.3613 41.3306 12.3063 41.3306 12.2496C42.9823 11.3715 44.7703 11.2679 46.5373 11.833Z" fill="#D2DB03"/>
<path d="M27.4877 28.2392C27.5865 28.239 27.6852 28.2387 27.787 28.2385C27.8974 28.2387 28.0078 28.2388 28.1182 28.239C28.2337 28.2389 28.3492 28.2388 28.4647 28.2386C28.7792 28.2382 29.0937 28.2383 29.4082 28.2386C29.7367 28.2388 30.0651 28.2386 30.3935 28.2385C30.9452 28.2383 31.4968 28.2385 32.0485 28.2389C32.6872 28.2394 33.3259 28.2392 33.9646 28.2388C34.5119 28.2384 35.0593 28.2383 35.6067 28.2386C35.9341 28.2387 36.2614 28.2387 36.5888 28.2384C36.8965 28.2382 37.2042 28.2384 37.5119 28.2388C37.6251 28.239 37.7384 28.2389 37.8516 28.2387C38.0056 28.2385 38.1595 28.2388 38.3135 28.2392C38.3998 28.2392 38.4862 28.2393 38.5752 28.2393C38.7684 28.2498 38.7684 28.2498 38.851 28.3331C38.859 28.486 38.8611 28.6393 38.861 28.7924C38.8611 28.9419 38.8611 28.9419 38.8613 29.0945C38.861 29.2059 38.8607 29.3174 38.8604 29.4289C38.8604 29.5454 38.8604 29.662 38.8604 29.7786C38.8605 30.0961 38.86 30.4136 38.8594 30.7311C38.8589 31.0625 38.8588 31.3939 38.8587 31.7254C38.8585 32.3534 38.8578 32.9815 38.857 33.6095C38.8561 34.3243 38.8556 35.0391 38.8552 35.754C38.8543 37.2248 38.8529 38.6956 38.851 40.1665C38.5551 40.118 38.4179 40.0106 38.2085 39.7981C38.1477 39.737 38.0869 39.6759 38.0242 39.6129C37.9253 39.5117 37.9253 39.5117 37.8245 39.4084C37.7544 39.3377 37.6844 39.267 37.6122 39.1941C37.4599 39.0402 37.3079 38.886 37.1563 38.7315C36.9161 38.4868 36.6751 38.2429 36.434 37.9991C36.0522 37.613 35.6711 37.2262 35.2902 36.8393C34.6093 36.1475 33.9274 35.4568 33.2453 34.7664C33.0453 34.5638 32.8453 34.3612 32.6457 34.1582C32.4225 33.9314 32.1992 33.7049 31.9758 33.4784C31.9104 33.4118 31.8449 33.3451 31.7776 33.2765C31.4606 32.9556 31.1404 32.6468 30.7944 32.358C30.6621 32.2437 30.5374 32.1309 30.4213 31.9998C30.4213 31.9448 30.4213 31.8898 30.4213 31.8331C30.3667 31.8331 30.3122 31.8331 30.256 31.8331C30.0804 31.6769 30.0804 31.6769 29.9254 31.4998C29.9254 31.4448 29.9254 31.3898 29.9254 31.3331C29.8709 31.3331 29.8163 31.3331 29.7601 31.3331C29.3661 30.9746 29.3661 30.9746 29.2642 30.6665C29.2097 30.6665 29.1552 30.6665 29.099 30.6665C29.099 30.6115 29.099 30.5565 29.099 30.4998C29.0444 30.4998 28.9899 30.4998 28.9337 30.4998C28.758 30.3435 28.758 30.3435 28.6031 30.1665C28.6031 30.1115 28.6031 30.0565 28.6031 29.9998C28.5485 29.9998 28.494 29.9998 28.4378 29.9998C28.0438 29.6413 28.0438 29.6413 27.9419 29.3331C27.8874 29.3331 27.8328 29.3331 27.7766 29.3331C27.3826 28.9746 27.3826 28.9746 27.2808 28.6665C27.199 28.639 27.1171 28.6115 27.0328 28.5831C27.0056 28.5006 26.9783 28.4181 26.9502 28.3331C27.0942 28.188 27.2919 28.2393 27.4877 28.2392Z" fill="#D2DB04"/>
<path d="M38.6034 14.917C38.6853 14.917 38.7671 14.917 38.8514 14.917C38.8514 18.8495 38.8514 22.782 38.8514 26.8337C38.4989 26.8929 38.2157 26.9273 37.866 26.927C37.7221 26.9272 37.7221 26.9272 37.5753 26.9274C37.4712 26.9271 37.3671 26.9268 37.2599 26.9265C37.1482 26.9264 37.0366 26.9264 36.925 26.9265C36.623 26.9265 36.321 26.926 36.0189 26.9254C35.7029 26.9249 35.3869 26.9249 35.0709 26.9248C34.473 26.9245 33.875 26.9238 33.277 26.923C32.5961 26.9221 31.9152 26.9216 31.2342 26.9212C29.8339 26.9203 28.4335 26.9189 27.0332 26.917C27.0928 26.6436 27.1575 26.5091 27.3586 26.3128C27.4237 26.2477 27.4237 26.2477 27.49 26.1813C27.6117 26.0837 27.6117 26.0837 27.777 26.0837C27.777 26.0287 27.777 25.9737 27.777 25.917C27.8316 25.917 27.8861 25.917 27.9423 25.917C27.973 25.8396 27.973 25.8396 28.0043 25.7607C28.1246 25.5544 28.2215 25.5044 28.4382 25.417C28.4382 25.362 28.4382 25.307 28.4382 25.2503C28.4927 25.2503 28.5473 25.2503 28.6035 25.2503C28.6239 25.1988 28.6444 25.1472 28.6654 25.0941C28.7858 24.8878 28.8826 24.8377 29.0993 24.7503C29.0993 24.6953 29.0993 24.6403 29.0993 24.5837C29.1539 24.5837 29.2084 24.5837 29.2646 24.5837C29.2851 24.5321 29.3055 24.4805 29.3266 24.4274C29.4469 24.2211 29.5438 24.1711 29.7605 24.0837C29.7605 24.0287 29.7605 23.9737 29.7605 23.917C29.815 23.917 29.8696 23.917 29.9258 23.917C29.9591 23.8428 29.9591 23.8428 29.9931 23.7672C30.0913 23.5832 30.1908 23.4615 30.3364 23.3141C30.3836 23.2663 30.4308 23.2185 30.4794 23.1693C30.5285 23.1204 30.5776 23.0715 30.6282 23.0212C30.6774 22.971 30.7265 22.9208 30.7771 22.8691C30.8243 22.8218 30.8715 22.7744 30.9201 22.7256C30.9632 22.6823 31.0063 22.6391 31.0507 22.5945C31.1654 22.5003 31.1654 22.5003 31.3307 22.5003C31.3307 22.4453 31.3307 22.3903 31.3307 22.3337C31.3853 22.3337 31.4398 22.3337 31.496 22.3337C31.5011 22.2821 31.5062 22.2305 31.5115 22.1774C31.5337 22.119 31.5558 22.0605 31.5787 22.0003C31.7159 21.9435 31.8537 21.888 31.9919 21.8337C32.0835 21.6767 32.0835 21.6767 32.1572 21.5003C32.3225 21.3128 32.3225 21.3128 32.4877 21.167C32.5423 21.167 32.5968 21.167 32.653 21.167C32.6837 21.0948 32.6837 21.0948 32.715 21.0212C32.8335 20.8062 32.9658 20.6619 33.1489 20.5003C33.2035 20.5003 33.258 20.5003 33.3142 20.5003C33.3329 20.4539 33.3517 20.4075 33.371 20.3597C33.5096 20.1135 33.6921 19.9477 33.8927 19.7503C33.9455 19.6816 33.9984 19.6128 34.0528 19.542C34.2564 19.2932 34.4645 19.1124 34.7192 18.917C34.7737 18.917 34.8282 18.917 34.8844 18.917C34.8844 18.8345 34.8844 18.752 34.8844 18.667C35.3265 18.2503 35.3265 18.2503 35.5456 18.2503C35.5456 18.1678 35.5456 18.0853 35.5456 18.0003C35.9877 17.5837 35.9877 17.5837 36.2068 17.5837C36.2068 17.5012 36.2068 17.4187 36.2068 17.3337C36.3204 17.193 36.3204 17.193 36.4547 17.0837C36.5092 17.0837 36.5638 17.0837 36.62 17.0837C36.62 17.0287 36.62 16.9737 36.62 16.917C36.7336 16.7816 36.7336 16.7816 36.8679 16.667C36.9225 16.667 36.977 16.667 37.0332 16.667C37.0741 16.5432 37.0741 16.5432 37.1158 16.417C37.1704 16.417 37.2249 16.417 37.2811 16.417C37.322 16.2932 37.322 16.2932 37.3638 16.167C37.4183 16.167 37.4729 16.167 37.5291 16.167C37.5291 16.112 37.5291 16.057 37.5291 16.0003C37.6427 15.8649 37.6427 15.8649 37.777 15.7503C37.8315 15.7503 37.8861 15.7503 37.9423 15.7503C37.9696 15.6678 37.9968 15.5853 38.0249 15.5003C38.0795 15.5003 38.134 15.5003 38.1902 15.5003C38.1902 15.4453 38.1902 15.3903 38.1902 15.3337C38.3039 15.1982 38.3039 15.1982 38.4382 15.0837C38.4927 15.0837 38.5473 15.0837 38.6034 15.0837C38.6034 15.0287 38.6034 14.9737 38.6034 14.917Z" fill="#D2DB04"/>
<path d="M40.4215 12.917C40.4488 12.9995 40.4761 13.082 40.5042 13.167C40.3976 13.2816 40.2871 13.3926 40.1736 13.5003C40.119 13.5003 40.0645 13.5003 40.0083 13.5003C40.0219 13.6 40.0356 13.6997 40.0496 13.8024C40.0855 14.1273 40.094 14.4443 40.091 14.7712C40.0872 15.1763 40.097 15.577 40.1199 15.9814C40.1843 17.1263 40.1842 18.2696 40.1817 19.416C40.1815 19.6265 40.1814 19.837 40.1813 20.0475C40.181 20.5953 40.1802 21.1432 40.1793 21.691C40.1785 22.1971 40.1781 22.7032 40.1778 23.2093C40.1769 24.3618 40.1754 25.5144 40.1736 26.667C40.4463 26.722 40.719 26.777 41 26.8337C41 26.8612 41 26.8887 41 26.917C40.8995 26.9187 40.7989 26.9204 40.6953 26.9222C40.6387 26.9232 40.5822 26.9241 40.5239 26.9251C40.3178 26.9161 40.1273 26.8762 39.9257 26.8337C39.9141 25.0807 39.9053 23.3277 39.9 21.5747C39.8974 20.7608 39.8939 19.9468 39.8883 19.1329C39.8833 18.4235 39.8801 17.7142 39.879 17.0048C39.8784 16.6291 39.8768 16.2535 39.8732 15.8779C39.8699 15.5243 39.8688 15.1708 39.8696 14.8172C39.8694 14.6874 39.8685 14.5577 39.8666 14.4279C39.8528 13.4431 39.8528 13.4431 40.0398 13.1621C40.1771 13.0449 40.1771 13.0449 40.4215 12.917Z" fill="#D5DB35"/>
<path d="M27.4877 28.2392C27.5865 28.239 27.6852 28.2387 27.787 28.2385C27.8974 28.2387 28.0078 28.2388 28.1182 28.239C28.2337 28.2389 28.3492 28.2388 28.4647 28.2386C28.7792 28.2382 29.0937 28.2383 29.4082 28.2386C29.7367 28.2388 30.0651 28.2386 30.3935 28.2385C30.9452 28.2383 31.4968 28.2385 32.0485 28.2389C32.6872 28.2394 33.3259 28.2392 33.9646 28.2388C34.5119 28.2384 35.0593 28.2383 35.6067 28.2386C35.9341 28.2387 36.2614 28.2387 36.5888 28.2384C36.8965 28.2382 37.2042 28.2384 37.5119 28.2388C37.6251 28.239 37.7384 28.2389 37.8516 28.2387C38.0056 28.2385 38.1595 28.2388 38.3135 28.2392C38.3998 28.2392 38.4862 28.2393 38.5752 28.2393C38.7684 28.2498 38.7684 28.2498 38.851 28.3331C38.859 28.486 38.8611 28.6393 38.861 28.7924C38.8611 28.9419 38.8611 28.9419 38.8613 29.0945C38.861 29.2059 38.8607 29.3174 38.8604 29.4289C38.8604 29.5454 38.8604 29.662 38.8604 29.7786C38.8605 30.0961 38.86 30.4136 38.8594 30.7311C38.8589 31.0625 38.8588 31.3939 38.8587 31.7254C38.8585 32.3534 38.8578 32.9815 38.857 33.6095C38.8561 34.3243 38.8556 35.0391 38.8552 35.754C38.8543 37.2248 38.8529 38.6956 38.851 40.1665C38.5385 40.1046 38.5385 40.1046 38.3758 39.9113C38.3247 39.8313 38.3247 39.8313 38.2725 39.7498C38.3816 39.7223 38.4907 39.6948 38.6031 39.6665C38.644 34.0565 38.644 34.0565 38.6857 28.3331C34.8948 28.3331 31.1039 28.3331 27.1981 28.3331C27.2254 28.4431 27.2527 28.5531 27.2808 28.6665C27.199 28.639 27.1171 28.6115 27.0328 28.5831C27.0056 28.5006 26.9783 28.4181 26.9502 28.3331C27.0942 28.188 27.2919 28.2393 27.4877 28.2392Z" fill="#DFE273"/>
<path d="M23.6446 20.667C23.8901 20.667 24.1355 20.667 24.3884 20.667C24.3884 25.2045 24.3884 29.742 24.3884 34.417C24.0218 34.4909 23.6984 34.5088 23.329 34.5021C23.2652 34.5013 23.2015 34.5005 23.1358 34.4997C22.9261 34.497 22.7164 34.4936 22.5067 34.4902C22.3609 34.4882 22.2151 34.4862 22.0693 34.4843C21.6863 34.479 21.3033 34.4733 20.9203 34.4674C20.5292 34.4615 20.1381 34.4561 19.7469 34.4507C18.98 34.4399 18.2132 34.4286 17.4463 34.417C17.4463 34.3895 17.4463 34.362 17.4463 34.3337C19.6827 34.3062 21.919 34.2787 24.2231 34.2503C24.2231 29.8228 24.2231 25.3953 24.2231 20.8337C24.0322 20.8337 23.8413 20.8337 23.6446 20.8337C23.6446 20.7787 23.6446 20.7237 23.6446 20.667Z" fill="#6CC8C6"/>
<path d="M39.9256 28.25C40.5315 28.2416 41.1375 28.2358 41.7435 28.2317C41.9497 28.2301 42.1559 28.2278 42.362 28.2249C42.6583 28.2209 42.9545 28.219 43.2507 28.2175C43.343 28.2158 43.4353 28.2141 43.5304 28.2123C43.6164 28.2123 43.7024 28.2122 43.7911 28.2122C43.8667 28.2115 43.9423 28.2107 44.0202 28.21C44.2835 28.262 44.3831 28.3807 44.5537 28.5834C44.4446 28.5559 44.3355 28.5284 44.2231 28.5C42.1776 28.4588 42.1776 28.4588 40.0909 28.4167C40.0636 32.7617 40.0363 37.1067 40.0082 41.5834C40.0628 41.5834 40.1173 41.5834 40.1735 41.5834C40.1735 41.6384 40.1735 41.6934 40.1735 41.75C40.228 41.75 40.2826 41.75 40.3388 41.75C40.3899 41.8291 40.4411 41.9082 40.4937 41.9896C40.6594 42.2352 40.7312 42.3199 40.9999 42.4167C40.9999 42.4717 40.9999 42.5267 40.9999 42.5834C40.9454 42.5834 40.8909 42.5834 40.8347 42.5834C40.8347 42.5284 40.8347 42.4734 40.8347 42.4167C40.7864 42.4065 40.7382 42.3964 40.6885 42.3859C40.3443 42.2879 40.1224 42.1382 39.9256 41.8334C39.8397 41.3998 39.8524 40.9695 39.8599 40.5297C39.8601 40.3958 39.86 40.2619 39.8596 40.128C39.8595 39.7652 39.8629 39.4026 39.8669 39.0398C39.8705 38.6605 39.8709 38.2811 39.8716 37.9017C39.8733 37.1836 39.8781 36.4656 39.8839 35.7476C39.8904 34.93 39.8935 34.1124 39.8965 33.2948C39.9025 31.6132 39.9127 29.9316 39.9256 28.25Z" fill="#D9DD5A"/>
<path d="M38.6035 14.917C38.6854 14.917 38.7672 14.917 38.8515 14.917C38.8515 18.8495 38.8515 22.782 38.8515 26.8337C38.6878 26.8337 38.5242 26.8337 38.3556 26.8337C38.4647 26.8062 38.5738 26.7787 38.6862 26.7503C38.6589 22.9553 38.6316 19.1603 38.6035 15.2503C38.4268 15.4285 38.403 15.5114 38.3556 15.7503C38.2192 15.7503 38.0829 15.7503 37.9424 15.7503C37.9697 15.6678 37.9969 15.5853 38.025 15.5003C38.0796 15.5003 38.1341 15.5003 38.1903 15.5003C38.1903 15.4453 38.1903 15.3903 38.1903 15.3337C38.304 15.1982 38.304 15.1982 38.4383 15.0837C38.4928 15.0837 38.5473 15.0837 38.6035 15.0837C38.6035 15.0287 38.6035 14.9737 38.6035 14.917Z" fill="#E0E375"/>
<path d="M25.5459 28.583C25.8357 28.7291 26.0495 28.8677 26.2897 29.083C26.2897 29.138 26.2897 29.193 26.2897 29.2497C26.3442 29.2497 26.3988 29.2497 26.455 29.2497C26.5893 29.3643 26.5893 29.3643 26.7029 29.4997C26.7029 29.5547 26.7029 29.6097 26.7029 29.6663C26.7847 29.6938 26.8666 29.7213 26.9509 29.7497C26.9509 29.8047 26.9509 29.8597 26.9509 29.9163C27.0054 29.9163 27.0599 29.9163 27.1161 29.9163C27.2504 30.0309 27.2504 30.0309 27.3641 30.1663C27.3641 30.2213 27.3641 30.2763 27.3641 30.333C27.4459 30.3605 27.5277 30.388 27.612 30.4163C27.612 30.4713 27.612 30.5263 27.612 30.583C27.5029 30.5555 27.3938 30.528 27.2814 30.4997C27.2814 30.4447 27.2814 30.3897 27.2814 30.333C27.1451 30.3605 27.0087 30.388 26.8682 30.4163C26.8409 30.2513 26.8137 30.0863 26.7856 29.9163C26.5512 29.8094 26.5512 29.8094 26.3723 29.8903C26.1855 30.0139 26.0902 30.1528 25.9591 30.333C25.9046 30.333 25.85 30.333 25.7938 30.333C25.7393 30.553 25.6847 30.773 25.6285 30.9997C25.6013 30.9997 25.574 30.9997 25.5459 30.9997C25.5459 30.2022 25.5459 29.4047 25.5459 28.583Z" fill="#2DB6B1"/>
<path d="M25.6282 23.583C25.6554 23.583 25.6827 23.583 25.7108 23.583C25.7381 24.0505 25.7653 24.518 25.7934 24.9997C25.9844 24.9447 26.1753 24.8897 26.372 24.833C26.588 24.8568 26.7439 24.9232 26.9505 24.9997C26.8169 25.1698 26.6789 25.3364 26.5373 25.4997C26.4827 25.4997 26.4282 25.4997 26.372 25.4997C26.3464 25.5693 26.3464 25.5693 26.3203 25.6403C26.159 25.9139 25.9635 26.0586 25.7108 26.2497C25.6563 26.2497 25.6017 26.2497 25.5455 26.2497C25.5431 25.8834 25.5416 25.517 25.5403 25.1507C25.5397 25.0469 25.539 24.9431 25.5383 24.8361C25.538 24.7359 25.5377 24.6358 25.5374 24.5326C25.537 24.4405 25.5366 24.3484 25.5361 24.2535C25.5448 24.0198 25.5752 23.8102 25.6282 23.583Z" fill="#2BB4AE"/>
<path d="M27.2263 28.2394C27.3128 28.2394 27.3992 28.2395 27.4883 28.2396C27.6366 28.2394 27.6366 28.2394 27.7879 28.2393C27.8984 28.2396 28.009 28.2399 28.1195 28.2402C28.2351 28.2402 28.3508 28.2402 28.4664 28.2401C28.7813 28.2401 29.0961 28.2406 29.411 28.2412C29.7397 28.2417 30.0684 28.2417 30.397 28.2418C31.0199 28.2421 31.6427 28.2428 32.2656 28.2436C32.9745 28.2446 33.6834 28.245 34.3923 28.2454C35.851 28.2463 37.3097 28.2478 38.7684 28.2496C38.7684 28.2771 38.7684 28.3046 38.7684 28.333C34.9502 28.333 31.132 28.333 27.1981 28.333C27.2254 28.443 27.2527 28.553 27.2808 28.6663C27.199 28.6388 27.1171 28.6113 27.0328 28.583C27.0056 28.5005 26.9783 28.418 26.9502 28.333C27.0328 28.2496 27.0328 28.2496 27.2263 28.2394Z" fill="#DCE181"/>
<path d="M44.4922 11.4789C44.5538 11.4782 44.6153 11.4774 44.6787 11.4766C45.1024 11.4791 45.4689 11.5493 45.8765 11.6664C45.8765 11.6939 45.8765 11.7214 45.8765 11.7498C45.0583 11.7498 44.2401 11.7498 43.3972 11.7498C43.3972 11.8048 43.3972 11.8598 43.3972 11.9164C43.3117 11.9211 43.3117 11.9211 43.2245 11.9259C42.7552 11.959 42.3468 12.0277 41.9054 12.1915C41.7168 12.2597 41.5287 12.301 41.3311 12.3331C42.2025 11.6086 43.4058 11.4894 44.4922 11.4789Z" fill="#D7DD4A"/>
<path d="M25.5459 33.833C25.5732 33.833 25.6004 33.833 25.6285 33.833C25.6285 34.493 25.6285 35.153 25.6285 35.833C25.7104 35.8605 25.7922 35.888 25.8765 35.9163C25.8765 36.2603 25.8388 36.5759 25.7938 36.9163C25.7393 36.9163 25.6847 36.9163 25.6285 36.9163C25.6484 36.9837 25.6682 37.051 25.6886 37.1204C25.7131 37.2095 25.7376 37.2985 25.7628 37.3903C25.8002 37.5223 25.8002 37.5223 25.8384 37.6569C25.8818 37.9523 25.833 38.0669 25.7112 38.333C25.6744 38.5548 25.6744 38.5548 25.6595 38.7757C25.6503 38.8861 25.6503 38.8861 25.6408 38.9987C25.6368 39.054 25.6327 39.1093 25.6285 39.1663C25.6013 39.1663 25.574 39.1663 25.5459 39.1663C25.5459 37.4063 25.5459 35.6463 25.5459 33.833Z" fill="#43B9B6"/>
<path d="M17.4333 20.6501C17.5168 20.6503 17.6002 20.6506 17.6862 20.6508C17.9506 20.6517 18.2149 20.6538 18.4793 20.656C18.6594 20.6568 18.8396 20.6576 19.0197 20.6582C19.4594 20.6601 19.8991 20.6629 20.3388 20.6664C20.3388 20.7214 20.3388 20.7764 20.3388 20.833C19.9297 20.833 19.5206 20.833 19.0991 20.833C19.0718 20.888 19.0446 20.943 19.0165 20.9997C18.7634 21.0518 18.7634 21.0518 18.5206 21.083C18.4661 21.0005 18.4115 20.918 18.3553 20.833C18.1081 20.8057 18.1081 20.8057 17.8285 20.8226C17.2386 20.8428 17.2386 20.8428 16.9504 20.7497C16.9504 20.8047 16.9504 20.8597 16.9504 20.9164C16.5958 20.9164 16.2413 20.9164 15.876 20.9164C15.876 20.8889 15.876 20.8614 15.876 20.833C16.4059 20.6742 16.8823 20.6442 17.4333 20.6501Z" fill="#4CBCB7"/>
<path d="M50.1738 15.333C50.3615 15.5222 50.4141 15.6665 50.5044 15.9163C50.5276 15.9797 50.5509 16.0431 50.5748 16.1084C50.9575 17.3908 50.8612 18.831 50.4218 20.083C50.3945 20.083 50.3672 20.083 50.3391 20.083C50.3183 19.4639 50.3183 19.4639 50.4212 19.2287C50.5784 18.7959 50.5314 18.3308 50.5302 17.8747C50.5316 17.7727 50.5329 17.6708 50.5343 17.5658C50.5343 17.4675 50.5344 17.3692 50.5344 17.2679C50.5347 17.1785 50.5349 17.089 50.5352 16.9969C50.5004 16.7173 50.408 16.5664 50.2565 16.333C50.2142 16.0736 50.2142 16.0736 50.1997 15.807C50.1942 15.7179 50.1888 15.6289 50.1832 15.5371C50.1801 15.4698 50.177 15.4024 50.1738 15.333Z" fill="#D6DE4D"/>
<path d="M49.5948 21.25C49.6493 21.25 49.7039 21.25 49.7601 21.25C49.6393 21.6448 49.4068 21.9047 49.1299 22.1979C49.0857 22.2456 49.0414 22.2933 48.9958 22.3424C48.7025 22.6549 48.399 22.9474 48.0678 23.2194C47.9206 23.3431 47.9206 23.3431 47.7766 23.5833C47.7221 23.5558 47.6675 23.5283 47.6113 23.5C47.6372 23.3021 47.6372 23.3021 47.694 23.0833C47.9419 22.9167 47.9419 22.9167 48.2725 22.9167C48.2998 22.8342 48.327 22.7517 48.3551 22.6667C48.4097 22.6667 48.4642 22.6667 48.5204 22.6667C48.5204 22.5842 48.5204 22.5017 48.5204 22.4167C48.575 22.4167 48.6295 22.4167 48.6857 22.4167C48.713 22.3067 48.7403 22.1967 48.7684 22.0833C48.8502 22.0833 48.932 22.0833 49.0163 22.0833C49.0248 22.0197 49.0333 21.9561 49.0421 21.8906C49.1031 21.6502 49.1503 21.5615 49.3469 21.4167C49.4287 21.4167 49.5105 21.4167 49.5948 21.4167C49.5948 21.3617 49.5948 21.3067 49.5948 21.25Z" fill="#D6DC42"/>
<path d="M41.9922 43.083C42.2376 43.083 42.4831 43.083 42.736 43.083C42.7633 43.138 42.7905 43.193 42.8186 43.2497C43.1289 43.37 43.4679 43.3517 43.7962 43.3594C43.8581 43.3611 43.92 43.3628 43.9837 43.3646C44.1808 43.3701 44.3778 43.375 44.5748 43.3799C44.7087 43.3835 44.8426 43.3871 44.9764 43.3908C45.304 43.3997 45.6316 43.4081 45.9591 43.4163C45.5438 43.6726 45.0802 43.6171 44.6079 43.6185C44.4439 43.6194 44.28 43.6236 44.1161 43.6278C43.3185 43.6322 42.7173 43.4801 41.9922 43.1663C41.9922 43.1388 41.9922 43.1113 41.9922 43.083Z" fill="#D8DC5B"/>
<path d="M24.2231 34.2502C24.2641 34.3327 24.2641 34.3327 24.3058 34.4168C23.9867 34.5225 23.6698 34.5079 23.3384 34.502C23.2746 34.5012 23.2109 34.5004 23.1452 34.4995C22.9351 34.4968 22.7249 34.4934 22.5147 34.4901C22.3688 34.488 22.2229 34.4861 22.077 34.4841C21.6933 34.4789 21.3096 34.4731 20.926 34.4672C20.5343 34.4614 20.1426 34.456 19.751 34.4505C18.9827 34.4398 18.2145 34.4285 17.4463 34.4168C17.4463 34.3893 17.4463 34.3618 17.4463 34.3335C18.2567 34.3226 19.067 34.3117 19.8774 34.3009C20.2537 34.2959 20.63 34.2908 21.0063 34.2858C21.3697 34.2809 21.733 34.276 22.0963 34.2712C22.2347 34.2693 22.3732 34.2675 22.5116 34.2656C22.7059 34.263 22.9002 34.2604 23.0944 34.2578C23.1514 34.257 23.2083 34.2562 23.267 34.2554C23.5857 34.2513 23.9044 34.2494 24.2231 34.2502Z" fill="#79C3C1"/>
<path d="M13.4798 22.167C13.5343 22.2495 13.5889 22.332 13.6451 22.417C13.5905 22.417 13.536 22.417 13.4798 22.417C13.4696 22.4703 13.4593 22.5236 13.4488 22.5785C13.4232 22.6635 13.4232 22.6635 13.3971 22.7503C13.3153 22.7916 13.3153 22.7916 13.2319 22.8337C13.2284 22.899 13.225 22.9643 13.2215 23.0316C13.1977 23.1038 13.1738 23.176 13.1492 23.2503C12.9839 23.3309 12.8173 23.3826 12.642 23.4375C12.4706 23.4891 12.4706 23.4891 12.3847 23.6774C12.3643 23.729 12.3438 23.7805 12.3228 23.8337C12.1536 23.8851 12.1536 23.8851 11.9922 23.917C12.2126 23.5837 12.433 23.2503 12.6533 22.917C12.7079 22.917 12.7624 22.917 12.8186 22.917C12.8186 22.862 12.8186 22.807 12.8186 22.7503C12.9323 22.6149 12.9323 22.6149 13.0666 22.5003C13.1211 22.5003 13.1757 22.5003 13.2319 22.5003C13.2319 22.4453 13.2319 22.3903 13.2319 22.3337C13.3137 22.2787 13.3955 22.2237 13.4798 22.167Z" fill="#39B8B3"/>
<path d="M25.5459 12.083C25.5732 12.083 25.6004 12.083 25.6285 12.083C25.6558 12.6055 25.6831 13.128 25.7112 13.6663C25.7657 13.6938 25.8203 13.7213 25.8765 13.7497C25.8492 13.8047 25.8219 13.8597 25.7938 13.9163C25.7752 14.1227 25.7607 14.3274 25.7496 14.5342C25.7461 14.595 25.7425 14.6558 25.7388 14.7184C25.7276 14.9129 25.7168 15.1073 25.706 15.3018C25.6985 15.4335 25.6909 15.5652 25.6833 15.6969C25.6646 16.0201 25.6465 16.3432 25.6285 16.6663C25.6013 16.6663 25.574 16.6663 25.5459 16.6663C25.5459 15.1538 25.5459 13.6413 25.5459 12.083Z" fill="#4EBCB8"/>
<path d="M12.5703 31.917C13.2005 31.9899 13.2005 31.9899 13.4794 32.0837C13.562 32.266 13.562 32.266 13.6447 32.5003C13.726 32.6676 13.8085 32.8344 13.8926 33.0003C13.9199 33.0553 13.9472 33.1103 13.9753 33.167C13.5621 33.0441 13.3307 32.7993 13.0404 32.4951C12.9949 32.4489 12.9495 32.4026 12.9027 32.355C12.5703 32.0132 12.5703 32.0132 12.5703 31.917Z" fill="#52C1BB"/>
<path d="M25.5459 16.917C25.6277 16.9445 25.7095 16.972 25.7938 17.0003C25.8279 19.3635 25.8279 19.3635 25.6285 20.2503C25.6013 20.2503 25.574 20.2503 25.5459 20.2503C25.5459 19.1503 25.5459 18.0503 25.5459 16.917Z" fill="#4CBCB7"/>
<path d="M35.7104 17.917C35.793 18.0837 35.793 18.0837 35.7362 18.2972C35.6278 18.5003 35.6278 18.5003 35.4573 18.5576C35.4045 18.5662 35.3516 18.5748 35.2972 18.5837C35.2699 18.6387 35.2426 18.6937 35.2145 18.7503C35.1327 18.7503 35.0509 18.7503 34.9666 18.7503C34.9538 18.8457 34.9538 18.8457 34.9408 18.943C34.8801 19.1823 34.8284 19.2695 34.636 19.417C34.5815 19.417 34.5269 19.417 34.4707 19.417C34.4435 19.4995 34.4162 19.582 34.3881 19.667C34.1866 19.8128 34.1866 19.8128 33.9749 19.917C33.9203 19.8895 33.8658 19.862 33.8096 19.8337C34.087 19.4799 34.3612 19.1893 34.7187 18.917C34.7732 18.917 34.8278 18.917 34.884 18.917C34.884 18.8345 34.884 18.752 34.884 18.667C35.326 18.2503 35.326 18.2503 35.5451 18.2503C35.5451 18.1678 35.5451 18.0853 35.5451 18.0003C35.5997 17.9728 35.6542 17.9453 35.7104 17.917Z" fill="#D7DD4B"/>
<path d="M40.4212 12.917C40.4485 12.9995 40.4758 13.082 40.5039 13.167C40.3973 13.2816 40.2868 13.3926 40.1733 13.5003C40.1187 13.5003 40.0642 13.5003 40.008 13.5003C40.0216 13.6017 40.0353 13.7031 40.0493 13.8076C40.1495 14.7327 40.079 15.6591 40.008 16.5837C39.9807 16.5837 39.9534 16.5837 39.9253 16.5837C39.9131 16.1284 39.9041 15.6733 39.8981 15.218C39.8956 15.0632 39.8922 14.9084 39.8879 14.7536C39.8819 14.5308 39.8791 14.3082 39.8769 14.0853C39.8744 14.0163 39.8718 13.9474 39.8692 13.8764C39.8689 13.4028 39.8689 13.4028 40.039 13.1945C40.1763 13.0783 40.1763 13.0783 40.4212 12.917Z" fill="#DBDD53"/>
<path d="M31.9089 20.1666C31.7452 20.2491 31.7452 20.2491 31.5783 20.3333C31.5783 20.3883 31.5783 20.4433 31.5783 20.5C31.5237 20.5 31.4692 20.5 31.413 20.5C31.3857 20.5825 31.3585 20.665 31.3304 20.75C31.2758 20.75 31.2213 20.75 31.1651 20.75C31.1651 20.805 31.1651 20.86 31.1651 20.9166C31.0101 21.0937 31.0101 21.0937 30.8345 21.25C30.7799 21.25 30.7254 21.25 30.6692 21.25C30.6692 21.305 30.6692 21.36 30.6692 21.4166C30.6147 21.3891 30.5601 21.3616 30.5039 21.3333C30.5585 21.1683 30.613 21.0033 30.6692 20.8333C30.7783 20.8333 30.8874 20.8333 30.9998 20.8333C30.9998 20.6683 30.9998 20.5033 30.9998 20.3333C31.6137 20.0357 31.6137 20.0357 31.9089 20.1666Z" fill="#4CBEB7"/>
<path d="M28.0249 25.667C28.0522 25.722 28.0795 25.777 28.1076 25.8337C28.0803 25.8887 28.053 25.9437 28.0249 26.0003C27.9704 26.0003 27.9158 26.0003 27.8596 26.0003C27.8324 26.1103 27.8051 26.2203 27.777 26.3337C27.6679 26.3612 27.5588 26.3887 27.4464 26.417C27.4464 26.4995 27.4464 26.582 27.4464 26.667C27.5434 26.6731 27.5434 26.6731 27.6424 26.6794C27.726 26.6856 27.8096 26.6918 27.8958 26.6982C27.9792 26.704 28.0626 26.7098 28.1486 26.7158C28.251 26.7329 28.251 26.7329 28.3555 26.7503C28.3828 26.8053 28.4101 26.8603 28.4382 26.917C27.9745 26.917 27.5109 26.917 27.0332 26.917C27.113 26.5951 27.1387 26.5275 27.3586 26.3128C27.402 26.2694 27.4453 26.226 27.49 26.1813C27.6117 26.0837 27.6117 26.0837 27.777 26.0837C27.777 26.0287 27.777 25.9737 27.777 25.917C27.8316 25.917 27.8861 25.917 27.9423 25.917C27.9696 25.8345 27.9968 25.752 28.0249 25.667Z" fill="#D3DA39"/>
<path d="M25.5459 31.083C25.7643 31.3032 25.7621 31.4422 25.7938 31.7497C25.785 31.9427 25.7711 32.1355 25.7525 32.3278C25.7184 32.7395 25.7081 33.0964 25.7938 33.4997C25.7393 33.4997 25.6847 33.4997 25.6285 33.4997C25.6013 33.5547 25.574 33.6097 25.5459 33.6663C25.5459 32.8138 25.5459 31.9613 25.5459 31.083Z" fill="#52BDBA"/>
<path d="M25.5457 33.833C25.5729 33.833 25.6002 33.833 25.6283 33.833C25.6283 34.493 25.6283 35.153 25.6283 35.833C25.7101 35.8605 25.7919 35.888 25.8762 35.9163C25.8762 36.2603 25.8386 36.5759 25.7936 36.9163C25.7391 36.9163 25.6845 36.9163 25.6283 36.9163C25.5258 36.2781 25.5364 35.6449 25.5405 34.9997C25.5409 34.8863 25.5413 34.7729 25.5416 34.6595C25.5426 34.384 25.544 34.1085 25.5457 33.833Z" fill="#3BB5B1"/>
<path d="M46.0412 24.75C46.123 24.7775 46.2048 24.805 46.2891 24.8333C46.2891 24.8883 46.2891 24.9433 46.2891 25C46.1648 25.1234 46.1648 25.1234 45.9947 25.2656C45.6621 25.5502 45.3534 25.8515 45.0494 26.1667C45.0222 26.1117 44.9949 26.0567 44.9668 26C44.9941 25.9175 45.0213 25.835 45.0494 25.75C45.1313 25.75 45.2131 25.75 45.2974 25.75C45.2701 25.6125 45.2428 25.475 45.2147 25.3333C45.3238 25.3608 45.4329 25.3883 45.5453 25.4167C45.5453 25.3617 45.5453 25.3067 45.5453 25.25C45.5999 25.25 45.6544 25.25 45.7106 25.25C45.7106 25.1675 45.7106 25.085 45.7106 25C45.8197 25 45.9288 25 46.0412 25C46.0412 24.9175 46.0412 24.835 46.0412 24.75Z" fill="#D8DE48"/>
<path d="M27.6941 7.75C27.7448 7.90495 27.7448 7.90495 27.7768 8.08333C27.627 8.27083 27.627 8.27083 27.4462 8.41667C27.3917 8.41667 27.3371 8.41667 27.2809 8.41667C27.2622 8.47682 27.2434 8.53698 27.2241 8.59896C27.0939 8.88036 26.9331 9.04647 26.7024 9.25C26.6479 9.25 26.5933 9.25 26.5371 9.25C26.6612 8.8295 26.9145 8.57418 27.2086 8.26563C27.2784 8.19094 27.2784 8.19094 27.3497 8.11475C27.464 7.99266 27.579 7.87126 27.6941 7.75Z" fill="#54BDBA"/>
<path d="M27.9424 29.333C28.1469 29.4155 28.1469 29.4155 28.3556 29.4997C28.3556 29.5547 28.3556 29.6097 28.3556 29.6663C28.4221 29.687 28.4886 29.7076 28.5571 29.7288C28.7688 29.833 28.7688 29.833 28.836 30.0101C28.8411 30.0617 28.8462 30.1132 28.8515 30.1663C28.906 30.1663 28.9606 30.1663 29.0168 30.1663C29.0168 30.2213 29.0168 30.2763 29.0168 30.333C29.0986 30.333 29.1804 30.333 29.2647 30.333C29.2647 30.443 29.2647 30.553 29.2647 30.6663C29.2102 30.6663 29.1556 30.6663 29.0994 30.6663C29.0994 30.6113 29.0994 30.5563 29.0994 30.4997C29.0449 30.4997 28.9903 30.4997 28.9341 30.4997C28.7585 30.3434 28.7585 30.3434 28.6035 30.1663C28.6035 30.1113 28.6035 30.0563 28.6035 29.9997C28.549 29.9997 28.4944 29.9997 28.4383 29.9997C28.0442 29.6411 28.0442 29.6411 27.9424 29.333Z" fill="#D9DD4F"/>
<path d="M40.0082 15.417C40.0355 15.417 40.0628 15.417 40.0909 15.417C40.105 15.6913 40.1186 15.9656 40.1322 16.2399C40.1361 16.3164 40.1401 16.3929 40.1441 16.4717C40.1691 16.9817 40.1785 17.4897 40.1735 18.0003C40.119 18.0003 40.0644 18.0003 40.0082 18.0003C39.8595 17.1379 39.9387 16.2852 40.0082 15.417Z" fill="#D0D62C"/>
<path d="M35.6279 37.083C35.7643 37.083 35.9007 37.083 36.0412 37.083C36.0684 37.2205 36.0957 37.358 36.1238 37.4997C36.2602 37.4447 36.3965 37.3897 36.537 37.333C36.5097 37.443 36.4825 37.553 36.4544 37.6663C36.5362 37.6663 36.618 37.6663 36.7023 37.6663C36.7296 37.8588 36.7569 38.0513 36.785 38.2497C36.3805 37.9084 35.9827 37.561 35.6279 37.1663C35.6279 37.1388 35.6279 37.1113 35.6279 37.083Z" fill="#D7DD3F"/>
<path d="M50.4212 38.917C50.5249 39.1629 50.5002 39.2612 50.415 39.5205C50.371 39.6204 50.327 39.7203 50.2817 39.8232C50.2388 39.9227 50.1958 40.0222 50.1516 40.1247C50.0112 40.4104 49.8585 40.6567 49.6774 40.917C49.6501 40.807 49.6228 40.697 49.5947 40.5837C49.6493 40.5837 49.7038 40.5837 49.76 40.5837C49.7549 40.5201 49.7498 40.4565 49.7445 40.391C49.7632 40.1206 49.822 40.097 50.0079 39.917C50.0676 39.6998 50.0676 39.6998 50.0906 39.5003C50.1451 39.5003 50.1997 39.5003 50.2559 39.5003C50.2678 39.4195 50.2797 39.3388 50.292 39.2555C50.3385 39.0003 50.3385 39.0003 50.4212 38.917Z" fill="#D8DD51"/>
<path d="M25.5459 28.583C25.8765 28.7497 25.8765 28.7497 26.0418 28.9997C25.8781 29.0822 25.8781 29.0822 25.7112 29.1663C25.6839 29.7713 25.6566 30.3763 25.6285 30.9997C25.6013 30.9997 25.574 30.9997 25.5459 30.9997C25.5459 30.2022 25.5459 29.4047 25.5459 28.583Z" fill="#57BBB7"/>
<path d="M19.7143 20.6619C19.805 20.6624 19.805 20.6624 19.8975 20.663C20.0448 20.664 20.192 20.6655 20.3393 20.6671C20.3393 20.7221 20.3393 20.7771 20.3393 20.8338C19.9302 20.8338 19.5211 20.8338 19.0996 20.8338C19.0724 20.8888 19.0451 20.9438 19.017 21.0004C18.7639 21.0525 18.7639 21.0525 18.5211 21.0838C18.4938 20.9738 18.4666 20.8638 18.4385 20.7504C18.8684 20.6781 19.279 20.6567 19.7143 20.6619Z" fill="#36B5B0"/>
<path d="M36.7851 47.5004C36.2838 47.8761 35.7982 48.1883 35.2148 48.417C35.2148 48.362 35.2148 48.307 35.2148 48.2504C35.2694 48.2504 35.3239 48.2504 35.3801 48.2504C35.3801 48.1954 35.3801 48.1404 35.3801 48.0837C35.4892 48.0837 35.5983 48.0837 35.7107 48.0837C35.738 47.9737 35.7653 47.8637 35.7934 47.7504C35.9024 47.7779 36.0115 47.8054 36.1239 47.8337C36.1325 47.7804 36.141 47.7271 36.1498 47.6722C36.1685 47.6155 36.1873 47.5588 36.2066 47.5004C36.4655 47.4133 36.5363 47.4225 36.7851 47.5004Z" fill="#51BCB6"/>
<path d="M11.0826 28.167C11.1645 28.1945 11.2463 28.222 11.3306 28.2503C11.3277 28.3304 11.3277 28.3304 11.3248 28.4121C11.3176 28.7594 11.3112 29.0738 11.4184 29.4066C11.4973 29.6719 11.4906 29.7482 11.4132 30.0003C11.1865 29.4599 11.0536 28.9195 11 28.3337C11.0273 28.2787 11.0545 28.2237 11.0826 28.167Z" fill="#3CB8B3"/>
<path d="M39.0988 42.333C39.126 42.333 39.1533 42.333 39.1814 42.333C39.2256 42.8595 39.1606 43.3265 39.0265 43.833C39.0121 43.8879 38.9977 43.9428 38.983 43.9994C38.9139 44.247 38.8688 44.3982 38.6855 44.583C38.6973 44.4649 38.7094 44.3469 38.7217 44.2288C38.7284 44.1631 38.7351 44.0974 38.742 44.0296C38.7663 43.8476 38.8067 43.6776 38.8508 43.4997C38.854 43.3608 38.8547 43.2218 38.8508 43.083C38.9327 43.083 39.0145 43.083 39.0988 43.083C39.0988 42.8355 39.0988 42.588 39.0988 42.333Z" fill="#7AD1CF"/>
<path d="M29.2646 30.667C29.3737 30.667 29.4828 30.667 29.5952 30.667C29.9258 31.0188 29.9258 31.0188 29.9258 31.2503C29.9804 31.2503 30.0349 31.2503 30.0911 31.2503C30.0911 31.3328 30.0911 31.4153 30.0911 31.5003C30.2275 31.5278 30.3638 31.5553 30.5043 31.5837C30.477 31.6662 30.4498 31.7487 30.4217 31.8337C30.2564 31.8337 30.2564 31.8337 30.0808 31.6774C29.9258 31.5003 29.9258 31.5003 29.9258 31.3337C29.8713 31.3337 29.8167 31.3337 29.7605 31.3337C29.3665 30.9751 29.3665 30.9751 29.2646 30.667Z" fill="#DADF4F"/>
<path d="M46.8682 12C47.4671 12.1823 47.9747 12.4903 48.4384 12.9167C48.4384 12.9992 48.4384 13.0817 48.4384 13.1667C48.377 13.1134 48.3157 13.0601 48.2525 13.0052C48.0478 12.8269 48.0478 12.8269 47.8547 12.7917C47.6946 12.75 47.6946 12.75 47.5397 12.5885C47.3301 12.3835 47.1468 12.3266 46.8682 12.25C46.8682 12.1675 46.8682 12.085 46.8682 12Z" fill="#D7DA50"/>
<path d="M25.5459 24.167C25.5732 24.167 25.6004 24.167 25.6285 24.167C25.6558 24.7445 25.6831 25.322 25.7112 25.917C25.7385 25.862 25.7657 25.807 25.7938 25.7503C25.9029 25.7778 26.012 25.8053 26.1244 25.8337C25.9902 25.9761 25.8522 26.1149 25.7112 26.2503C25.6566 26.2503 25.6021 26.2503 25.5459 26.2503C25.5459 25.5628 25.5459 24.8753 25.5459 24.167Z" fill="#60C1BE"/>
<path d="M28.5211 23.083C28.603 23.083 28.6848 23.083 28.7691 23.083C28.64 23.4344 28.3927 23.6045 28.1079 23.833C28.0239 23.9149 27.9404 23.9975 27.86 24.083C27.8873 23.9455 27.9145 23.808 27.9426 23.6663C27.8881 23.6388 27.8335 23.6113 27.7773 23.583C27.8864 23.583 27.9955 23.583 28.1079 23.583C28.1352 23.473 28.1625 23.363 28.1906 23.2497C28.2724 23.2497 28.3542 23.2497 28.4385 23.2497C28.4658 23.1947 28.493 23.1397 28.5211 23.083Z" fill="#43BAB3"/>
<path d="M36.7847 16.833C36.812 16.888 36.8392 16.943 36.8673 16.9997C36.8128 16.9997 36.7583 16.9997 36.7021 16.9997C36.6748 17.1372 36.6475 17.2747 36.6194 17.4163C36.5103 17.4438 36.4012 17.4713 36.2888 17.4997C36.2803 17.5512 36.2718 17.6028 36.263 17.6559C36.2062 17.833 36.2062 17.833 35.9583 17.9997C35.9037 17.9447 35.8492 17.8897 35.793 17.833C35.9066 17.708 35.9066 17.708 36.0409 17.583C36.0954 17.583 36.15 17.583 36.2062 17.583C36.2062 17.5005 36.2062 17.418 36.2062 17.333C36.3198 17.1924 36.3198 17.1924 36.4541 17.083C36.5087 17.083 36.5632 17.083 36.6194 17.083C36.6194 17.028 36.6194 16.973 36.6194 16.9163C36.674 16.8888 36.7285 16.8613 36.7847 16.833Z" fill="#D4DB40"/>
<path d="M25.5453 41.917C25.5725 41.917 25.5998 41.917 25.6279 41.917C25.6279 42.247 25.6279 42.577 25.6279 42.917C25.6825 42.917 25.737 42.917 25.7932 42.917C25.7932 43.1645 25.7932 43.412 25.7932 43.667C25.7387 43.6945 25.6841 43.722 25.6279 43.7503C25.5606 43.5127 25.5354 43.3031 25.5372 43.0563C25.5376 42.9564 25.5376 42.9564 25.538 42.8545C25.5387 42.7857 25.5394 42.717 25.5401 42.6462C25.5405 42.5761 25.5408 42.5061 25.5412 42.4339C25.5422 42.2616 25.5437 42.0893 25.5453 41.917Z" fill="#57BEBB"/>
<path d="M47.1987 42.75C47.335 42.75 47.4714 42.75 47.6119 42.75C47.3533 42.9631 47.0924 43.0976 46.7854 43.2292C46.7002 43.2665 46.615 43.3039 46.5272 43.3424C46.2872 43.4174 46.1884 43.4245 45.959 43.3333C46.2376 43.2085 46.3891 43.1667 46.7028 43.1667C46.7028 43.0842 46.7028 43.0017 46.7028 42.9167C46.8664 42.9167 47.0301 42.9167 47.1987 42.9167C47.1987 42.8617 47.1987 42.8067 47.1987 42.75Z" fill="#DCE15C"/>
<path d="M30.7522 22.917C30.7522 23.1877 30.6984 23.34 30.5869 23.5837C30.5324 23.6387 30.4778 23.6937 30.4216 23.7503C30.3671 23.7228 30.3126 23.6953 30.2564 23.667C30.2291 23.7495 30.2018 23.832 30.1737 23.917C30.0919 23.917 30.0101 23.917 29.9258 23.917C30.0479 23.6293 30.2099 23.4462 30.432 23.2295C30.4919 23.1706 30.5517 23.1118 30.6134 23.0511C30.6592 23.0068 30.705 22.9626 30.7522 22.917Z" fill="#D7DD52"/>
<path d="M33.0666 20.583C33.0938 20.638 33.1211 20.693 33.1492 20.7497C33.0947 20.7497 33.0401 20.7497 32.9839 20.7497C32.9294 20.9147 32.8748 21.0797 32.8186 21.2497C32.7368 21.2497 32.655 21.2497 32.5707 21.2497C32.5707 21.3047 32.5707 21.3597 32.5707 21.4163C32.5162 21.4163 32.4616 21.4163 32.4054 21.4163C32.3833 21.4696 32.3611 21.5229 32.3383 21.5778C32.2401 21.7497 32.2401 21.7497 31.9922 21.833C32.1113 21.5529 32.2606 21.367 32.4881 21.1663C32.5426 21.1663 32.5971 21.1663 32.6533 21.1663C32.6755 21.1165 32.6977 21.0667 32.7205 21.0153C32.8174 20.8353 32.9173 20.7198 33.0666 20.583Z" fill="#D6DD49"/>
<path d="M25.5459 20.333C25.5732 20.333 25.6004 20.333 25.6285 20.333C25.6336 20.4394 25.6386 20.5457 25.6437 20.6553C25.6507 20.7944 25.6577 20.9335 25.6647 21.0726C25.6679 21.1427 25.6712 21.2129 25.6745 21.2852C25.678 21.3523 25.6815 21.4194 25.685 21.4886C25.6896 21.5816 25.6896 21.5816 25.6942 21.6764C25.7029 21.8404 25.7029 21.8404 25.7938 21.9997C25.7657 22.1618 25.7657 22.1618 25.7164 22.3434C25.7003 22.4038 25.6842 22.4642 25.6676 22.5264C25.6547 22.5726 25.6418 22.6187 25.6285 22.6663C25.6013 22.6663 25.574 22.6663 25.5459 22.6663C25.5459 21.8963 25.5459 21.1263 25.5459 20.333Z" fill="#5DC3C0"/>
<path d="M15.876 34.0833C16.3844 34.0751 16.3844 34.0751 16.5371 34.0833C16.5644 34.1108 16.5917 34.1383 16.6198 34.1666C16.7426 34.1796 16.866 34.1875 16.9894 34.193C17.1009 34.1982 17.1009 34.1982 17.2146 34.2035C17.3318 34.2084 17.3318 34.2084 17.4514 34.2135C17.5299 34.2171 17.6083 34.2207 17.6892 34.2244C17.8836 34.2332 18.0781 34.2417 18.2727 34.2499C18.2727 34.2774 18.2727 34.3049 18.2727 34.3333C17.9662 34.3381 17.6597 34.3411 17.3532 34.3437C17.2235 34.3458 17.2235 34.3458 17.0911 34.3479C16.6534 34.3507 16.2845 34.3476 15.876 34.1666C15.876 34.1391 15.876 34.1116 15.876 34.0833Z" fill="#42B3B0"/>
<path d="M31.8262 33.25C31.9364 33.3056 32.0466 33.3611 32.1568 33.4167C32.213 33.439 32.2693 33.4614 32.3272 33.4844C32.5418 33.617 32.6113 33.7813 32.7353 34C32.8424 34.1142 32.9518 34.2263 33.0658 34.3333C33.0386 34.3883 33.0113 34.4433 32.9832 34.5C32.79 34.3076 32.5973 34.1148 32.4047 33.9219C32.3495 33.8669 32.2943 33.812 32.2375 33.7554C32.1853 33.703 32.1331 33.6506 32.0793 33.5967C32.0308 33.5482 31.9823 33.4998 31.9324 33.4499C31.8262 33.3333 31.8262 33.3333 31.8262 33.25Z" fill="#DAE158"/>
<path d="M11.826 24.083C11.8806 24.1105 11.9351 24.138 11.9913 24.1663C11.9368 24.3313 11.8822 24.4963 11.826 24.6663C11.7715 24.6663 11.7169 24.6663 11.6607 24.6663C11.6522 24.7523 11.6437 24.8382 11.6349 24.9268C11.5788 25.2456 11.4862 25.4691 11.3302 25.7497C11.1719 25.2709 11.5067 24.7134 11.7227 24.2757C11.7568 24.2121 11.7909 24.1485 11.826 24.083Z" fill="#45AFAB"/>
<path d="M27.6113 30.583C27.9193 30.6865 28.057 30.8423 28.2725 31.083C28.2725 31.138 28.2725 31.193 28.2725 31.2497C28.3816 31.3047 28.4907 31.3597 28.6031 31.4163C28.5212 31.4438 28.4394 31.4713 28.3551 31.4997C28.2421 31.4203 28.1318 31.3369 28.0246 31.2497C27.97 31.2497 27.9155 31.2497 27.8593 31.2497C27.6113 30.6768 27.6113 30.6768 27.6113 30.583Z" fill="#5DC2C0"/>
<path d="M35.959 7C36.0135 7 36.0681 7 36.1243 7C36.1243 7.055 36.1243 7.11 36.1243 7.16667C36.172 7.17526 36.2197 7.18385 36.2689 7.19271C36.4843 7.25908 36.618 7.34922 36.7854 7.5C36.7854 7.555 36.7854 7.61 36.7854 7.66667C36.8672 7.69417 36.9491 7.72167 37.0334 7.75C36.7854 7.83333 36.7854 7.83333 36.6098 7.77604C36.4549 7.66667 36.4549 7.66667 36.4187 7.5C36.4034 7.445 36.388 7.39 36.3722 7.33333C36.1664 7.22528 36.1664 7.22528 35.959 7.16667C35.959 7.11167 35.959 7.05667 35.959 7Z" fill="#48B9B1"/>
<path d="M38.2731 13.583C38.3276 13.6105 38.3822 13.638 38.4384 13.6663C38.1929 13.9138 37.9475 14.1613 37.6946 14.4163C37.64 14.3063 37.5855 14.1963 37.5293 14.083C37.5838 14.0005 37.6384 13.918 37.6946 13.833C37.8037 13.8605 37.9128 13.888 38.0252 13.9163C38.0252 13.8338 38.0252 13.7513 38.0252 13.6663C38.107 13.6388 38.1888 13.6113 38.2731 13.583Z" fill="#54C0BA"/>
<path d="M28.9339 24.75C28.9884 24.7775 29.043 24.805 29.0992 24.8333C29.0719 24.9158 29.0446 24.9983 29.0165 25.0833C28.9347 25.1108 28.8529 25.1383 28.7686 25.1667C28.6274 25.4167 28.6274 25.4167 28.5206 25.6667C28.3843 25.6667 28.2479 25.6667 28.1074 25.6667C28.162 25.5842 28.2165 25.5017 28.2727 25.4167C28.3273 25.4167 28.3818 25.4167 28.438 25.4167C28.438 25.3617 28.438 25.3067 28.438 25.25C28.4925 25.25 28.5471 25.25 28.6033 25.25C28.6272 25.1984 28.651 25.1469 28.6756 25.0938C28.7686 24.9167 28.7686 24.9167 28.9339 24.75Z" fill="#D3DC42"/>
<path d="M50.2566 20.083C50.3393 20.333 50.3393 20.333 50.2837 20.4945C50.2543 20.5512 50.2249 20.6079 50.1946 20.6663C50.1661 20.7231 50.1375 20.7798 50.1081 20.8382C50.0079 21.0009 49.9001 21.1205 49.7607 21.2497C49.7607 21.1397 49.7607 21.0297 49.7607 20.9163C49.8153 20.9163 49.8698 20.9163 49.926 20.9163C49.926 20.7513 49.926 20.5863 49.926 20.4163C49.9806 20.4163 50.0351 20.4163 50.0913 20.4163C50.1459 20.3063 50.2004 20.1963 50.2566 20.083Z" fill="#DAE055"/>
<path d="M30.174 6.41713C29.8553 6.81882 29.8553 6.81882 29.5861 6.86146C29.4237 6.86001 29.2615 6.84762 29.0996 6.83379C29.7871 6.22209 29.7871 6.22209 30.174 6.41713Z" fill="#42B5B0"/>
<path d="M29.8428 48.5835C30.3662 48.5547 30.7603 48.6424 31.2477 48.8335C31.2477 48.8885 31.2477 48.9435 31.2477 49.0002C30.5523 48.8352 30.5523 48.8352 29.8428 48.6668C29.8428 48.6393 29.8428 48.6118 29.8428 48.5835Z" fill="#50BAB6"/>
<path d="M30.4219 31.917C30.531 31.917 30.6401 31.917 30.7525 31.917C30.7525 31.972 30.7525 32.027 30.7525 32.0837C30.8615 32.0562 30.9706 32.0287 31.083 32.0003C31.1376 32.2203 31.1921 32.4403 31.2483 32.667C31.1938 32.667 31.1392 32.667 31.083 32.667C30.9642 32.5452 30.9642 32.5452 30.8351 32.3857C30.7013 32.2219 30.5709 32.0673 30.4219 31.917Z" fill="#D8DE47"/>
<path d="M42.4053 28.3331C42.7324 28.3258 43.0595 28.3214 43.3867 28.3174C43.4799 28.3153 43.5731 28.3133 43.6692 28.3111C43.7581 28.3103 43.8471 28.3095 43.9387 28.3087C44.0621 28.3067 44.0621 28.3067 44.1879 28.3047C44.2542 28.3141 44.3205 28.3234 44.3887 28.3331C44.4433 28.4156 44.4978 28.4981 44.554 28.5831C44.5084 28.5699 44.4627 28.5567 44.4156 28.5431C44.2052 28.4956 44.0088 28.4822 43.7934 28.4734C43.672 28.4681 43.672 28.4681 43.5481 28.4628C43.4641 28.4595 43.3802 28.4562 43.2937 28.4529C43.2085 28.4493 43.1232 28.4457 43.0354 28.442C42.8254 28.4331 42.6153 28.4246 42.4053 28.4164C42.4053 28.3889 42.4053 28.3614 42.4053 28.3331Z" fill="#D2DB3A"/>
<path d="M29.4298 22.083C29.5662 22.1105 29.7026 22.138 29.843 22.1663C29.7612 22.2076 29.7612 22.2076 29.6778 22.2497C29.6778 22.3047 29.6778 22.3597 29.6778 22.4163C29.6232 22.4163 29.5687 22.4163 29.5125 22.4163C29.5125 22.4713 29.5125 22.5263 29.5125 22.583C29.3504 22.6988 29.1851 22.8102 29.0166 22.9163C29.0711 22.7238 29.1257 22.5313 29.1819 22.333C29.2364 22.333 29.291 22.333 29.3472 22.333C29.3745 22.2505 29.4017 22.168 29.4298 22.083Z" fill="#54C1B9"/>
<path d="M29.0992 6.83301C29.0719 6.91551 29.0446 6.99801 29.0165 7.08301C28.962 7.08301 28.9074 7.08301 28.8512 7.08301C28.8512 7.13801 28.8512 7.19301 28.8512 7.24967C28.483 7.37342 28.483 7.37342 28.1074 7.49967C28.2159 7.33301 28.2159 7.33301 28.3554 7.16634C28.4372 7.16634 28.519 7.16634 28.6033 7.16634C28.6033 7.11134 28.6033 7.05634 28.6033 6.99967C28.9132 6.83301 28.9132 6.83301 29.0992 6.83301Z" fill="#54BDB7"/>
<path d="M29.2646 32.167C29.4299 32.2816 29.4299 32.2816 29.5952 32.417C29.5952 32.472 29.5952 32.527 29.5952 32.5837C29.677 32.6112 29.7589 32.6387 29.8432 32.667C29.9841 32.8025 30.1223 32.9412 30.2564 33.0837C30.2291 33.1387 30.2018 33.1937 30.1737 33.2503C30.0053 33.1442 29.84 33.0328 29.6779 32.917C29.6779 32.862 29.6779 32.807 29.6779 32.7503C29.6233 32.7503 29.5688 32.7503 29.5126 32.7503C29.5126 32.6678 29.5126 32.5853 29.5126 32.5003C29.4308 32.5003 29.3489 32.5003 29.2646 32.5003C29.2646 32.3903 29.2646 32.2803 29.2646 32.167Z" fill="#6AC6C4"/>
<path d="M25.9585 29C26.0131 29.0275 26.0676 29.055 26.1238 29.0833C26.0693 29.1933 26.0147 29.3033 25.9585 29.4167C25.904 29.4167 25.8494 29.4167 25.7932 29.4167C25.7659 29.5542 25.7387 29.6917 25.7106 29.8333C25.6833 29.8333 25.656 29.8333 25.6279 29.8333C25.6279 29.6133 25.6279 29.3933 25.6279 29.1667C25.7829 29.0781 25.7829 29.0781 25.9585 29Z" fill="#1AAFA8"/>
<path d="M12.6533 22.917C12.7079 22.9445 12.7624 22.972 12.8186 23.0003C12.674 23.4066 12.674 23.4066 12.4881 23.5003C12.4642 23.5553 12.4403 23.6103 12.4157 23.667C12.3228 23.8337 12.3228 23.8337 12.1517 23.8857C12.099 23.8961 12.0464 23.9064 11.9922 23.917C12.3228 23.417 12.3228 23.417 12.6533 22.917Z" fill="#5EC3BD"/>
<path d="M15.5457 21.083C15.5457 21.138 15.5457 21.193 15.5457 21.2497C15.2618 21.4405 15.1337 21.4312 14.8019 21.4163C14.8019 21.4713 14.8019 21.5263 14.8019 21.583C14.6655 21.583 14.5292 21.583 14.3887 21.583C14.4705 21.5555 14.5523 21.528 14.6366 21.4997C14.6366 21.4447 14.6366 21.3897 14.6366 21.333C14.757 21.291 14.8776 21.2494 14.9982 21.208C15.0653 21.1848 15.1324 21.1616 15.2016 21.1377C15.3804 21.083 15.3804 21.083 15.5457 21.083Z" fill="#48B9B2"/>
<path d="M35.7112 17.917C35.7939 18.0837 35.7939 18.0837 35.737 18.2972C35.6286 18.5003 35.6286 18.5003 35.4581 18.5576C35.4053 18.5662 35.3524 18.5748 35.298 18.5837C35.2707 18.6387 35.2434 18.6937 35.2153 18.7503C35.0449 18.8024 35.0449 18.8024 34.8848 18.8337C34.8848 18.7787 34.8848 18.7237 34.8848 18.667C35.3373 18.2503 35.3373 18.2503 35.5459 18.2503C35.5459 18.1678 35.5459 18.0853 35.5459 18.0003C35.6005 17.9728 35.655 17.9453 35.7112 17.917Z" fill="#D8DE4E"/>
<path d="M41.9922 43.083C42.2376 43.083 42.4831 43.083 42.736 43.083C42.7633 43.138 42.7905 43.193 42.8186 43.2497C42.986 43.304 42.986 43.304 43.1492 43.333C43.1492 43.388 43.1492 43.443 43.1492 43.4997C42.9872 43.4622 42.8254 43.4238 42.6637 43.3851C42.5735 43.3638 42.4834 43.3426 42.3906 43.3206C42.1575 43.2497 42.1575 43.2497 41.9922 43.083Z" fill="#D8DC47"/>
<path d="M38.7688 15C38.6862 15.25 38.6862 15.25 38.4383 15.4167C38.3784 15.5883 38.3784 15.5883 38.3556 15.75C38.2192 15.75 38.0829 15.75 37.9424 15.75C37.9697 15.6675 37.9969 15.585 38.025 15.5C38.0796 15.5 38.1341 15.5 38.1903 15.5C38.1903 15.445 38.1903 15.39 38.1903 15.3333C38.5598 15 38.5598 15 38.7688 15Z" fill="#D2D842"/>
<path d="M33.9755 35C34.0573 35.0275 34.1391 35.055 34.2234 35.0833C34.1416 35.2071 34.1416 35.2071 34.0581 35.3333C34.1399 35.3333 34.2218 35.3333 34.3061 35.3333C34.3061 35.4708 34.3061 35.6083 34.3061 35.75C34.1151 35.585 33.9242 35.42 33.7275 35.25C33.8094 35.2225 33.8912 35.195 33.9755 35.1667C33.9755 35.1117 33.9755 35.0567 33.9755 35Z" fill="#D6DC3E"/>
<path d="M48.2725 22.917C48.2725 23.0837 48.2725 23.0837 48.0814 23.3024C47.8593 23.5003 47.8593 23.5003 47.6113 23.5003C47.6372 23.3024 47.6372 23.3024 47.694 23.0837C47.9419 22.917 47.9419 22.917 48.2725 22.917Z" fill="#D6DC40"/>
<path d="M37.7771 15.75C37.8317 15.7775 37.8862 15.805 37.9424 15.8333C37.8879 15.9983 37.8333 16.1633 37.7771 16.3333C37.6135 16.3608 37.4498 16.3883 37.2812 16.4167C37.3085 16.3342 37.3358 16.2517 37.3639 16.1667C37.4184 16.1667 37.473 16.1667 37.5292 16.1667C37.5292 16.1117 37.5292 16.0567 37.5292 16C37.6532 15.8646 37.6532 15.8646 37.7771 15.75Z" fill="#D3DC38"/>
<path d="M33.5615 36.583C33.9039 36.6981 34.0014 36.8829 34.2227 37.1663C33.9232 37.267 33.8391 37.2116 33.5615 37.083C33.5615 36.918 33.5615 36.753 33.5615 36.583Z" fill="#54BEBA"/>
<path d="M14.2227 21.583C14.2772 21.6105 14.3318 21.638 14.388 21.6663C14.3062 21.8588 14.2243 22.0513 14.14 22.2497C14.1128 22.1947 14.0855 22.1397 14.0574 22.083C13.8938 22.1105 13.7301 22.138 13.5615 22.1663C13.7695 21.9492 13.979 21.7585 14.2227 21.583Z" fill="#54C0BA"/>
<path d="M25.876 44.417C25.9578 44.417 26.0396 44.417 26.1239 44.417C26.1677 44.5522 26.2106 44.6876 26.253 44.8232C26.277 44.8987 26.301 44.9741 26.3257 45.0518C26.3718 45.2503 26.3718 45.2503 26.2892 45.417C26.2199 45.2818 26.1511 45.1463 26.0826 45.0107C26.0442 44.9353 26.0059 44.8599 25.9664 44.7822C25.876 44.5837 25.876 44.5837 25.876 44.417Z" fill="#59C0BC"/>
<path d="M26.9502 29.917C27.1155 29.917 27.1155 29.917 27.2498 30.0316C27.3634 30.167 27.3634 30.167 27.3634 30.3337C27.4452 30.3612 27.5271 30.3887 27.6114 30.417C27.6114 30.472 27.6114 30.527 27.6114 30.5837C27.5023 30.5562 27.3932 30.5287 27.2808 30.5003C27.2808 30.4453 27.2808 30.3903 27.2808 30.3337C27.1717 30.3337 27.0626 30.3337 26.9502 30.3337C26.9502 30.1962 26.9502 30.0587 26.9502 29.917Z" fill="#62C3BF"/>
<path d="M38.4379 44.333C38.5197 44.333 38.6015 44.333 38.6858 44.333C38.6858 44.5255 38.6858 44.718 38.6858 44.9163C38.604 44.9438 38.5222 44.9713 38.4379 44.9997C38.3449 44.5205 38.3449 44.5205 38.4379 44.333Z" fill="#45B7B1"/>
<path d="M41 42.583C41.1364 42.583 41.2727 42.583 41.4132 42.583C41.4132 42.638 41.4132 42.693 41.4132 42.7497C41.5496 42.7497 41.686 42.7497 41.8264 42.7497C41.8537 42.8597 41.881 42.9697 41.9091 43.083C41.5958 42.9622 41.2986 42.8204 41 42.6663C41 42.6388 41 42.6113 41 42.583Z" fill="#DADF57"/>
<path d="M34.9668 36.417C35.2974 36.417 35.2974 36.417 35.4368 36.516C35.5702 36.7017 35.5978 36.8585 35.628 37.0837C35.533 37.0041 35.4383 36.9242 35.3439 36.8441C35.2911 36.7996 35.2384 36.7551 35.1841 36.7093C35.0494 36.5837 35.0494 36.5837 34.9668 36.417Z" fill="#D8DD4B"/>
<path d="M11.5787 30C11.6333 30 11.6878 30 11.744 30C11.8678 30.2809 11.9093 30.4337 11.9093 30.75C11.8275 30.7225 11.7457 30.695 11.6614 30.6667C11.5632 30.3698 11.5632 30.3698 11.4961 30.0833C11.5234 30.0558 11.5506 30.0283 11.5787 30Z" fill="#42B7B1"/>
<path d="M44.5537 28.583C44.7603 28.6976 44.7603 28.6976 44.9669 28.833C44.9669 28.888 44.9669 28.943 44.9669 28.9997C45.0215 28.9997 45.076 28.9997 45.1322 28.9997C45.1595 29.0822 45.1868 29.1647 45.2149 29.2497C45.133 29.2909 45.133 29.2909 45.0496 29.333C45.0223 29.278 44.995 29.223 44.9669 29.1663C44.8851 29.1388 44.8033 29.1113 44.719 29.083C44.719 29.028 44.719 28.973 44.719 28.9163C44.6645 28.9163 44.6099 28.9163 44.5537 28.9163C44.5537 28.8063 44.5537 28.6963 44.5537 28.583Z" fill="#D7DD55"/>
<path d="M48.6857 22.167C48.7402 22.167 48.7948 22.167 48.851 22.167C48.8382 22.3928 48.8112 22.5391 48.6524 22.7041C48.5288 22.8067 48.4009 22.9039 48.2725 23.0003C48.2997 22.8903 48.327 22.7803 48.3551 22.667C48.4097 22.667 48.4642 22.667 48.5204 22.667C48.5204 22.5845 48.5204 22.502 48.5204 22.417C48.5749 22.417 48.6295 22.417 48.6857 22.417C48.6857 22.3345 48.6857 22.252 48.6857 22.167Z" fill="#D8E156"/>
<path d="M33.9749 6.16702C33.9749 6.24952 33.9749 6.33202 33.9749 6.41702C33.8112 6.44452 33.6476 6.47202 33.479 6.50036C33.4245 6.41786 33.3699 6.33536 33.3137 6.25036C33.5376 6.13749 33.7277 6.16161 33.9749 6.16702ZM33.1484 6.33369C33.2303 6.37494 33.2303 6.37494 33.3137 6.41702C33.2319 6.45827 33.2319 6.45827 33.1484 6.50036C33.1484 6.44536 33.1484 6.39036 33.1484 6.33369Z" fill="#1AADA4"/>
<path d="M26.3721 45.417C26.3993 45.472 26.4266 45.527 26.4547 45.5837C26.5076 45.606 26.5604 45.6283 26.6148 45.6514C26.8416 45.783 26.8736 45.9213 26.9506 46.167C26.8688 46.167 26.7869 46.167 26.7026 46.167C26.3721 45.7384 26.3721 45.7384 26.3721 45.417Z" fill="#53BAB4"/>
<path d="M37.6113 39.083C37.7204 39.083 37.8295 39.083 37.9419 39.083C37.9419 39.1655 37.9419 39.248 37.9419 39.333C38.0237 39.333 38.1055 39.333 38.1898 39.333C38.2171 39.4705 38.2444 39.608 38.2725 39.7497C38.1775 39.6702 38.0829 39.5902 37.9884 39.5101C37.9357 39.4656 37.8829 39.4211 37.8286 39.3753C37.694 39.2497 37.694 39.2497 37.6113 39.083Z" fill="#D8DD4C"/>
<path d="M24.2231 34.2498C24.2503 34.3048 24.2776 34.3598 24.3057 34.4164C24.0124 34.5134 23.7637 34.4934 23.4586 34.4633C23.3695 34.4548 23.2805 34.4463 23.1887 34.4376C23.121 34.4306 23.0532 34.4236 22.9834 34.4164C22.9834 34.3889 22.9834 34.3614 22.9834 34.3331C23.3987 34.281 23.8037 34.2389 24.2231 34.2498Z" fill="#6ABEBB"/>
<path d="M25.7103 22.25C25.7376 22.25 25.7648 22.25 25.7929 22.25C25.792 22.3123 25.791 22.3746 25.79 22.4388C25.7893 22.5209 25.7885 22.6029 25.7878 22.6875C25.7868 22.7687 25.7858 22.8499 25.7849 22.9336C25.7919 23.1381 25.8171 23.3051 25.8756 23.5C25.821 23.5 25.7665 23.5 25.7103 23.5C25.5222 22.7487 25.5222 22.7487 25.6173 22.4063C25.648 22.3547 25.6787 22.3031 25.7103 22.25Z" fill="#25ABA5"/>
<path d="M37.1161 14.5C37.2525 14.5 37.3888 14.5 37.5293 14.5C37.3657 14.6925 37.202 14.885 37.0335 15.0833C36.9789 15.0008 36.9244 14.9183 36.8682 14.8333C36.8954 14.7783 36.9227 14.7233 36.9508 14.6667C37.0054 14.6942 37.0599 14.7217 37.1161 14.75C37.1161 14.6675 37.1161 14.585 37.1161 14.5Z" fill="#52C1BA"/>
<path d="M20.3391 20.667C20.5573 20.667 20.7755 20.667 21.0003 20.667C21.0003 20.7495 21.0003 20.832 21.0003 20.917C20.7275 20.917 20.4548 20.917 20.1738 20.917C20.2284 20.8895 20.2829 20.862 20.3391 20.8337C20.3391 20.7787 20.3391 20.7237 20.3391 20.667Z" fill="#26A9A4"/>
<path d="M36.7852 47.5004C36.5943 47.6379 36.4034 47.7754 36.2067 47.9171C36.1794 47.8346 36.1521 47.7521 36.124 47.6671C36.2832 47.3461 36.4709 47.4212 36.7852 47.5004Z" fill="#63C4BE"/>
<path d="M38.9335 43.583C39.0293 43.8729 38.9975 43.9449 38.8973 44.2236C38.8736 44.291 38.8498 44.3583 38.8253 44.4277C38.797 44.5046 38.797 44.5046 38.7682 44.583C38.7409 44.583 38.7136 44.583 38.6855 44.583C38.695 44.4631 38.7056 44.3434 38.7165 44.2236C38.7223 44.1569 38.728 44.0902 38.734 44.0215C38.7682 43.833 38.7682 43.833 38.9335 43.583Z" fill="#6CCCC6"/>
<path d="M37.1984 38.167C37.2257 38.3595 37.2529 38.552 37.281 38.7503C37.1174 38.6128 36.9538 38.4753 36.7852 38.3337C37.0331 38.167 37.0331 38.167 37.1984 38.167Z" fill="#D9DE3A"/>
<path d="M34.8839 18.833C34.9112 18.9155 34.9385 18.998 34.9666 19.083C34.86 19.1976 34.7495 19.3086 34.636 19.4163C34.5814 19.4163 34.5269 19.4163 34.4707 19.4163C34.5036 19.1759 34.536 19.0978 34.7238 18.9372C34.7766 18.9028 34.8295 18.8684 34.8839 18.833Z" fill="#D2D92C"/>
<path d="M27.7772 46.667C27.859 46.777 27.9409 46.887 28.0252 47.0003C27.9433 47.0278 27.8615 47.0553 27.7772 47.0837C27.75 47.1387 27.7227 47.1937 27.6946 47.2503C27.64 47.1953 27.5855 47.1403 27.5293 47.0837C27.55 46.9118 27.55 46.9118 27.6119 46.7503C27.6665 46.7228 27.721 46.6953 27.7772 46.667Z" fill="#2BB8B3"/>
<path d="M11.9922 31.083C12.1013 31.1105 12.2104 31.138 12.3228 31.1663C12.4093 31.3203 12.4093 31.3203 12.4674 31.5049C12.4874 31.566 12.5075 31.6271 12.5281 31.6901C12.5421 31.7373 12.5562 31.7844 12.5707 31.833C12.5162 31.833 12.4616 31.833 12.4054 31.833C12.269 31.5855 12.1327 31.338 11.9922 31.083Z" fill="#6BC4C0"/>
<path d="M11.165 29.083C11.2196 29.083 11.2741 29.083 11.3303 29.083C11.5185 29.6634 11.5185 29.6634 11.413 29.9997C11.3711 29.894 11.3299 29.788 11.289 29.682C11.266 29.623 11.243 29.564 11.2193 29.5033C11.165 29.333 11.165 29.333 11.165 29.083Z" fill="#60BFBA"/>
<path d="M46.8679 24.167C46.8679 24.417 46.8679 24.417 46.7543 24.5576C46.62 24.667 46.62 24.667 46.4547 24.667C46.4274 24.722 46.4002 24.777 46.3721 24.8337C46.3721 24.6962 46.3721 24.5587 46.3721 24.417C46.5357 24.3345 46.6993 24.252 46.8679 24.167Z" fill="#D7DA46"/>
<path d="M33.7271 19.917C33.7543 20.027 33.7816 20.137 33.8097 20.2503C33.6052 20.3741 33.6052 20.3741 33.3965 20.5003C33.3965 20.2503 33.3965 20.2503 33.5618 20.068C33.6163 20.0182 33.6709 19.9683 33.7271 19.917Z" fill="#D7DD42"/>
<path d="M26.4546 9.25C26.4819 9.25 26.5091 9.25 26.5372 9.25C26.4966 9.79359 26.4966 9.79359 26.2841 9.99479C26.2313 10.024 26.1785 10.0532 26.124 10.0833C26.2157 9.79277 26.3111 9.51876 26.4546 9.25Z" fill="#61BFBA"/>
<path d="M34.9668 6.5C35.27 6.5588 35.5209 6.68978 35.7932 6.83333C35.4481 6.94933 35.2862 6.8186 34.9668 6.66667C34.9668 6.61167 34.9668 6.55667 34.9668 6.5Z" fill="#6AC3BE"/>
<path d="M48.5205 41.667C48.6569 41.667 48.7932 41.667 48.9337 41.667C48.9065 41.7495 48.8792 41.832 48.8511 41.917C48.7965 41.917 48.742 41.917 48.6858 41.917C48.6585 41.9995 48.6313 42.082 48.6032 42.167C48.5759 42.167 48.5486 42.167 48.5205 42.167C48.5205 42.002 48.5205 41.837 48.5205 41.667Z" fill="#D9DD46"/>
<path d="M28.6035 31.5C28.7688 31.6146 28.7688 31.6146 28.9341 31.75C28.9341 31.805 28.9341 31.86 28.9341 31.9167C29.0159 31.9442 29.0977 31.9717 29.182 32C29.182 32.055 29.182 32.11 29.182 32.1667C28.915 32.1202 28.7669 32.0557 28.6035 31.8333C28.6035 31.7233 28.6035 31.6133 28.6035 31.5Z" fill="#6BC9C6"/>
<path d="M37.0335 46.75C37.1698 46.75 37.3062 46.75 37.4467 46.75C37.3649 46.8737 37.3649 46.8737 37.2814 47C37.2268 47 37.1723 47 37.1161 47C37.1161 47.055 37.1161 47.11 37.1161 47.1667C37.0616 47.1667 37.007 47.1667 36.9508 47.1667C36.9235 47.2217 36.8963 47.2767 36.8682 47.3333C36.8682 47.2508 36.8682 47.1683 36.8682 47.0833C36.9227 47.0833 36.9773 47.0833 37.0335 47.0833C37.0335 46.9733 37.0335 46.8633 37.0335 46.75Z" fill="#62C4BE"/>
<path d="M37.1152 40.167C37.3629 40.2502 37.4481 40.3046 37.6111 40.5003C37.6111 40.5553 37.6111 40.6103 37.6111 40.667C37.4747 40.667 37.3384 40.667 37.1979 40.667C37.1706 40.502 37.1433 40.337 37.1152 40.167Z" fill="#56BFC0"/>
<path d="M28.6855 30.167C28.7946 30.167 28.9037 30.167 29.0161 30.167C29.0161 30.222 29.0161 30.277 29.0161 30.3337C29.0979 30.3337 29.1798 30.3337 29.2641 30.3337C29.2641 30.4437 29.2641 30.5537 29.2641 30.667C29.2095 30.667 29.155 30.667 29.0988 30.667C29.0988 30.612 29.0988 30.557 29.0988 30.5003C29.0442 30.5003 28.9897 30.5003 28.9335 30.5003C28.7992 30.3337 28.7992 30.3337 28.6855 30.167Z" fill="#DEE161"/>
<path d="M29.7599 23.917C29.8144 23.917 29.869 23.917 29.9252 23.917C29.8979 24.0545 29.8706 24.192 29.8425 24.3337C29.6789 24.3612 29.5153 24.3887 29.3467 24.417C29.4603 24.2503 29.4603 24.2503 29.5946 24.0837C29.6492 24.0837 29.7037 24.0837 29.7599 24.0837C29.7599 24.0287 29.7599 23.9737 29.7599 23.917Z" fill="#D1DA3E"/>
<path d="M30.3386 21.6666C30.2568 21.7903 30.2568 21.7903 30.1734 21.9166C30.1188 21.9166 30.0643 21.9166 30.0081 21.9166C29.9808 21.9716 29.9535 22.0266 29.9254 22.0832C29.8981 21.9457 29.8709 21.8082 29.8428 21.6666C30.0486 21.5628 30.1247 21.6018 30.3386 21.6666Z" fill="#4CBFB7"/>
<path d="M38.1897 45.25C38.2715 45.25 38.3533 45.25 38.4376 45.25C38.3396 45.5313 38.2496 45.7206 38.0244 45.9167C38.0244 45.8067 38.0244 45.6967 38.0244 45.5833C38.079 45.5833 38.1335 45.5833 38.1897 45.5833C38.1897 45.4733 38.1897 45.3633 38.1897 45.25Z" fill="#5DC3BE"/>
<path d="M45.959 29.917C46.1757 30.0044 46.2725 30.0544 46.3929 30.2607C46.4133 30.3123 46.4338 30.3639 46.4549 30.417C46.2756 30.3748 46.1243 30.3337 45.959 30.2503C45.959 30.1403 45.959 30.0303 45.959 29.917Z" fill="#D5DC51"/>
<path d="M27.1985 26.5C27.2258 26.555 27.253 26.61 27.2811 26.6667C27.417 26.7268 27.5547 26.7828 27.6944 26.8333C27.4553 26.9022 27.2904 26.9167 27.0332 26.9167C27.1055 26.5937 27.1055 26.5937 27.1985 26.5Z" fill="#DAE158"/>
<path d="M11.8267 24.083C11.8812 24.1105 11.9358 24.138 11.992 24.1663C11.9374 24.3313 11.8829 24.4963 11.8267 24.6663C11.7721 24.6663 11.7176 24.6663 11.6614 24.6663C11.6614 24.7213 11.6614 24.7763 11.6614 24.833C11.6068 24.8055 11.5523 24.778 11.4961 24.7497C11.6052 24.5297 11.7143 24.3097 11.8267 24.083Z" fill="#54BBB6"/>
<path d="M30.0911 23.583C30.2547 23.583 30.4183 23.583 30.5869 23.583C30.5324 23.638 30.4778 23.693 30.4216 23.7497C30.3671 23.7222 30.3126 23.6947 30.2564 23.6663C30.2291 23.7488 30.2018 23.8313 30.1737 23.9163C30.0919 23.9163 30.0101 23.9163 29.9258 23.9163C29.9803 23.8063 30.0349 23.6963 30.0911 23.583Z" fill="#D4DD2E"/>
<path d="M49.5946 21.25C49.6492 21.25 49.7037 21.25 49.7599 21.25C49.6566 21.5544 49.6218 21.6484 49.3467 21.8333C49.3467 21.6958 49.3467 21.5583 49.3467 21.4167C49.4285 21.4167 49.5103 21.4167 49.5946 21.4167C49.5946 21.3617 49.5946 21.3067 49.5946 21.25Z" fill="#DCE054"/>
<path d="M33.1483 20.5C33.2029 20.5275 33.2574 20.555 33.3136 20.5833C33.2103 20.8878 33.1755 20.9817 32.9004 21.1667C32.9277 21.0292 32.9549 20.8917 32.983 20.75C33.0376 20.75 33.0921 20.75 33.1483 20.75C33.1483 20.6675 33.1483 20.585 33.1483 20.5Z" fill="#CFD819"/>
<path d="M43.2311 11.6668C43.1493 11.6943 43.0675 11.7218 42.9832 11.7501C42.9832 11.8051 42.9832 11.8601 42.9832 11.9168C42.8195 11.9168 42.6559 11.9168 42.4873 11.9168C42.703 11.6268 42.8866 11.6436 43.2311 11.6668Z" fill="#D8DF44"/>
</g>
</g>
<defs>
<clipPath id="clip0_189_480">
<rect width="184" height="59" fill="none"/>
</clipPath>
<clipPath id="clip1_189_480">
<rect width="40" height="43" fill="none" transform="translate(11 6)"/>
</clipPath>
</defs>
</svg>