<?xml version="1.0" encoding="UTF-8"?>
<svg version="1.1" xmlns="http://www.w3.org/2000/svg" width="484" height="516">
<path d="M0 0 C3.40219909 1.62840299 6.16821057 3.48285384 9 6 C9 6.66 9 7.32 9 8 C9.66 8 10.32 8 11 8 C12.625 9.375 12.625 9.375 14 11 C14 11.66 14 12.32 14 13 C14.99 13.33 15.98 13.66 17 14 C17 14.66 17 15.32 17 16 C17.66 16 18.32 16 19 16 C20.625 17.375 20.625 17.375 22 19 C22 19.66 22 20.32 22 21 C22.99 21.33 23.98 21.66 25 22 C25 22.66 25 23.32 25 24 C25.99 24.33 26.98 24.66 28 25 C30.6875 27.4375 30.6875 27.4375 33 30 C33 30.66 33 31.32 33 32 C33.5775 32.2475 34.155 32.495 34.75 32.75 C37.32939979 34.18299988 39.06121592 35.78424676 41 38 C41 38.66 41 39.32 41 40 C41.99 40.33 42.98 40.66 44 41 C44 41.66 44 42.32 44 43 C44.66 43 45.32 43 46 43 C47.625 44.375 47.625 44.375 49 46 C49 46.66 49 47.32 49 48 C49.99 48.33 50.98 48.66 52 49 C53.359375 50.41796875 53.359375 50.41796875 54.75 52.1875 C56.82736652 54.71111562 58.90799157 56.86841895 61.4375 58.9375 C64.7978787 61.7118524 67.55773931 64.81261914 70.3828125 68.12109375 C73.44741075 71.68165355 76.76564162 74.82074294 80.375 77.8125 C83.73187152 80.64394815 86.53548476 83.7865566 89.3828125 87.12109375 C92.46640605 90.70372297 95.81045254 93.85907432 99.4375 96.875 C102.49982656 99.45904562 105.04212897 102.25845902 107.59765625 105.3359375 C110.27782237 108.51630175 113.14254656 111.34042043 116.4375 113.875 C119.17791179 116.1475366 121.26526916 118.61532409 123.53125 121.34375 C125.06593328 123.16874879 125.06593328 123.16874879 127.5 125 C129.64918959 126.71935167 131.14151378 128.27463839 132.875 130.375 C134.92865031 132.84991191 137.01812439 134.9554593 139.5 137 C142.58879708 139.54451565 145.05977258 142.33432763 147.6015625 145.4140625 C149.07772429 147.18007787 149.07772429 147.18007787 151.5 149 C154.20868607 151.16694885 156.21627904 153.52034879 158.375 156.21875 C160.03431545 158.16820555 160.03431545 158.16820555 162.65234375 159.85546875 C165 162 165 162 165.62890625 164.70703125 C165.23362995 183.19201114 158.55858547 199.10610128 148 214 C147.34 214.99 146.68 215.98 146 217 C145.34 217 144.68 217 144 217 C143.34 218.32 142.68 219.64 142 221 C141.34 221 140.68 221 140 221 C140 221.66 140 222.32 140 223 C139.34 223 138.68 223 138 223 C138 223.66 138 224.32 138 225 C137.34 225 136.68 225 136 225 C136 225.66 136 226.32 136 227 C121.95746595 239.26295024 103.59082345 245.75035193 85.17138672 245.52148438 C83.1325701 245.50007948 81.09730307 245.52138501 79.05859375 245.546875 C64.79085478 245.57820414 52.47839092 241.97116811 40 235 C40 234.34 40 233.68 40 233 C39.41734375 232.88527344 38.8346875 232.77054688 38.234375 232.65234375 C35.83476865 231.95175938 34.27139067 231.01807405 32.25 229.5625 C31.63640625 229.13066406 31.0228125 228.69882812 30.390625 228.25390625 C29.93171875 227.84011719 29.4728125 227.42632812 29 227 C29 226.34 29 225.68 29 225 C28.319375 224.835 27.63875 224.67 26.9375 224.5 C14.85249379 218.328933 7.3263292 201.33153503 2.9986763 189.19093132 C-0.17194871 179.298205 -0.54817703 170.37050025 -0.45410156 160.07080078 C-0.45297056 158.31506374 -0.45361186 156.55932482 -0.45587158 154.80358887 C-0.45700981 150.08125818 -0.43364647 145.35934165 -0.40557575 140.63710642 C-0.38041195 135.68573566 -0.37820837 130.73435331 -0.37347412 125.78292847 C-0.36108807 116.42640551 -0.32832616 107.07007158 -0.28807616 97.71363151 C-0.24322171 87.05331879 -0.22133716 76.39299659 -0.20129442 65.73261285 C-0.15958924 43.82163677 -0.08932298 21.91083034 0 0 Z " fill="#17B3AC" transform="translate(176,271)"/>
<path d="M0 0 C1.34243265 0.01509628 2.68488201 0.02877582 4.02734375 0.04101562 C7.26866944 0.07599396 10.50910662 0.12507663 13.75 0.1875 C13.75 0.8475 13.75 1.5075 13.75 2.1875 C14.9875 2.0946875 14.9875 2.0946875 16.25 2 C20.57081972 2.23147249 23.7880049 3.56091821 27.75 5.1875 C29.10340125 5.66882434 30.45756166 6.14801977 31.8125 6.625 C35.73028511 8.08350218 39.17524053 10.02774949 42.75 12.1875 C42.75 12.8475 42.75 13.5075 42.75 14.1875 C43.3275 14.290625 43.905 14.39375 44.5 14.5 C47.10661158 15.29646465 48.7235311 16.37815277 50.75 18.1875 C50.75 18.8475 50.75 19.5075 50.75 20.1875 C51.554375 20.496875 51.554375 20.496875 52.375 20.8125 C55.66978009 22.72000426 58.34363628 25.23569384 60.75 28.1875 C60.75 28.8475 60.75 29.5075 60.75 30.1875 C61.74 30.5175 62.73 30.8475 63.75 31.1875 C75.29891413 46.55383763 80.60685437 65.08282098 79.75 84.1875 C79.09 84.1875 78.43 84.1875 77.75 84.1875 C77.75 84.8475 77.75 85.5075 77.75 86.1875 C77.09 86.1875 76.43 86.1875 75.75 86.1875 C75.48936768 86.78578613 75.22873535 87.38407227 74.96020508 88.00048828 C73.66105481 90.34823654 72.45968481 91.49949684 70.38671875 93.1796875 C64.44324051 98.21198449 59.04221661 103.78859885 53.5625 109.3125 C52.48526293 110.39476709 51.40779039 111.47679986 50.33007812 112.55859375 C48.34985746 114.54690254 46.37127988 116.53679366 44.39379883 118.52783203 C43.52134521 119.40552246 42.6488916 120.28321289 41.75 121.1875 C40.4055481 122.59491455 40.4055481 122.59491455 39.03393555 124.03076172 C36.75 126.1875 36.75 126.1875 34.75 126.1875 C34.255 127.6725 34.255 127.6725 33.75 129.1875 C29.43181818 133.96022727 29.43181818 133.96022727 25.75 135.1875 C25.75 135.8475 25.75 136.5075 25.75 137.1875 C24.09997172 138.54136936 22.4325613 139.87428142 20.75 141.1875 C20.42 141.8475 20.09 142.5075 19.75 143.1875 C19.09 143.1875 18.43 143.1875 17.75 143.1875 C17.42 144.1775 17.09 145.1675 16.75 146.1875 C16.09 146.1875 15.43 146.1875 14.75 146.1875 C14.75 146.8475 14.75 147.5075 14.75 148.1875 C13.31201172 149.59985352 13.31201172 149.59985352 11.3046875 151.25390625 C5.72204453 155.99878372 0.68282267 161.23838639 -4.421875 166.48632812 C-5.14632812 167.22173828 -5.87078125 167.95714844 -6.6171875 168.71484375 C-7.26800293 169.38249756 -7.91881836 170.05015137 -8.58935547 170.73803711 C-10.25 172.1875 -10.25 172.1875 -12.25 172.1875 C-12.25 172.8475 -12.25 173.5075 -12.25 174.1875 C-12.91 174.1875 -13.57 174.1875 -14.25 174.1875 C-14.58 175.1775 -14.91 176.1675 -15.25 177.1875 C-15.91 177.1875 -16.57 177.1875 -17.25 177.1875 C-17.25 177.8475 -17.25 178.5075 -17.25 179.1875 C-19.125 181.3125 -19.125 181.3125 -21.25 183.1875 C-21.91 183.1875 -22.57 183.1875 -23.25 183.1875 C-23.25 183.8475 -23.25 184.5075 -23.25 185.1875 C-23.91 185.1875 -24.57 185.1875 -25.25 185.1875 C-25.25 185.8475 -25.25 186.5075 -25.25 187.1875 C-27.125 189.3125 -27.125 189.3125 -29.25 191.1875 C-29.91 191.1875 -30.57 191.1875 -31.25 191.1875 C-31.25 191.8475 -31.25 192.5075 -31.25 193.1875 C-31.91 193.1875 -32.57 193.1875 -33.25 193.1875 C-33.25 193.8475 -33.25 194.5075 -33.25 195.1875 C-33.91 195.1875 -34.57 195.1875 -35.25 195.1875 C-35.25 195.8475 -35.25 196.5075 -35.25 197.1875 C-35.91 197.1875 -36.57 197.1875 -37.25 197.1875 C-37.25 197.8475 -37.25 198.5075 -37.25 199.1875 C-38.75390625 200.66796875 -38.75390625 200.66796875 -40.8125 202.375 C-44.83673178 205.79488602 -48.55928873 209.41456991 -52.25 213.1875 C-53.91666667 214.85416667 -55.58333333 216.52083333 -57.25 218.1875 C-57.91515625 218.87585938 -58.5803125 219.56421875 -59.265625 220.2734375 C-60.34070313 221.37558594 -60.34070313 221.37558594 -61.4375 222.5 C-62.44876953 223.54607422 -62.44876953 223.54607422 -63.48046875 224.61328125 C-65.25 226.1875 -65.25 226.1875 -67.25 226.1875 C-67.4975 226.765 -67.745 227.3425 -68 227.9375 C-69.43299988 230.51689979 -71.03424676 232.24871592 -73.25 234.1875 C-73.91 234.1875 -74.57 234.1875 -75.25 234.1875 C-75.45625 234.744375 -75.6625 235.30125 -75.875 235.875 C-77.82683032 239.15762371 -80.19230994 240.89423246 -83.25 243.1875 C-83.91 243.1875 -84.57 243.1875 -85.25 243.1875 C-85.32018636 220.57760501 -85.37303529 197.96772808 -85.40543652 175.35774612 C-85.42088311 164.85874024 -85.44193031 154.35980218 -85.47631836 143.86083984 C-85.50628842 134.70633578 -85.52559104 125.55188086 -85.53226548 116.39732909 C-85.53616487 111.55333988 -85.54528273 106.7094912 -85.56719017 101.86554718 C-85.58767565 97.29866112 -85.5938096 92.73197243 -85.58932304 88.16504478 C-85.59014288 86.49623985 -85.59603627 84.82742775 -85.60761642 83.1586628 C-85.70540827 68.3287233 -83.06229978 56.45973922 -76.25 43.1875 C-75.58871094 41.89005859 -75.58871094 41.89005859 -74.9140625 40.56640625 C-72.03861114 35.37231059 -68.53263401 31.00469425 -64.5625 26.625 C-64.08659424 26.09962646 -63.61068848 25.57425293 -63.12036133 25.03295898 C-60.85148782 22.61258677 -59.44792157 21.25347386 -56.25 20.1875 C-56.25 19.5275 -56.25 18.8675 -56.25 18.1875 C-51.89705882 14.1875 -51.89705882 14.1875 -48.25 14.1875 C-48.25 13.5275 -48.25 12.8675 -48.25 12.1875 C-42.33237888 8.71117885 -36.63978599 5.61311665 -29.96630859 3.89648438 C-28.19105735 3.43312561 -26.42356097 2.93865445 -24.66674805 2.40966797 C-16.36329022 0.0426684 -8.59317704 -0.168409 0 0 Z " fill="#17B3AC" transform="translate(261.25,-0.1875)"/>
<path d="M0 0 C0.94286299 -0.0003616 1.88572598 -0.00072321 2.85716057 -0.00109577 C5.87228423 0.00112159 8.88683295 0.02386601 11.90185547 0.04760742 C13.77807345 0.05202504 15.65429515 0.0550814 17.53051758 0.0567627 C24.44341621 0.07241295 31.35623539 0.11429673 38.26904297 0.15307617 C53.73779297 0.21495117 69.20654297 0.27682617 85.14404297 0.34057617 C85.14404297 54.79057617 85.14404297 109.24057617 85.14404297 165.34057617 C80.77482721 166.21441932 76.93156323 166.44965517 72.53076172 166.37817383 C71.78038132 166.37017258 71.03000092 166.36217133 70.25688171 166.35392761 C67.78167369 166.3261067 65.30664544 166.29057758 62.83154297 166.25463867 C61.0986371 166.23284094 59.36572681 166.21139267 57.6328125 166.1902771 C53.99799308 166.14480599 50.36324865 166.09561159 46.72851562 166.04370117 C42.10362793 165.97786971 37.47868394 165.92039012 32.85365295 165.86567116 C29.27076884 165.8224694 25.68794821 165.77513345 22.10513306 165.72657394 C20.4021657 165.70389796 18.69918265 165.68236633 16.9961853 165.66206741 C-1.32553776 165.43829329 -18.66043344 165.04528681 -34.85595703 155.34057617 C-35.76603516 154.79916992 -36.67611328 154.25776367 -37.61376953 153.69995117 C-45.32441792 148.8487504 -51.93269291 143.2665976 -57.85595703 136.34057617 C-57.85595703 135.68057617 -57.85595703 135.02057617 -57.85595703 134.34057617 C-58.51595703 134.34057617 -59.17595703 134.34057617 -59.85595703 134.34057617 C-61.14501953 132.69604492 -61.14501953 132.69604492 -62.48095703 130.52807617 C-63.14998047 129.4665332 -63.14998047 129.4665332 -63.83251953 128.38354492 C-64.85595703 126.34057617 -64.85595703 126.34057617 -64.85595703 123.34057617 C-65.51595703 123.34057617 -66.17595703 123.34057617 -66.85595703 123.34057617 C-73.79899258 110.19840173 -77.21348925 97.87970055 -77.16845703 83.02807617 C-77.19262695 81.45123047 -77.19262695 81.45123047 -77.21728516 79.8425293 C-77.22555362 66.38973622 -73.24478785 53.15991319 -66.85595703 41.34057617 C-66.19595703 41.34057617 -65.53595703 41.34057617 -64.85595703 41.34057617 C-64.76185547 40.78885742 -64.66775391 40.23713867 -64.57080078 39.66870117 C-63.66434263 36.71652052 -62.19252185 34.61336273 -60.41845703 32.09057617 C-59.80099609 31.19854492 -59.18353516 30.30651367 -58.54736328 29.38745117 C-57.98919922 28.71198242 -57.43103516 28.03651367 -56.85595703 27.34057617 C-56.19595703 27.34057617 -55.53595703 27.34057617 -54.85595703 27.34057617 C-54.85595703 26.68057617 -54.85595703 26.02057617 -54.85595703 25.34057617 C-53.48095703 23.71557617 -53.48095703 23.71557617 -51.85595703 22.34057617 C-51.19595703 22.34057617 -50.53595703 22.34057617 -49.85595703 22.34057617 C-49.85595703 21.68057617 -49.85595703 21.02057617 -49.85595703 20.34057617 C-47.36005272 18.12340229 -44.58119604 16.26542967 -41.85595703 14.34057617 C-41.27458984 13.91776367 -40.69322266 13.49495117 -40.09423828 13.05932617 C-37.43469715 11.18357928 -36.18854347 10.34057617 -32.85595703 10.34057617 C-32.85595703 9.68057617 -32.85595703 9.02057617 -32.85595703 8.34057617 C-30.89958674 7.56477416 -28.940731 6.79523942 -26.98095703 6.02807617 C-25.34513672 5.38418945 -25.34513672 5.38418945 -23.67626953 4.72729492 C-15.6732048 1.76377637 -8.57680367 -0.10840674 0 0 Z " fill="#16B2AB" transform="translate(76.85595703125,175.659423828125)"/>
<path d="M0 0 C7.24042751 -0.17822928 14.48028473 -0.30038338 21.72241211 -0.38452148 C24.18323913 -0.41961378 26.64392135 -0.46730107 29.10424805 -0.52807617 C32.65189415 -0.6134838 36.19760325 -0.65280292 39.74609375 -0.68359375 C40.8370787 -0.71972275 41.92806366 -0.75585175 43.05210876 -0.79307556 C50.16354327 -0.7966895 54.0436966 0.65981857 59.46205139 5.29747009 C61 7 61 7 61 9 C61.66 9 62.32 9 63 9 C67.76744186 13.30232558 67.76744186 13.30232558 69 17 C69.5775 17.28875 70.155 17.5775 70.75 17.875 C73.76898778 19.38449389 75.64946633 21.59213624 78 24 C78.928125 24.721875 79.85625 25.44375 80.8125 26.1875 C81.8953125 27.0846875 81.8953125 27.0846875 83 28 C83 28.66 83 29.32 83 30 C83.66 30 84.32 30 85 30 C85 30.66 85 31.32 85 32 C85.66 32 86.32 32 87 32 C87 32.66 87 33.32 87 34 C87.66 34 88.32 34 89 34 C89 34.66 89 35.32 89 36 C90.32 36.66 91.64 37.32 93 38 C93 38.66 93 39.32 93 40 C94.65 40.66 96.3 41.32 98 42 C98 42.66 98 43.32 98 44 C99.485 44.495 99.485 44.495 101 45 C101 45.66 101 46.32 101 47 C102.485 47.495 102.485 47.495 104 48 C104 48.66 104 49.32 104 50 C104.66 50 105.32 50 106 50 C106 50.66 106 51.32 106 52 C107.485 52.495 107.485 52.495 109 53 C110.6875 54.4375 110.6875 54.4375 112 56 C112 56.66 112 57.32 112 58 C112.66 58 113.32 58 114 58 C114 58.99 114 59.98 114 61 C115.485 61.495 115.485 61.495 117 62 C117.6875 64.0625 117.6875 64.0625 118 66 C118.66 66 119.32 66 120 66 C121.10688344 68.49882727 122.21055111 70.99899729 123.3125 73.5 C123.7755957 74.54414063 123.7755957 74.54414063 124.24804688 75.609375 C130.26917112 89.29951013 131.3638335 100.97367629 131 116 C130.99484375 116.75539063 130.9896875 117.51078125 130.984375 118.2890625 C130.15485681 133.63514901 121.34062251 150.06587598 111 161 C110.34 161 109.68 161 109 161 C108.67 161.99 108.34 162.98 108 164 C107.34 164 106.68 164 106 164 C105.67 164.99 105.34 165.98 105 167 C102.83827094 168.59269862 100.71460861 170.03029477 98.4375 171.4375 C97.79635254 171.83928467 97.15520508 172.24106934 96.49462891 172.6550293 C83.31365556 180.83430891 71.14367738 184.80567535 55.4375 184.6875 C54.73744843 184.68712738 54.03739685 184.68675476 53.31613159 184.68637085 C41.16320222 184.63040809 30.84335787 182.64236333 20 177 C18.44539063 176.21882813 18.44539063 176.21882813 16.859375 175.421875 C14.86401132 174.35686494 12.92003192 173.19549157 11 172 C11 171.34 11 170.68 11 170 C10.41631936 169.87799791 9.83263872 169.75599583 9.23127079 169.63029671 C5.06685058 168.4539176 2.38213338 166.65807983 0 163 C-1.03945003 157.79730301 -0.885252 152.63319172 -0.79467773 147.35595703 C-0.79270209 145.74918199 -0.79381375 144.14240064 -0.79777527 142.53562927 C-0.79978142 138.18226162 -0.75866669 133.83024768 -0.70975757 129.47719431 C-0.66595866 124.9248789 -0.66188335 120.37253145 -0.65357971 115.82003784 C-0.63183439 107.20323392 -0.57440705 98.58705266 -0.50413328 89.97052276 C-0.42585517 80.15929203 -0.38739464 70.34803135 -0.35226524 60.53656602 C-0.27912333 40.35736332 -0.15602147 20.17872091 0 0 Z " fill="#D2DB03" transform="translate(350,267)"/>
<path d="M0 0 C0.92296875 0.28875 1.8459375 0.5775 2.796875 0.875 C12.58920209 4.36780457 21.51949462 10.85951759 29 18 C29 18.66 29 19.32 29 20 C30.485 20.495 30.485 20.495 32 21 C33.1875 23.5625 33.1875 23.5625 34 26 C34.66 26 35.32 26 36 26 C41.11971486 33.07008242 45.28983297 40.69929518 48 49 C48.29777344 49.81726563 48.59554687 50.63453125 48.90234375 51.4765625 C54.66282324 69.89947847 51.78199007 91.24330761 42.99072266 108.19848633 C37.00480783 119.08317472 28.36617887 128.18985396 19.01171875 136.23828125 C17.27128151 137.76243115 15.65898014 139.3286117 14.0625 141 C12 143 12 143 10 143 C10 143.66 10 144.32 10 145 C8.625 146.625 8.625 146.625 7 148 C6.34 148 5.68 148 5 148 C4.67 148.99 4.34 149.98 4 151 C2.5625 152.6875 2.5625 152.6875 1 154 C0.34 154 -0.32 154 -1 154 C-1 154.66 -1 155.32 -1 156 C-1.66 156 -2.32 156 -3 156 C-3 156.66 -3 157.32 -3 158 C-4.50390625 159.48046875 -4.50390625 159.48046875 -6.5625 161.1875 C-10.10996174 164.18677493 -13.36522872 167.33995132 -16.5546875 170.71484375 C-18 172 -18 172 -20 172 C-20 172.66 -20 173.32 -20 174 C-20.66 174 -21.32 174 -22 174 C-22 174.66 -22 175.32 -22 176 C-22.66 176 -23.32 176 -24 176 C-24 176.66 -24 177.32 -24 178 C-24.66 178 -25.32 178 -26 178 C-26 178.66 -26 179.32 -26 180 C-31.90130761 180.8530276 -37.61605154 181.14717306 -43.57421875 181.1328125 C-44.46107864 181.13376923 -45.34793854 181.13472595 -46.26167297 181.13571167 C-48.12309847 181.13638805 -49.98452639 181.13457185 -51.84594727 181.13037109 C-54.68966964 181.1249959 -57.53323547 181.13034435 -60.37695312 181.13671875 C-62.19270868 181.13605825 -64.00846414 181.13477766 -65.82421875 181.1328125 C-66.67014084 181.13483673 -67.51606293 181.13686096 -68.38761902 181.13894653 C-69.18227066 181.13579437 -69.9769223 181.13264221 -70.7956543 181.12939453 C-71.4887822 181.12859894 -72.1819101 181.12780334 -72.89604187 181.12698364 C-75.32832807 180.98018388 -77.61662522 180.49515326 -80 180 C-80.16352386 158.98158128 -80.28696213 137.96326745 -80.3626852 116.94434166 C-80.39877944 107.1848461 -80.44798803 97.42574578 -80.52807617 87.66650391 C-80.59784821 79.16028983 -80.64300791 70.65436198 -80.65861946 62.14786971 C-80.66774536 57.64359265 -80.68918973 53.14013443 -80.7401104 48.63611984 C-80.78766242 44.39566858 -80.80227366 40.1563725 -80.79175377 35.91567993 C-80.7936779 34.36040592 -80.80758161 32.80509289 -80.83443832 31.25004959 C-81.02756159 19.49003549 -81.02756159 19.49003549 -78.46235847 15.77031326 C-76.70671843 14.24142832 -75.03889988 13.10905537 -73 12 C-72.30390625 11.44570312 -71.6078125 10.89140625 -70.890625 10.3203125 C-66.33333333 7 -66.33333333 7 -63 7 C-63 6.34 -63 5.68 -63 5 C-43.0148987 -5.53759887 -21.38012482 -6.78136118 0 0 Z " fill="#D2DB03" transform="translate(430,70)"/>
<path d="M0 0 C1.19473938 -0.00281982 2.38947876 -0.00563965 3.62042236 -0.00854492 C4.95642105 -0.00660033 6.29241958 -0.00455214 7.62841797 -0.00241089 C9.02594041 -0.0037649 10.42346249 -0.00554484 11.82098389 -0.00772095 C15.62666441 -0.01229527 19.43231794 -0.01050573 23.23799896 -0.00734186 C27.21205216 -0.00481826 31.18610297 -0.0071558 35.16015625 -0.00872803 C41.83512794 -0.01054972 48.51008858 -0.00814342 55.18505859 -0.00338745 C62.91321511 0.00205517 70.64134524 0.00029251 78.36950111 -0.00521386 C84.99283894 -0.00974499 91.6161688 -0.01039553 98.23950768 -0.00777519 C102.20054939 -0.00621241 106.1615787 -0.00601865 110.12261963 -0.00931168 C113.84568777 -0.0121904 117.56872176 -0.01021469 121.29178619 -0.00441742 C122.66204013 -0.00308983 124.03229692 -0.00348393 125.40254974 -0.00568008 C127.2654358 -0.00839158 129.1283281 -0.00439678 130.99121094 0 C132.03614716 0.00037703 133.08108337 0.00075405 134.15768433 0.0011425 C136.49560547 0.12698364 136.49560547 0.12698364 137.49560547 1.12698364 C137.59206575 2.96192851 137.61747891 4.80062951 137.61585999 6.6381073 C137.61792198 8.43238411 137.61792198 8.43238411 137.62002563 10.26290894 C137.61648603 11.60049463 137.61285122 12.93808008 137.60913086 14.27566528 C137.60884899 15.67480975 137.60900672 17.07395437 137.60957336 18.47309875 C137.60986135 22.28284824 137.60396444 26.0925665 137.59699941 29.9023087 C137.59076606 33.87949673 137.59016209 37.8566854 137.588974 41.83387756 C137.58586063 49.37036904 137.57764716 56.90684608 137.56762451 64.44333118 C137.55646355 73.02118193 137.55095297 81.59903335 137.54592907 90.17688954 C137.53546455 107.8269291 137.517865 125.47695521 137.49560547 143.12698364 C133.91473206 142.54601857 132.25506674 141.25666932 129.72087097 138.70628357 C128.98504288 137.97313431 128.24921478 137.23998505 127.49108887 136.48461914 C126.29485901 135.26985397 126.29485901 135.26985397 125.07446289 134.0305481 C124.22680862 133.18172562 123.37915436 132.33290314 122.5058136 131.45835876 C120.66351604 129.61133582 118.82420596 127.76182386 116.98940086 125.90740395 C114.08351328 122.97046067 111.16725957 120.04395876 108.24958801 117.11872864 C103.63045514 112.4851015 99.01859246 107.8443126 94.40965396 103.2005474 C86.17091521 94.89999662 77.92015331 86.61140599 69.66644365 78.32574433 C67.24578268 75.89523207 64.82662749 73.46325403 62.41069603 71.02803993 C59.71085729 68.30674559 57.00810403 65.58837412 54.30493164 62.87039185 C53.51351776 62.07066956 52.72210388 61.27094727 51.90670776 60.44699097 C48.07181795 56.59684575 44.19747691 52.89117906 40.01012135 49.42506695 C38.40999564 48.05360793 36.90045517 46.6998975 35.49560547 45.12698364 C35.49560547 44.46698364 35.49560547 43.80698364 35.49560547 43.12698364 C34.83560547 43.12698364 34.17560547 43.12698364 33.49560547 43.12698364 C31.37060547 41.25198364 31.37060547 41.25198364 29.49560547 39.12698364 C29.49560547 38.46698364 29.49560547 37.80698364 29.49560547 37.12698364 C28.83560547 37.12698364 28.17560547 37.12698364 27.49560547 37.12698364 C22.72816361 32.82465806 22.72816361 32.82465806 21.49560547 29.12698364 C20.83560547 29.12698364 20.17560547 29.12698364 19.49560547 29.12698364 C19.49560547 28.46698364 19.49560547 27.80698364 19.49560547 27.12698364 C18.83560547 27.12698364 18.17560547 27.12698364 17.49560547 27.12698364 C15.37060547 25.25198364 15.37060547 25.25198364 13.49560547 23.12698364 C13.49560547 22.46698364 13.49560547 21.80698364 13.49560547 21.12698364 C12.83560547 21.12698364 12.17560547 21.12698364 11.49560547 21.12698364 C6.72816361 16.82465806 6.72816361 16.82465806 5.49560547 13.12698364 C4.83560547 13.12698364 4.17560547 13.12698364 3.49560547 13.12698364 C-1.27183639 8.82465806 -1.27183639 8.82465806 -2.50439453 5.12698364 C-3.49439453 4.79698364 -4.48439453 4.46698364 -5.50439453 4.12698364 C-5.83439453 3.13698364 -6.16439453 2.14698364 -6.50439453 1.12698364 C-4.76248823 -0.61492266 -2.36928473 0.00085487 0 0 Z " fill="#D2DB04" transform="translate(199.50439453125,266.8730163574219)"/>
<path d="M0 0 C0.99 0 1.98 0 3 0 C3 47.19 3 94.38 3 143 C-1.26551234 143.71091872 -4.69217359 144.12413562 -8.9225769 144.12025452 C-10.66405754 144.12231651 -10.66405754 144.12231651 -12.4407196 144.12442017 C-13.70019913 144.12082489 -14.95967865 144.11722961 -16.25732422 144.11352539 C-17.60794574 144.11324307 -18.95856741 144.11340213 -20.30918884 144.1139679 C-23.96368921 144.11425412 -27.61815657 144.1083857 -31.27264929 144.10139394 C-35.09632543 144.09513124 -38.92000238 144.09455429 -42.74368286 144.09336853 C-49.97897244 144.09026381 -57.21424686 144.082062 -64.44952977 144.07201904 C-72.68892964 144.06083122 -80.92833024 144.05534073 -89.16773582 144.05032361 C-106.11183264 144.03987867 -123.05591471 144.02229587 -140 144 C-139.278894 140.71970785 -138.49547558 139.10564384 -136.0625 136.75 C-135.27552734 135.96882813 -135.27552734 135.96882813 -134.47265625 135.171875 C-133 134 -133 134 -131 134 C-131 133.34 -131 132.68 -131 132 C-130.34 132 -129.68 132 -129 132 C-128.62875 131.071875 -128.62875 131.071875 -128.25 130.125 C-126.79371361 127.64931313 -125.62187494 127.04874998 -123 126 C-123 125.34 -123 124.68 -123 124 C-122.34 124 -121.68 124 -121 124 C-120.7525 123.38125 -120.505 122.7625 -120.25 122.125 C-118.79371361 119.64931313 -117.62187494 119.04874998 -115 118 C-115 117.34 -115 116.68 -115 116 C-114.34 116 -113.68 116 -113 116 C-112.7525 115.38125 -112.505 114.7625 -112.25 114.125 C-110.79371361 111.64931313 -109.62187494 111.04874998 -107 110 C-107 109.34 -107 108.68 -107 108 C-106.34 108 -105.68 108 -105 108 C-104.5968457 107.11006348 -104.5968457 107.11006348 -104.18554688 106.20214844 C-102.99709268 103.99459967 -101.79257611 102.53457118 -100.03125 100.765625 C-99.46019531 100.19199219 -98.88914063 99.61835938 -98.30078125 99.02734375 C-97.70652344 98.44082031 -97.11226562 97.85429687 -96.5 97.25 C-95.90574219 96.64800781 -95.31148437 96.04601562 -94.69921875 95.42578125 C-94.12816406 94.85730469 -93.55710938 94.28882813 -92.96875 93.703125 C-92.44732422 93.18395508 -91.92589844 92.66478516 -91.38867188 92.12988281 C-90 91 -90 91 -88 91 C-88 90.34 -88 89.68 -88 89 C-87.34 89 -86.68 89 -86 89 C-85.938125 88.38125 -85.87625 87.7625 -85.8125 87.125 C-85.544375 86.42375 -85.27625 85.7225 -85 85 C-83.33927151 84.31867549 -81.672233 83.65257873 -80 83 C-78.89163577 81.11683841 -78.89163577 81.11683841 -78 79 C-76 76.75 -76 76.75 -74 75 C-73.34 75 -72.68 75 -72 75 C-71.62875 74.13375 -71.62875 74.13375 -71.25 73.25 C-69.81700012 70.67060021 -68.21575324 68.93878408 -66 67 C-65.34 67 -64.68 67 -64 67 C-63.773125 66.443125 -63.54625 65.88625 -63.3125 65.3125 C-61.63569499 62.35812928 -59.42675648 60.36897657 -57 58 C-56.360625 57.175 -55.72125 56.35 -55.0625 55.5 C-52.5993277 52.51433661 -50.08120627 50.34439608 -47 48 C-46.34 48 -45.68 48 -45 48 C-45 47.01 -45 46.02 -45 45 C-39.65116279 40 -39.65116279 40 -37 40 C-37 39.01 -37 38.02 -37 37 C-31.65116279 32 -31.65116279 32 -29 32 C-29 31.01 -29 30.02 -29 29 C-27.625 27.3125 -27.625 27.3125 -26 26 C-25.34 26 -24.68 26 -24 26 C-24 25.34 -24 24.68 -24 24 C-22.625 22.375 -22.625 22.375 -21 21 C-20.34 21 -19.68 21 -19 21 C-18.505 19.515 -18.505 19.515 -18 18 C-17.34 18 -16.68 18 -16 18 C-15.505 16.515 -15.505 16.515 -15 15 C-14.34 15 -13.68 15 -13 15 C-13 14.34 -13 13.68 -13 13 C-11.625 11.375 -11.625 11.375 -10 10 C-9.34 10 -8.68 10 -8 10 C-7.67 9.01 -7.34 8.02 -7 7 C-6.34 7 -5.68 7 -5 7 C-5 6.34 -5 5.68 -5 5 C-3.625 3.375 -3.625 3.375 -2 2 C-1.34 2 -0.68 2 0 2 C0 1.34 0 0.68 0 0 Z " fill="#D2DB04" transform="translate(334,107)"/>
<path d="M0 0 C0.33 0.99 0.66 1.98 1 3 C-0.28965176 4.37562854 -1.62689293 5.70766393 -3 7 C-3.66 7 -4.32 7 -5 7 C-4.835 8.19625 -4.67 9.3925 -4.5 10.625 C-4.06544989 14.52388014 -3.96255913 18.32806915 -4 22.25 C-4.04560775 27.11137035 -3.92644663 31.91997786 -3.64923763 36.77297688 C-2.87029151 50.51219725 -2.87195972 64.2311624 -2.90234375 77.98828125 C-2.90421417 80.51417513 -2.90563512 83.04006937 -2.90663147 85.56596375 C-2.91040758 92.13999474 -2.92019457 98.71400282 -2.93133545 105.2880249 C-2.94114211 111.36106784 -2.94517965 117.43411586 -2.94967639 123.5071646 C-2.96004538 137.33812055 -2.97776935 151.16905847 -3 165 C0.3 165.66 3.6 166.32 7 167 C7 167.33 7 167.66 7 168 C5.783125 168.020625 4.56625 168.04125 3.3125 168.0625 C2.62800781 168.07410156 1.94351562 168.08570313 1.23828125 168.09765625 C-1.25475157 167.98888518 -3.5607176 167.51046532 -6 167 C-6.14012298 145.96427484 -6.24594793 124.92862656 -6.31087303 103.89252949 C-6.34181938 94.12521584 -6.38401472 84.35819206 -6.45263672 74.59106445 C-6.51241497 66.07863476 -6.55114348 57.56641497 -6.56453097 49.05378121 C-6.57235748 44.54571977 -6.59076715 40.03825886 -6.63438034 35.53038979 C-6.67509685 31.2875602 -6.68767126 27.04557865 -6.67864609 22.80257225 C-6.68029719 21.24528266 -6.69223879 19.68796481 -6.71523285 18.13084412 C-6.88119223 6.31296579 -6.88119223 6.31296579 -4.61845779 2.94151878 C-2.95742798 1.53507996 -2.95742798 1.53507996 0 0 Z " fill="#D5DB35" transform="translate(356,83)"/>
<path d="M0 0 C1.19473938 -0.00281982 2.38947876 -0.00563965 3.62042236 -0.00854492 C4.95642105 -0.00660033 6.29241958 -0.00455214 7.62841797 -0.00241089 C9.02594041 -0.0037649 10.42346249 -0.00554484 11.82098389 -0.00772095 C15.62666441 -0.01229527 19.43231794 -0.01050573 23.23799896 -0.00734186 C27.21205216 -0.00481826 31.18610297 -0.0071558 35.16015625 -0.00872803 C41.83512794 -0.01054972 48.51008858 -0.00814342 55.18505859 -0.00338745 C62.91321511 0.00205517 70.64134524 0.00029251 78.36950111 -0.00521386 C84.99283894 -0.00974499 91.6161688 -0.01039553 98.23950768 -0.00777519 C102.20054939 -0.00621241 106.1615787 -0.00601865 110.12261963 -0.00931168 C113.84568777 -0.0121904 117.56872176 -0.01021469 121.29178619 -0.00441742 C122.66204013 -0.00308983 124.03229692 -0.00348393 125.40254974 -0.00568008 C127.2654358 -0.00839158 129.1283281 -0.00439678 130.99121094 0 C132.03614716 0.00037703 133.08108337 0.00075405 134.15768433 0.0011425 C136.49560547 0.12698364 136.49560547 0.12698364 137.49560547 1.12698364 C137.59206575 2.96192851 137.61747891 4.80062951 137.61585999 6.6381073 C137.61792198 8.43238411 137.61792198 8.43238411 137.62002563 10.26290894 C137.61648603 11.60049463 137.61285122 12.93808008 137.60913086 14.27566528 C137.60884899 15.67480975 137.60900672 17.07395437 137.60957336 18.47309875 C137.60986135 22.28284824 137.60396444 26.0925665 137.59699941 29.9023087 C137.59076606 33.87949673 137.59016209 37.8566854 137.588974 41.83387756 C137.58586063 49.37036904 137.57764716 56.90684608 137.56762451 64.44333118 C137.55646355 73.02118193 137.55095297 81.59903335 137.54592907 90.17688954 C137.53546455 107.8269291 137.517865 125.47695521 137.49560547 143.12698364 C133.71435547 142.38479614 133.71435547 142.38479614 131.74560547 140.06448364 C131.12685547 139.10542114 131.12685547 139.10542114 130.49560547 138.12698364 C131.81560547 137.79698364 133.13560547 137.46698364 134.49560547 137.12698364 C134.99060547 69.80698364 134.99060547 69.80698364 135.49560547 1.12698364 C89.62560547 1.12698364 43.75560547 1.12698364 -3.50439453 1.12698364 C-3.17439453 2.44698364 -2.84439453 3.76698364 -2.50439453 5.12698364 C-3.49439453 4.79698364 -4.48439453 4.46698364 -5.50439453 4.12698364 C-5.83439453 3.13698364 -6.16439453 2.14698364 -6.50439453 1.12698364 C-4.76248823 -0.61492266 -2.36928473 0.00085487 0 0 Z " fill="#DFE273" transform="translate(199.50439453125,266.8730163574219)"/>
<path d="M0 0 C2.97 0 5.94 0 9 0 C9 54.45 9 108.9 9 165 C4.56360948 165.8872781 0.65060565 166.1020234 -3.81958008 166.02172852 C-4.59084229 166.01212097 -5.36210449 166.00251343 -6.15673828 165.99261475 C-8.69443261 165.95975397 -11.23194777 165.91937289 -13.76953125 165.87890625 C-15.53357826 165.85459249 -17.29763181 165.83074956 -19.06169128 165.80735779 C-23.69611083 165.74464184 -28.33041391 165.67554003 -32.96472168 165.60510254 C-37.69713046 165.53430608 -42.42962158 165.46955688 -47.16210938 165.40429688 C-56.44149674 165.27544559 -65.72077229 165.13984707 -75 165 C-75 164.67 -75 164.34 -75 164 C-47.94 163.67 -20.88 163.34 7 163 C7 109.87 7 56.74 7 2 C4.69 2 2.38 2 0 2 C0 1.34 0 0.68 0 0 Z " fill="#6CC8C6" transform="translate(153,176)"/>
<path d="M0 0 C7.33223678 -0.10135462 14.66429317 -0.17144649 21.99707031 -0.21972656 C24.49193065 -0.23985164 26.98674378 -0.26715452 29.48144531 -0.30175781 C33.06587368 -0.35023457 36.64967885 -0.3729602 40.234375 -0.390625 C41.35116638 -0.41127014 42.46795776 -0.43191528 43.61859131 -0.45318604 C44.65936829 -0.45348816 45.70014526 -0.45379028 46.77246094 -0.45410156 C47.68735291 -0.46298401 48.60224487 -0.47186646 49.54486084 -0.48101807 C52.73080224 0.14318092 53.93628549 1.56833231 56 4 C54.68 3.67 53.36 3.34 52 3 C27.25 2.505 27.25 2.505 2 2 C1.67 54.14 1.34 106.28 1 160 C1.66 160 2.32 160 3 160 C3 160.66 3 161.32 3 162 C3.66 162 4.32 162 5 162 C5.61875 162.94875 6.2375 163.8975 6.875 164.875 C8.87924473 167.82241872 9.74790731 168.83853833 13 170 C13 170.66 13 171.32 13 172 C12.34 172 11.68 172 11 172 C11 171.34 11 170.68 11 170 C10.41631936 169.87799791 9.83263872 169.75599583 9.23127079 169.63029671 C5.06685058 168.4539176 2.38213338 166.65807983 0 163 C-1.03945003 157.79730301 -0.885252 152.63319172 -0.79467773 147.35595703 C-0.79270209 145.74918199 -0.79381375 144.14240064 -0.79777527 142.53562927 C-0.79978142 138.18226162 -0.75866669 133.83024768 -0.70975757 129.47719431 C-0.66595866 124.9248789 -0.66188335 120.37253145 -0.65357971 115.82003784 C-0.63183439 107.20323392 -0.57440705 98.58705266 -0.50413328 89.97052276 C-0.42585517 80.15929203 -0.38739464 70.34803135 -0.35226524 60.53656602 C-0.27912333 40.35736332 -0.15602147 20.17872091 0 0 Z " fill="#D9DD5A" transform="translate(350,267)"/>
<path d="M0 0 C0.99 0 1.98 0 3 0 C3 47.19 3 94.38 3 143 C1.02 143 -0.96 143 -3 143 C-1.68 142.67 -0.36 142.34 1 142 C0.67 96.46 0.34 50.92 0 4 C-2.1385485 6.1385485 -2.42655063 7.13275314 -3 10 C-4.65 10 -6.3 10 -8 10 C-7.67 9.01 -7.34 8.02 -7 7 C-6.34 7 -5.68 7 -5 7 C-5 6.34 -5 5.68 -5 5 C-3.625 3.375 -3.625 3.375 -2 2 C-1.34 2 -0.68 2 0 2 C0 1.34 0 0.68 0 0 Z " fill="#E0E375" transform="translate(334,107)"/>
<path d="M0 0 C3.50627392 1.75313696 6.09334705 3.41630849 9 6 C9 6.66 9 7.32 9 8 C9.66 8 10.32 8 11 8 C12.625 9.375 12.625 9.375 14 11 C14 11.66 14 12.32 14 13 C14.99 13.33 15.98 13.66 17 14 C17 14.66 17 15.32 17 16 C17.66 16 18.32 16 19 16 C20.625 17.375 20.625 17.375 22 19 C22 19.66 22 20.32 22 21 C22.99 21.33 23.98 21.66 25 22 C25 22.66 25 23.32 25 24 C23.68 23.67 22.36 23.34 21 23 C21 22.34 21 21.68 21 21 C19.35 21.33 17.7 21.66 16 22 C15.67 20.02 15.34 18.04 15 16 C12.164031 14.71720472 12.164031 14.71720472 10 15.6875 C7.73967392 17.17083899 6.58591839 18.83738401 5 21 C4.34 21 3.68 21 3 21 C2.34 23.64 1.68 26.28 1 29 C0.67 29 0.34 29 0 29 C0 19.43 0 9.86 0 0 Z " fill="#2DB6B1" transform="translate(176,271)"/>
<path d="M0 0 C0.33 0 0.66 0 1 0 C1.33 5.61 1.66 11.22 2 17 C4.31 16.34 6.62 15.68 9 15 C11.61400858 15.28583515 13.50073755 16.08190359 16 17 C14.38405168 19.04119788 12.7143618 21.04072937 11 23 C10.34 23 9.68 23 9 23 C8.690625 23.8353125 8.690625 23.8353125 8.375 24.6875 C6.42316968 27.97012371 4.05769006 29.70673246 1 32 C0.34 32 -0.32 32 -1 32 C-1.02907584 27.6041806 -1.0468244 23.20838601 -1.0625 18.8125 C-1.07087891 17.56662109 -1.07925781 16.32074219 -1.08789062 15.03710938 C-1.09111328 13.83505859 -1.09433594 12.63300781 -1.09765625 11.39453125 C-1.10289307 10.28956299 -1.10812988 9.18459473 -1.11352539 8.04614258 C-1.00901923 5.24200621 -0.64097959 2.72582671 0 0 Z " fill="#2BB4AE" transform="translate(177,211)"/>
<path d="M0 0 C1.04623504 0.00092179 2.09247007 0.00184359 3.1704092 0.00279331 C4.96468601 0.00073132 4.96468601 0.00073132 6.79521084 -0.00137234 C8.13279653 0.00216726 9.47038198 0.00580208 10.80796719 0.00952244 C12.20711166 0.00980431 13.60625627 0.00964658 15.00540066 0.00907993 C18.81515014 0.00879195 22.62486841 0.01468885 26.43461061 0.02165389 C30.41179863 0.02788724 34.38898731 0.02849121 38.36617947 0.0296793 C45.90267094 0.03279267 53.43914798 0.04100614 60.97563308 0.05102879 C69.55348383 0.06218974 78.13133525 0.06770033 86.70919144 0.07272422 C104.35923101 0.08318875 122.00925712 0.1007883 139.65928555 0.12304783 C139.65928555 0.45304783 139.65928555 0.78304783 139.65928555 1.12304783 C93.45928555 1.12304783 47.25928555 1.12304783 -0.34071445 1.12304783 C-0.01071445 2.44304783 0.31928555 3.76304783 0.65928555 5.12304783 C-0.33071445 4.79304783 -1.32071445 4.46304783 -2.34071445 4.12304783 C-2.67071445 3.13304783 -3.00071445 2.14304783 -3.34071445 1.12304783 C-2.34071445 0.12304783 -2.34071445 0.12304783 0 0 Z " fill="#DCE181" transform="translate(196.34071445465088,266.8769521713257)"/>
<path d="M0 0 C0.74467529 -0.00942627 1.48935059 -0.01885254 2.2565918 -0.02856445 C7.38364954 0.00163829 11.8185174 0.84419274 16.75 2.25 C16.75 2.58 16.75 2.91 16.75 3.25 C6.85 3.25 -3.05 3.25 -13.25 3.25 C-13.25 3.91 -13.25 4.57 -13.25 5.25 C-14.28447266 5.30607422 -14.28447266 5.30607422 -15.33984375 5.36328125 C-21.01761802 5.7604918 -25.95931671 6.58489215 -31.30078125 8.55078125 C-33.58285163 9.36939968 -35.85854972 9.86428221 -38.25 10.25 C-27.7052759 1.5556722 -13.14512064 0.1250124 0 0 Z " fill="#D7DD4A" transform="translate(405.25,65.75)"/>
<path d="M0 0 C0.33 0 0.66 0 1 0 C1 7.92 1 15.84 1 24 C1.99 24.33 2.98 24.66 4 25 C4 29.1274515 3.54466387 32.915021 3 37 C2.34 37 1.68 37 1 37 C1.23976562 37.80824219 1.47953125 38.61648438 1.7265625 39.44921875 C2.02304688 40.51785156 2.31953125 41.58648437 2.625 42.6875 C3.07746094 44.27111328 3.07746094 44.27111328 3.5390625 45.88671875 C4.0639005 49.43159912 3.47392669 50.80649217 2 54 C1.55450643 56.6616187 1.55450643 56.6616187 1.375 59.3125 C1.26285156 60.63701172 1.26285156 60.63701172 1.1484375 61.98828125 C1.09945312 62.65214844 1.05046875 63.31601562 1 64 C0.67 64 0.34 64 0 64 C0 42.88 0 21.76 0 0 Z " fill="#43B9B6" transform="translate(176,334)"/>
<path d="M0 0 C1.00969849 0.0028299 2.01939697 0.00565979 3.05969238 0.00857544 C6.25866967 0.0196972 9.4573585 0.04478687 12.65625 0.0703125 C14.83593343 0.08035265 17.01562129 0.08947668 19.1953125 0.09765625 C24.51572205 0.11961025 29.83596541 0.15300732 35.15625 0.1953125 C35.15625 0.8553125 35.15625 1.5153125 35.15625 2.1953125 C30.20625 2.1953125 25.25625 2.1953125 20.15625 2.1953125 C19.82625 2.8553125 19.49625 3.5153125 19.15625 4.1953125 C16.09375 4.8203125 16.09375 4.8203125 13.15625 5.1953125 C12.49625 4.2053125 11.83625 3.2153125 11.15625 2.1953125 C8.16486974 1.86761207 8.16486974 1.86761207 4.78125 2.0703125 C-2.35628141 2.31198964 -2.35628141 2.31198964 -5.84375 1.1953125 C-5.84375 1.8553125 -5.84375 2.5153125 -5.84375 3.1953125 C-10.13375 3.1953125 -14.42375 3.1953125 -18.84375 3.1953125 C-18.84375 2.8653125 -18.84375 2.5353125 -18.84375 2.1953125 C-12.43140263 0.28876066 -6.6672555 -0.07132652 0 0 Z " fill="#4CBCB7" transform="translate(77.84375,175.8046875)"/>
<path d="M0 0 C2.27067704 2.27067704 2.90753276 4.0022699 4 7 C4.28101563 7.76054688 4.56203125 8.52109375 4.8515625 9.3046875 C9.48241314 24.69408003 8.31671914 41.97552135 3 57 C2.67 57 2.34 57 2 57 C1.74815967 49.57071018 1.74815967 49.57071018 2.9934082 46.7487793 C4.89567248 41.55411679 4.32691795 35.97305285 4.3125 30.5 C4.32861328 29.27667969 4.34472656 28.05335938 4.36132812 26.79296875 C4.36197266 25.61347656 4.36261719 24.43398437 4.36328125 23.21875 C4.36626221 22.14560547 4.36924316 21.07246094 4.37231445 19.96679688 C3.95119642 16.6111075 2.83317434 14.80076539 1 12 C0.48828125 8.88671875 0.48828125 8.88671875 0.3125 5.6875 C0.24675781 4.61886719 0.18101562 3.55023438 0.11328125 2.44921875 C0.07589844 1.64097656 0.03851563 0.83273438 0 0 Z " fill="#D6DE4D" transform="translate(474,112)"/>
<path d="M0 0 C0.66 0 1.32 0 2 0 C0.5382977 4.73732433 -2.27515133 7.8561648 -5.625 11.375 C-6.16044434 11.94718262 -6.69588867 12.51936523 -7.24755859 13.10888672 C-10.79703658 16.85857529 -14.4690156 20.36928275 -18.4765625 23.6328125 C-20.25799202 25.11750091 -20.25799202 25.11750091 -22 28 C-22.66 27.67 -23.32 27.34 -24 27 C-23.6875 24.625 -23.6875 24.625 -23 22 C-20 20 -20 20 -16 20 C-15.67 19.01 -15.34 18.02 -15 17 C-14.34 17 -13.68 17 -13 17 C-13 16.01 -13 15.02 -13 14 C-12.34 14 -11.68 14 -11 14 C-10.67 12.68 -10.34 11.36 -10 10 C-9.01 10 -8.02 10 -7 10 C-6.896875 9.236875 -6.79375 8.47375 -6.6875 7.6875 C-5.94932885 4.80192188 -5.37859197 3.73820183 -3 2 C-2.01 2 -1.02 2 0 2 C0 1.34 0 0.68 0 0 Z " fill="#D6DC42" transform="translate(467,183)"/>
<path d="M0 0 C2.97 0 5.94 0 9 0 C9.33 0.66 9.66 1.32 10 2 C13.75450251 3.44435315 17.85666581 3.2246121 21.828125 3.31640625 C22.57713074 3.33718735 23.32613647 3.35796844 24.09783936 3.37937927 C26.48180288 3.44457088 28.86587312 3.50361783 31.25 3.5625 C32.86980254 3.60571416 34.48959443 3.64932937 36.109375 3.69335938 C40.07280832 3.80022096 44.0363486 3.90157333 48 4 C42.97498663 7.07511142 37.364845 6.40963538 31.64990234 6.42553711 C29.66602714 6.43725762 27.68249026 6.48678756 25.69921875 6.53710938 C16.04852714 6.59013515 8.77439604 4.76496088 0 1 C0 0.67 0 0.34 0 0 Z " fill="#D8DC5B" transform="translate(375,445)"/>
<path d="M0 0 C0.495 0.99 0.495 0.99 1 2 C-2.86057357 3.26783458 -6.69583622 3.09340378 -10.70605469 3.02172852 C-11.47717087 3.01212097 -12.24828705 3.00251343 -13.04277039 2.99261475 C-15.58590013 2.95969259 -18.12885443 2.91933455 -20.671875 2.87890625 C-22.43735133 2.8545985 -24.20283412 2.83075527 -25.96832275 2.80735779 C-30.61097574 2.74458204 -35.25351424 2.67549697 -39.89605713 2.60510254 C-44.63507888 2.53436028 -49.37418169 2.46957859 -54.11328125 2.40429688 C-63.40894325 2.27536845 -72.70449521 2.13977521 -82 2 C-82 1.67 -82 1.34 -82 1 C-72.19446101 0.86914868 -62.38891642 0.73872647 -52.58336449 0.60884857 C-48.03002011 0.54852456 -43.47667778 0.48805401 -38.92333984 0.42724609 C-34.52726312 0.36854376 -30.1311814 0.31022962 -25.73509598 0.25218201 C-24.05981895 0.22999328 -22.38454376 0.20766584 -20.70927048 0.18519592 C-18.35875666 0.15369316 -16.00823676 0.12268828 -13.65771484 0.09179688 C-12.96863037 0.08244614 -12.2795459 0.0730954 -11.56958008 0.0634613 C-7.71276232 0.01335991 -3.85713074 -0.00877671 0 0 Z " fill="#79C3C1" transform="translate(160,339)"/>
<path d="M0 0 C0.66 0.99 1.32 1.98 2 3 C1.34 3 0.68 3 0 3 C-0.12375 3.639375 -0.2475 4.27875 -0.375 4.9375 C-0.684375 5.9584375 -0.684375 5.9584375 -1 7 C-1.99 7.495 -1.99 7.495 -3 8 C-3.04125 8.78375 -3.0825 9.5675 -3.125 10.375 C-3.41375 11.24125 -3.7025 12.1075 -4 13 C-6.00045066 13.96710528 -8.01630841 14.5869964 -10.13671875 15.24609375 C-12.21104635 15.86536554 -12.21104635 15.86536554 -13.25 18.125 C-13.4975 18.74375 -13.745 19.3625 -14 20 C-16.046875 20.6171875 -16.046875 20.6171875 -18 21 C-15.33333333 17 -12.66666667 13 -10 9 C-9.34 9 -8.68 9 -8 9 C-8 8.34 -8 7.68 -8 7 C-6.625 5.375 -6.625 5.375 -5 4 C-4.34 4 -3.68 4 -3 4 C-3 3.34 -3 2.68 -3 2 C-2.01 1.34 -1.02 0.68 0 0 Z " fill="#39B8B3" transform="translate(30,194)"/>
<path d="M0 0 C0.33 0 0.66 0 1 0 C1.33 6.27 1.66 12.54 2 19 C2.66 19.33 3.32 19.66 4 20 C3.67 20.66 3.34 21.32 3 22 C2.77409036 24.47591026 2.59939924 26.9329246 2.46484375 29.4140625 C2.42186661 30.14370209 2.37888947 30.87334167 2.33460999 31.62509155 C2.19813434 33.95817748 2.06774861 36.29155895 1.9375 38.625 C1.84610365 40.20575238 1.75431174 41.78648193 1.66210938 43.3671875 C1.43681341 47.2445417 1.21697898 51.12217185 1 55 C0.67 55 0.34 55 0 55 C0 36.85 0 18.7 0 0 Z " fill="#4EBCB8" transform="translate(176,73)"/>
<path d="M0 0 C7.625 0.875 7.625 0.875 11 2 C12 4.1875 12 4.1875 13 7 C13.98422146 9.00781177 14.98234073 11.00892752 16 13 C16.33 13.66 16.66 14.32 17 15 C12.00071982 13.52525872 9.20062821 10.58722615 5.6875 6.9375 C5.13771484 6.38255859 4.58792969 5.82761719 4.02148438 5.25585938 C0 1.15444488 0 1.15444488 0 0 Z " fill="#52C1BB" transform="translate(19,311)"/>
<path d="M0 0 C0.99 0.33 1.98 0.66 3 1 C3.41277905 29.35792096 3.41277905 29.35792096 1 40 C0.67 40 0.34 40 0 40 C0 26.8 0 13.6 0 0 Z " fill="#4CBCB7" transform="translate(176,131)"/>
<path d="M0 0 C1 2 1 2 0.3125 4.5625 C-1 7 -1 7 -3.0625 7.6875 C-3.701875 7.790625 -4.34125 7.89375 -5 8 C-5.33 8.66 -5.66 9.32 -6 10 C-6.99 10 -7.98 10 -9 10 C-9.1546875 11.1446875 -9.1546875 11.1446875 -9.3125 12.3125 C-10.04711194 15.18416484 -10.6716065 16.23042094 -13 18 C-13.66 18 -14.32 18 -15 18 C-15.33 18.99 -15.66 19.98 -16 21 C-18.4375 22.75 -18.4375 22.75 -21 24 C-21.66 23.67 -22.32 23.34 -23 23 C-19.64361774 18.75516361 -16.32537896 15.26806411 -12 12 C-11.34 12 -10.68 12 -10 12 C-10 11.01 -10 10.02 -10 9 C-4.65116279 4 -4.65116279 4 -2 4 C-2 3.01 -2 2.02 -2 1 C-1.34 0.67 -0.68 0.34 0 0 Z " fill="#D7DD4B" transform="translate(299,143)"/>
<path d="M0 0 C0.33 0.99 0.66 1.98 1 3 C-0.28965176 4.37562854 -1.62689293 5.70766393 -3 7 C-3.66 7 -4.32 7 -5 7 C-4.835 8.216875 -4.67 9.43375 -4.5 10.6875 C-3.28773443 21.78838904 -4.1406862 32.90564503 -5 44 C-5.33 44 -5.66 44 -6 44 C-6.14857278 38.53747422 -6.25732017 33.07612961 -6.32958984 27.61206055 C-6.35972146 25.75443023 -6.40063595 23.89694172 -6.45263672 22.03979492 C-6.52561645 19.36601782 -6.5594907 16.69412421 -6.5859375 14.01953125 C-6.61690521 13.19226028 -6.64787292 12.36498932 -6.67977905 11.51264954 C-6.68307932 5.82926296 -6.68307932 5.82926296 -4.62432861 3.32992554 C-2.96337891 1.9362793 -2.96337891 1.9362793 0 0 Z " fill="#DBDD53" transform="translate(356,83)"/>
<path d="M0 0 C-1.98 0.99 -1.98 0.99 -4 2 C-4 2.66 -4 3.32 -4 4 C-4.66 4 -5.32 4 -6 4 C-6.33 4.99 -6.66 5.98 -7 7 C-7.66 7 -8.32 7 -9 7 C-9 7.66 -9 8.32 -9 9 C-10.875 11.125 -10.875 11.125 -13 13 C-13.66 13 -14.32 13 -15 13 C-15 13.66 -15 14.32 -15 15 C-15.66 14.67 -16.32 14.34 -17 14 C-16.34 12.02 -15.68 10.04 -15 8 C-13.68 8 -12.36 8 -11 8 C-11 6.02 -11 4.04 -11 2 C-3.57142857 -1.57142857 -3.57142857 -1.57142857 0 0 Z " fill="#4CBEB7" transform="translate(253,170)"/>
<path d="M0 0 C0.33 0.66 0.66 1.32 1 2 C0.67 2.66 0.34 3.32 0 4 C-0.66 4 -1.32 4 -2 4 C-2.33 5.32 -2.66 6.64 -3 8 C-4.32 8.33 -5.64 8.66 -7 9 C-7 9.99 -7 10.98 -7 12 C-5.82630859 12.07347656 -5.82630859 12.07347656 -4.62890625 12.1484375 C-3.61699219 12.22320312 -2.60507813 12.29796875 -1.5625 12.375 C-0.55316406 12.44460937 0.45617187 12.51421875 1.49609375 12.5859375 C2.73552734 12.79089844 2.73552734 12.79089844 4 13 C4.33 13.66 4.66 14.32 5 15 C-0.61 15 -6.22 15 -12 15 C-11.0342586 11.13703439 -10.72360482 10.32652203 -8.0625 7.75 C-7.53785156 7.22921875 -7.01320312 6.7084375 -6.47265625 6.171875 C-5 5 -5 5 -3 5 C-3 4.34 -3 3.68 -3 3 C-2.34 3 -1.68 3 -1 3 C-0.67 2.01 -0.34 1.02 0 0 Z " fill="#D3DA39" transform="translate(206,236)"/>
<path d="M0 0 C2.64215693 2.64215693 2.61662147 4.3099816 3 8 C2.89363687 10.31605719 2.72438682 12.62988552 2.5 14.9375 C2.08701689 19.87761448 1.96293835 24.16037895 3 29 C2.34 29 1.68 29 1 29 C0.67 29.66 0.34 30.32 0 31 C0 20.77 0 10.54 0 0 Z " fill="#52BDBA" transform="translate(176,301)"/>
<path d="M0 0 C0.33 0 0.66 0 1 0 C1 7.92 1 15.84 1 24 C1.99 24.33 2.98 24.66 4 25 C4 29.1274515 3.54466387 32.915021 3 37 C2.34 37 1.68 37 1 37 C-0.24063784 29.34125934 -0.11179358 21.74288354 -0.0625 14 C-0.05747487 12.63932456 -0.05291376 11.27864733 -0.04882812 9.91796875 C-0.03710459 6.61193275 -0.02069427 3.30598999 0 0 Z " fill="#3BB5B1" transform="translate(176,334)"/>
<path d="M0 0 C0.99 0.33 1.98 0.66 3 1 C3 1.66 3 2.32 3 3 C1.49609375 4.48046875 1.49609375 4.48046875 -0.5625 6.1875 C-4.58675247 9.60201725 -8.32190005 13.21845349 -12 17 C-12.33 16.34 -12.66 15.68 -13 15 C-12.67 14.01 -12.34 13.02 -12 12 C-11.01 12 -10.02 12 -9 12 C-9.33 10.35 -9.66 8.7 -10 7 C-8.68 7.33 -7.36 7.66 -6 8 C-6 7.34 -6 6.68 -6 6 C-5.34 6 -4.68 6 -4 6 C-4 5.01 -4 4.02 -4 3 C-2.68 3 -1.36 3 0 3 C0 2.01 0 1.02 0 0 Z " fill="#D8DE48" transform="translate(424,225)"/>
<path d="M0 0 C0.61328125 1.859375 0.61328125 1.859375 1 4 C-0.8125 6.25 -0.8125 6.25 -3 8 C-3.66 8 -4.32 8 -5 8 C-5.226875 8.721875 -5.45375 9.44375 -5.6875 10.1875 C-7.26335128 13.56432417 -9.20876616 15.55767039 -12 18 C-12.66 18 -13.32 18 -14 18 C-12.49853841 12.95394871 -9.43322694 9.89020251 -5.875 6.1875 C-5.03001953 5.2912793 -5.03001953 5.2912793 -4.16796875 4.37695312 C-2.7850002 2.91194406 -1.39335215 1.45513688 0 0 Z " fill="#54BDBA" transform="translate(202,21)"/>
<path d="M0 0 C2.475 0.99 2.475 0.99 5 2 C5 2.66 5 3.32 5 4 C5.804375 4.2475 6.60875 4.495 7.4375 4.75 C10 6 10 6 10.8125 8.125 C10.874375 8.74375 10.93625 9.3625 11 10 C11.66 10 12.32 10 13 10 C13 10.66 13 11.32 13 12 C13.99 12 14.98 12 16 12 C16 13.32 16 14.64 16 16 C15.34 16 14.68 16 14 16 C14 15.34 14 14.68 14 14 C13.34 14 12.68 14 12 14 C9.875 12.125 9.875 12.125 8 10 C8 9.34 8 8.68 8 8 C7.34 8 6.68 8 6 8 C1.23255814 3.69767442 1.23255814 3.69767442 0 0 Z " fill="#D9DD4F" transform="translate(205,280)"/>
<path d="M0 0 C0.33 0 0.66 0 1 0 C1.17079645 3.2914656 1.33585347 6.5831966 1.5 9.875 C1.54769531 10.7928125 1.59539062 11.710625 1.64453125 12.65625 C1.94623739 18.77657459 2.05995861 24.87256353 2 31 C1.34 31 0.68 31 0 31 C-1.79988528 20.65065964 -0.84069751 10.41864418 0 0 Z " fill="#D0D62C" transform="translate(351,113)"/>
<path d="M0 0 C1.65 0 3.3 0 5 0 C5.33 1.65 5.66 3.3 6 5 C7.65 4.34 9.3 3.68 11 3 C10.67 4.32 10.34 5.64 10 7 C10.99 7 11.98 7 13 7 C13.33 9.31 13.66 11.62 14 14 C9.10565787 9.90473413 4.29279666 5.73642915 0 1 C0 0.67 0 0.34 0 0 Z " fill="#D7DD3F" transform="translate(298,373)"/>
<path d="M0 0 C1.25504611 2.95045927 0.95660706 4.13096779 -0.07421875 7.2421875 C-0.60660156 8.44101562 -1.13898438 9.63984375 -1.6875 10.875 C-2.20699219 12.06867188 -2.72648437 13.26234375 -3.26171875 14.4921875 C-4.96079677 17.92088876 -6.80820981 20.87705711 -9 24 C-9.33 22.68 -9.66 21.36 -10 20 C-9.34 20 -8.68 20 -8 20 C-8.061875 19.236875 -8.12375 18.47375 -8.1875 17.6875 C-7.96118351 14.44363031 -7.25057928 14.16055611 -5 12 C-4.27802838 9.39388923 -4.27802838 9.39388923 -4 7 C-3.34 7 -2.68 7 -2 7 C-1.855625 6.030625 -1.71125 5.06125 -1.5625 4.0625 C-1 1 -1 1 0 0 Z " fill="#D8DD51" transform="translate(477,395)"/>
<path d="M0 0 C4 2 4 2 6 5 C4.02 5.99 4.02 5.99 2 7 C1.67 14.26 1.34 21.52 1 29 C0.67 29 0.34 29 0 29 C0 19.43 0 9.86 0 0 Z " fill="#57BBB7" transform="translate(176,271)"/>
<path d="M0 0 C1.09731445 0.00676758 1.09731445 0.00676758 2.21679688 0.01367188 C3.99873419 0.02531852 5.78062863 0.04324809 7.5625 0.0625 C7.5625 0.7225 7.5625 1.3825 7.5625 2.0625 C2.6125 2.0625 -2.3375 2.0625 -7.4375 2.0625 C-7.7675 2.7225 -8.0975 3.3825 -8.4375 4.0625 C-11.5 4.6875 -11.5 4.6875 -14.4375 5.0625 C-14.7675 3.7425 -15.0975 2.4225 -15.4375 1.0625 C-10.23576905 0.19440561 -5.26771184 -0.06265348 0 0 Z " fill="#36B5B0" transform="translate(105.4375,175.9375)"/>
<path d="M0 0 C-6.06603994 4.50837206 -11.94190684 8.25518599 -19 11 C-19 10.34 -19 9.68 -19 9 C-18.34 9 -17.68 9 -17 9 C-17 8.34 -17 7.68 -17 7 C-15.68 7 -14.36 7 -13 7 C-12.67 5.68 -12.34 4.36 -12 3 C-10.68 3.33 -9.36 3.66 -8 4 C-7.896875 3.360625 -7.79375 2.72125 -7.6875 2.0625 C-7.460625 1.381875 -7.23375 0.70125 -7 0 C-3.86650268 -1.04449911 -3.01031744 -0.93423645 0 0 Z " fill="#51BCB6" transform="translate(312,498)"/>
<path d="M0 0 C0.99 0.33 1.98 0.66 3 1 C2.96519531 1.96099609 2.96519531 1.96099609 2.9296875 2.94140625 C2.84273736 7.1088023 2.76610491 10.88140707 4.0625 14.875 C5.01758261 18.05860869 4.93650598 18.97436529 4 22 C1.25626771 15.51481458 -0.35105749 9.0302105 -1 2 C-0.67 1.34 -0.34 0.68 0 0 Z " fill="#3CB8B3" transform="translate(1,266)"/>
<path d="M0 0 C0.33 0 0.66 0 1 0 C1.53516215 6.31788655 0.74826815 11.92151885 -0.875 18 C-1.04870117 18.6587915 -1.22240234 19.31758301 -1.40136719 19.99633789 C-2.23713624 22.96826157 -2.78271607 24.78271607 -5 27 C-4.85769192 25.58297487 -4.71099254 24.1663904 -4.5625 22.75 C-4.48128906 21.96109375 -4.40007812 21.1721875 -4.31640625 20.359375 C-4.02345234 18.17487916 -3.53364038 16.13456153 -3 14 C-2.96213099 12.33376361 -2.95372155 10.66602403 -3 9 C-2.01 9 -1.02 9 0 9 C0 6.03 0 3.06 0 0 Z " fill="#7AD1CF" transform="translate(340,436)"/>
<path d="M0 0 C1.32 0 2.64 0 4 0 C8 4.22222222 8 4.22222222 8 7 C8.66 7 9.32 7 10 7 C10 7.99 10 8.98 10 10 C11.65 10.33 13.3 10.66 15 11 C14.67 11.99 14.34 12.98 14 14 C12 14 12 14 9.875 12.125 C8 10 8 10 8 8 C7.34 8 6.68 8 6 8 C1.23255814 3.69767442 1.23255814 3.69767442 0 0 Z " fill="#DADF4F" transform="translate(221,296)"/>
<path d="M0 0 C7.24660303 2.18765374 13.38875178 5.88386192 19 11 C19 11.99 19 12.98 19 14 C18.2575 13.360625 17.515 12.72125 16.75 12.0625 C14.27382368 9.9227551 14.27382368 9.9227551 11.9375 9.5 C10 9 10 9 8.125 7.0625 C5.58999009 4.60204921 3.37173564 3.91956427 0 3 C0 2.01 0 1.02 0 0 Z " fill="#D7DA50" transform="translate(434,72)"/>
<path d="M0 0 C0.33 0 0.66 0 1 0 C1.33 6.93 1.66 13.86 2 21 C2.33 20.34 2.66 19.68 3 19 C4.32 19.33 5.64 19.66 7 20 C5.37660195 21.70884005 3.70680947 23.37446717 2 25 C1.34 25 0.68 25 0 25 C0 16.75 0 8.5 0 0 Z " fill="#60C1BE" transform="translate(176,218)"/>
<path d="M0 0 C0.99 0 1.98 0 3 0 C1.43813282 4.21704138 -1.55477218 6.2578799 -5 9 C-6.01680311 9.98290968 -7.02738219 10.97334787 -8 12 C-7.67 10.35 -7.34 8.7 -7 7 C-7.66 6.67 -8.32 6.34 -9 6 C-7.68 6 -6.36 6 -5 6 C-4.67 4.68 -4.34 3.36 -4 2 C-3.01 2 -2.02 2 -1 2 C-0.67 1.34 -0.34 0.68 0 0 Z " fill="#43BAB3" transform="translate(212,205)"/>
<path d="M0 0 C0.33 0.66 0.66 1.32 1 2 C0.34 2 -0.32 2 -1 2 C-1.33 3.65 -1.66 5.3 -2 7 C-3.32 7.33 -4.64 7.66 -6 8 C-6.103125 8.61875 -6.20625 9.2375 -6.3125 9.875 C-7 12 -7 12 -10 14 C-10.66 13.34 -11.32 12.68 -12 12 C-10.625 10.5 -10.625 10.5 -9 9 C-8.34 9 -7.68 9 -7 9 C-7 8.01 -7 7.02 -7 6 C-5.625 4.3125 -5.625 4.3125 -4 3 C-3.34 3 -2.68 3 -2 3 C-2 2.34 -2 1.68 -2 1 C-1.34 0.67 -0.68 0.34 0 0 Z " fill="#D4DB40" transform="translate(312,130)"/>
<path d="M0 0 C0.33 0 0.66 0 1 0 C1 3.96 1 7.92 1 12 C1.66 12 2.32 12 3 12 C3 14.97 3 17.94 3 21 C2.34 21.33 1.68 21.66 1 22 C0.18565857 19.14839609 -0.11881242 16.63373869 -0.09765625 13.671875 C-0.09282227 12.47304688 -0.09282227 12.47304688 -0.08789062 11.25 C-0.07951172 10.425 -0.07113281 9.6 -0.0625 8.75 C-0.05798828 7.90953125 -0.05347656 7.0690625 -0.04882812 6.203125 C-0.03707961 4.13538599 -0.01914522 2.06768376 0 0 Z " fill="#57BEBB" transform="translate(176,431)"/>
<path d="M0 0 C1.65 0 3.3 0 5 0 C1.87065923 2.55763428 -1.28567043 4.17140993 -5 5.75 C-6.03125 6.19859375 -7.0625 6.6471875 -8.125 7.109375 C-11.02871263 8.00889467 -12.22396681 8.0943977 -15 7 C-11.62902617 5.50178941 -9.79557881 5 -6 5 C-6 4.01 -6 3.02 -6 2 C-4.02 2 -2.04 2 0 2 C0 1.34 0 0.68 0 0 Z " fill="#DCE15C" transform="translate(438,441)"/>
<path d="M0 0 C0 3.24792684 -0.6507329 5.07658794 -2 8 C-2.66 8.66 -3.32 9.32 -4 10 C-4.66 9.67 -5.32 9.34 -6 9 C-6.33 9.99 -6.66 10.98 -7 12 C-7.99 12 -8.98 12 -10 12 C-8.52278578 8.54798361 -6.56205999 6.35038064 -3.875 3.75 C-3.15054688 3.04359375 -2.42609375 2.3371875 -1.6796875 1.609375 C-1.12539062 1.07828125 -0.57109375 0.5471875 0 0 Z " fill="#D7DD52" transform="translate(239,203)"/>
<path d="M0 0 C0.33 0.66 0.66 1.32 1 2 C0.34 2 -0.32 2 -1 2 C-1.66 3.98 -2.32 5.96 -3 8 C-3.99 8 -4.98 8 -6 8 C-6 8.66 -6 9.32 -6 10 C-6.66 10 -7.32 10 -8 10 C-8.268125 10.639375 -8.53625 11.27875 -8.8125 11.9375 C-10 14 -10 14 -13 15 C-11.55922954 11.63820226 -9.75249979 9.40843732 -7 7 C-6.34 7 -5.68 7 -5 7 C-4.731875 6.401875 -4.46375 5.80375 -4.1875 5.1875 C-3.01506533 3.02775192 -1.80630718 1.64209744 0 0 Z " fill="#D6DD49" transform="translate(267,175)"/>
<path d="M0 0 C0.33 0 0.66 0 1 0 C1.06058594 1.27617187 1.12117187 2.55234375 1.18359375 3.8671875 C1.26799568 5.53647016 1.35264386 7.20574037 1.4375 8.875 C1.47681641 9.71675781 1.51613281 10.55851563 1.55664062 11.42578125 C1.59853516 12.23144531 1.64042969 13.03710938 1.68359375 13.8671875 C1.73858032 14.98262939 1.73858032 14.98262939 1.79467773 16.12060547 C1.89955865 18.08864312 1.89955865 18.08864312 3 20 C2.66015625 21.9453125 2.66015625 21.9453125 2.0625 24.125 C1.86785156 24.84945312 1.67320312 25.57390625 1.47265625 26.3203125 C1.31667969 26.87460938 1.16070312 27.42890625 1 28 C0.67 28 0.34 28 0 28 C0 18.76 0 9.52 0 0 Z " fill="#5DC3C0" transform="translate(176,172)"/>
<path d="M0 0 C6.15234375 -0.09765625 6.15234375 -0.09765625 8 0 C8.33 0.33 8.66 0.66 9 1 C10.48638992 1.15655027 11.97949127 1.25066943 13.47265625 1.31640625 C14.82133789 1.37924805 14.82133789 1.37924805 16.19726562 1.44335938 C17.61555664 1.50233398 17.61555664 1.50233398 19.0625 1.5625 C20.01189453 1.60568359 20.96128906 1.64886719 21.93945312 1.69335938 C24.29281353 1.79979276 26.64628354 1.90181008 29 2 C29 2.33 29 2.66 29 3 C25.29173349 3.05837668 21.5835863 3.09372277 17.875 3.125 C16.30492187 3.15013672 16.30492187 3.15013672 14.703125 3.17578125 C9.40730664 3.20929909 4.9428941 3.17213685 0 1 C0 0.67 0 0.34 0 0 Z " fill="#42B3B0" transform="translate(59,337)"/>
<path d="M0 0 C1.33333333 0.66666667 2.66666667 1.33333333 4 2 C4.680625 2.268125 5.36125 2.53625 6.0625 2.8125 C8.65888205 4.40383093 9.50037276 6.37565233 11 9 C12.29579647 10.36984198 13.61992749 11.7151049 15 13 C14.67 13.66 14.34 14.32 14 15 C11.66265901 12.69152056 9.33081534 10.37756659 7 8.0625 C6.33226562 7.40314453 5.66453125 6.74378906 4.9765625 6.06445312 C4.34492188 5.43603516 3.71328125 4.80761719 3.0625 4.16015625 C2.47597656 3.57886963 1.88945312 2.99758301 1.28515625 2.39868164 C0 1 0 1 0 0 Z " fill="#DAE158" transform="translate(252,327)"/>
<path d="M0 0 C0.66 0.33 1.32 0.66 2 1 C1.34 2.98 0.68 4.96 0 7 C-0.66 7 -1.32 7 -2 7 C-2.103125 8.03125 -2.20625 9.0625 -2.3125 10.125 C-2.99127797 13.95083945 -4.11158795 16.63370025 -6 20 C-7.9150123 14.2549631 -3.86361887 7.5648687 -1.25 2.3125 C-0.8375 1.549375 -0.425 0.78625 0 0 Z " fill="#45AFAB" transform="translate(10,217)"/>
<path d="M0 0 C3.72617422 1.24205807 5.39291457 3.1110675 8 6 C8 6.66 8 7.32 8 8 C9.32 8.66 10.64 9.32 12 10 C11.01 10.33 10.02 10.66 9 11 C7.63266972 10.04701223 6.29735507 9.04625409 5 8 C4.34 8 3.68 8 3 8 C0 1.125 0 1.125 0 0 Z " fill="#5DC2C0" transform="translate(201,295)"/>
<path d="M0 0 C0.66 0 1.32 0 2 0 C2 0.66 2 1.32 2 2 C2.5775 2.103125 3.155 2.20625 3.75 2.3125 C6.35661158 3.10896465 7.9735311 4.19065277 10 6 C10 6.66 10 7.32 10 8 C10.99 8.33 11.98 8.66 13 9 C10 10 10 10 7.875 9.3125 C6 8 6 8 5.5625 6 C5.376875 5.34 5.19125 4.68 5 4 C2.50965614 2.70339566 2.50965614 2.70339566 0 2 C0 1.34 0 0.68 0 0 Z " fill="#48B9B1" transform="translate(302,12)"/>
<path d="M0 0 C0.66 0.33 1.32 0.66 2 1 C-0.97 3.97 -3.94 6.94 -7 10 C-7.66 8.68 -8.32 7.36 -9 6 C-8.34 5.01 -7.68 4.02 -7 3 C-5.68 3.33 -4.36 3.66 -3 4 C-3 3.01 -3 2.02 -3 1 C-2.01 0.67 -1.02 0.34 0 0 Z " fill="#54C0BA" transform="translate(330,91)"/>
<path d="M0 0 C0.66 0.33 1.32 0.66 2 1 C1.67 1.99 1.34 2.98 1 4 C0.01 4.33 -0.98 4.66 -2 5 C-3.70855022 8.00007271 -3.70855022 8.00007271 -5 11 C-6.65 11 -8.3 11 -10 11 C-9.34 10.01 -8.68 9.02 -8 8 C-7.34 8 -6.68 8 -6 8 C-6 7.34 -6 6.68 -6 6 C-5.34 6 -4.68 6 -4 6 C-3.71125 5.38125 -3.4225 4.7625 -3.125 4.125 C-2 2 -2 2 0 0 Z " fill="#D3DC42" transform="translate(217,225)"/>
<path d="M0 0 C1 3 1 3 0.328125 4.9375 C-0.02765625 5.618125 -0.3834375 6.29875 -0.75 7 C-1.09546875 7.680625 -1.4409375 8.36125 -1.796875 9.0625 C-3.0089425 11.01440091 -4.31406647 12.4497163 -6 14 C-6 12.68 -6 11.36 -6 10 C-5.34 10 -4.68 10 -4 10 C-4 8.02 -4 6.04 -4 4 C-3.34 4 -2.68 4 -2 4 C-1.34 2.68 -0.68 1.36 0 0 Z " fill="#DAE055" transform="translate(475,169)"/>
<path d="M0 0 C-3.85623679 4.82029598 -3.85623679 4.82029598 -7.11328125 5.33203125 C-9.07856214 5.3145776 -11.04166127 5.16596091 -13 5 C-4.68085106 -2.34042553 -4.68085106 -2.34042553 0 0 Z " fill="#42B5B0" transform="translate(232,5)"/>
<path d="M0 0 C6.33393082 -0.34548714 11.10261508 0.70657253 17 3 C17 3.66 17 4.32 17 5 C8.585 3.02 8.585 3.02 0 1 C0 0.67 0 0.34 0 0 Z " fill="#50BAB6" transform="translate(228,511)"/>
<path d="M0 0 C1.32 0 2.64 0 4 0 C4 0.66 4 1.32 4 2 C5.32 1.67 6.64 1.34 8 1 C8.66 3.64 9.32 6.28 10 9 C9.34 9 8.68 9 8 9 C6.5625 7.5390625 6.5625 7.5390625 5 5.625 C3.38135964 3.65835196 1.80325804 1.80325804 0 0 Z " fill="#D8DE47" transform="translate(235,311)"/>
<path d="M0 0 C3.95819611 -0.08678303 7.91614934 -0.14031733 11.875 -0.1875 C13.00292969 -0.21263672 14.13085938 -0.23777344 15.29296875 -0.26367188 C16.36933594 -0.27333984 17.44570313 -0.28300781 18.5546875 -0.29296875 C20.04718018 -0.31653442 20.04718018 -0.31653442 21.56982422 -0.34057617 C22.37178223 -0.22818604 23.17374023 -0.1157959 24 0 C24.66 0.99 25.32 1.98 26 3 C25.44731445 2.84152588 24.89462891 2.68305176 24.32519531 2.51977539 C21.77935695 1.95067733 19.40300555 1.7896572 16.796875 1.68359375 C15.32734375 1.62075195 15.32734375 1.62075195 13.828125 1.55664062 C12.81234375 1.51732422 11.7965625 1.47800781 10.75 1.4375 C9.71875 1.39431641 8.6875 1.35113281 7.625 1.30664062 C5.0834613 1.20074318 2.54182804 1.09866557 0 1 C0 0.67 0 0.34 0 0 Z " fill="#D2DB3A" transform="translate(380,268)"/>
<path d="M0 0 C1.65 0.33 3.3 0.66 5 1 C4.01 1.495 4.01 1.495 3 2 C3 2.66 3 3.32 3 4 C2.34 4 1.68 4 1 4 C1 4.66 1 5.32 1 6 C-0.96147874 7.38938077 -2.96166576 8.7260411 -5 10 C-4.34 7.69 -3.68 5.38 -3 3 C-2.34 3 -1.68 3 -1 3 C-0.67 2.01 -0.34 1.02 0 0 Z " fill="#54C1B9" transform="translate(223,193)"/>
<path d="M0 0 C-0.33 0.99 -0.66 1.98 -1 3 C-1.66 3 -2.32 3 -3 3 C-3 3.66 -3 4.32 -3 5 C-7.455 6.485 -7.455 6.485 -12 8 C-10.6875 6 -10.6875 6 -9 4 C-8.01 4 -7.02 4 -6 4 C-6 3.34 -6 2.68 -6 2 C-2.25 0 -2.25 0 0 0 Z " fill="#54BDB7" transform="translate(219,10)"/>
<path d="M0 0 C2 1.375 2 1.375 4 3 C4 3.66 4 4.32 4 5 C4.99 5.33 5.98 5.66 7 6 C8.70586575 7.62652316 10.3777546 9.29006566 12 11 C11.67 11.66 11.34 12.32 11 13 C8.96166576 11.7260411 6.96147874 10.38938077 5 9 C5 8.34 5 7.68 5 7 C4.34 7 3.68 7 3 7 C3 6.01 3 5.02 3 4 C2.01 4 1.02 4 0 4 C0 2.68 0 1.36 0 0 Z " fill="#6AC6C4" transform="translate(221,314)"/>
<path d="M0 0 C0.66 0.33 1.32 0.66 2 1 C1.34 2.32 0.68 3.64 0 5 C-0.66 5 -1.32 5 -2 5 C-2.33 6.65 -2.66 8.3 -3 10 C-3.33 10 -3.66 10 -4 10 C-4 7.36 -4 4.72 -4 2 C-2.125 0.9375 -2.125 0.9375 0 0 Z " fill="#1AAFA8" transform="translate(181,276)"/>
<path d="M0 0 C0.66 0.33 1.32 0.66 2 1 C0.25 5.875 0.25 5.875 -2 7 C-2.28875 7.66 -2.5775 8.32 -2.875 9 C-4 11 -4 11 -6.0703125 11.625 C-6.70710937 11.74875 -7.34390625 11.8725 -8 12 C-4 6 -4 6 0 0 Z " fill="#5EC3BD" transform="translate(20,203)"/>
<path d="M0 0 C0 0.66 0 1.32 0 2 C-3.4352048 4.29013653 -4.985331 4.17842973 -9 4 C-9 4.66 -9 5.32 -9 6 C-10.65 6 -12.3 6 -14 6 C-13.01 5.67 -12.02 5.34 -11 5 C-11 4.34 -11 3.68 -11 3 C-9.54293274 2.49632243 -8.08429904 1.99717444 -6.625 1.5 C-5.81289063 1.2215625 -5.00078125 0.943125 -4.1640625 0.65625 C-2 0 -2 0 0 0 Z " fill="#48B9B2" transform="translate(55,181)"/>
<path d="M0 0 C1 2 1 2 0.3125 4.5625 C-1 7 -1 7 -3.0625 7.6875 C-3.701875 7.790625 -4.34125 7.89375 -5 8 C-5.33 8.66 -5.66 9.32 -6 10 C-8.0625 10.625 -8.0625 10.625 -10 11 C-10 10.34 -10 9.68 -10 9 C-4.52380952 4 -4.52380952 4 -2 4 C-2 3.01 -2 2.02 -2 1 C-1.34 0.67 -0.68 0.34 0 0 Z " fill="#D8DE4E" transform="translate(299,143)"/>
<path d="M0 0 C2.97 0 5.94 0 9 0 C9.33 0.66 9.66 1.32 10 2 C12.02463255 2.65213292 12.02463255 2.65213292 14 3 C14 3.66 14 4.32 14 5 C12.03964825 4.55037804 10.08175691 4.09001752 8.125 3.625 C7.03445313 3.36976563 5.94390625 3.11453125 4.8203125 2.8515625 C2 2 2 2 0 0 Z " fill="#D8DC47" transform="translate(375,445)"/>
<path d="M0 0 C-1 3 -1 3 -4 5 C-4.72382467 7.05925139 -4.72382467 7.05925139 -5 9 C-6.65 9 -8.3 9 -10 9 C-9.67 8.01 -9.34 7.02 -9 6 C-8.34 6 -7.68 6 -7 6 C-7 5.34 -7 4.68 -7 4 C-2.52941176 0 -2.52941176 0 0 0 Z " fill="#D2D842" transform="translate(336,108)"/>
<path d="M0 0 C0.99 0.33 1.98 0.66 3 1 C2.01 2.485 2.01 2.485 1 4 C1.99 4 2.98 4 4 4 C4 5.65 4 7.3 4 9 C1.69 7.02 -0.62 5.04 -3 3 C-2.01 2.67 -1.02 2.34 0 2 C0 1.34 0 0.68 0 0 Z " fill="#D6DC3E" transform="translate(278,348)"/>
<path d="M0 0 C0 2 0 2 -2.3125 4.625 C-5 7 -5 7 -8 7 C-7.6875 4.625 -7.6875 4.625 -7 2 C-4 0 -4 0 0 0 Z " fill="#D6DC40" transform="translate(451,203)"/>
<path d="M0 0 C0.66 0.33 1.32 0.66 2 1 C1.34 2.98 0.68 4.96 0 7 C-1.98 7.33 -3.96 7.66 -6 8 C-5.67 7.01 -5.34 6.02 -5 5 C-4.34 5 -3.68 5 -3 5 C-3 4.34 -3 3.68 -3 3 C-1.5 1.375 -1.5 1.375 0 0 Z " fill="#D3DC38" transform="translate(324,117)"/>
<path d="M0 0 C4.1424367 1.38081223 5.32203099 3.59825558 8 7 C4.37673261 8.2077558 3.35853631 7.54311128 0 6 C0 4.02 0 2.04 0 0 Z " fill="#54BEBA" transform="translate(273,367)"/>
<path d="M0 0 C0.66 0.33 1.32 0.66 2 1 C1.01 3.31 0.02 5.62 -1 8 C-1.33 7.34 -1.66 6.68 -2 6 C-3.98 6.33 -5.96 6.66 -8 7 C-5.4837822 4.39391727 -2.94865641 2.10618315 0 0 Z " fill="#54C0BA" transform="translate(39,187)"/>
<path d="M0 0 C0.99 0 1.98 0 3 0 C3.52973311 1.62212059 4.04853107 3.24781584 4.5625 4.875 C4.85253906 5.77992188 5.14257812 6.68484375 5.44140625 7.6171875 C6 10 6 10 5 12 C4.16180842 10.37750059 3.3295884 8.75191503 2.5 7.125 C2.0359375 6.22007812 1.571875 5.31515625 1.09375 4.3828125 C0 2 0 2 0 0 Z " fill="#59C0BC" transform="translate(180,461)"/>
<path d="M0 0 C2 0 2 0 3.625 1.375 C5 3 5 3 5 5 C5.99 5.33 6.98 5.66 8 6 C8 6.66 8 7.32 8 8 C6.68 7.67 5.36 7.34 4 7 C4 6.34 4 5.68 4 5 C2.68 5 1.36 5 0 5 C0 3.35 0 1.7 0 0 Z " fill="#62C3BF" transform="translate(193,287)"/>
<path d="M0 0 C0.99 0 1.98 0 3 0 C3 2.31 3 4.62 3 7 C2.01 7.33 1.02 7.66 0 8 C-1.125 2.25 -1.125 2.25 0 0 Z " fill="#45B7B1" transform="translate(332,460)"/>
<path d="M0 0 C1.65 0 3.3 0 5 0 C5 0.66 5 1.32 5 2 C6.65 2 8.3 2 10 2 C10.33 3.32 10.66 4.64 11 6 C7.2089881 4.55049545 3.6125362 2.84827434 0 1 C0 0.67 0 0.34 0 0 Z " fill="#DADF57" transform="translate(363,439)"/>
<path d="M0 0 C4 0 4 0 5.6875 1.1875 C7.30130763 3.41609148 7.63487253 5.2980567 8 8 C6.85073734 7.04578192 5.70569459 6.08647955 4.5625 5.125 C3.92441406 4.59132813 3.28632813 4.05765625 2.62890625 3.5078125 C1 2 1 2 0 0 Z " fill="#D8DD4B" transform="translate(290,365)"/>
<path d="M0 0 C0.66 0 1.32 0 2 0 C3.49821059 3.37097383 4 5.20442119 4 9 C3.01 8.67 2.02 8.34 1 8 C-0.1875 4.4375 -0.1875 4.4375 -1 1 C-0.67 0.67 -0.34 0.34 0 0 Z " fill="#42B7B1" transform="translate(7,288)"/>
<path d="M0 0 C2.5 1.375 2.5 1.375 5 3 C5 3.66 5 4.32 5 5 C5.66 5 6.32 5 7 5 C7.33 5.99 7.66 6.98 8 8 C7.01 8.495 7.01 8.495 6 9 C5.67 8.34 5.34 7.68 5 7 C4.01 6.67 3.02 6.34 2 6 C2 5.34 2 4.68 2 4 C1.34 4 0.68 4 0 4 C0 2.68 0 1.36 0 0 Z " fill="#D7DD55" transform="translate(406,271)"/>
<path d="M0 0 C0.66 0 1.32 0 2 0 C1.84518205 2.70931419 1.51827919 4.46584039 -0.40234375 6.4453125 C-1.89771708 7.67679642 -3.4462924 8.8429837 -5 10 C-4.67 8.68 -4.34 7.36 -4 6 C-3.34 6 -2.68 6 -2 6 C-2 5.01 -2 4.02 -2 3 C-1.34 3 -0.68 3 0 3 C0 2.01 0 1.02 0 0 Z " fill="#D8E156" transform="translate(456,194)"/>
<path d="M0 0 C0 0.99 0 1.98 0 3 C-1.98 3.33 -3.96 3.66 -6 4 C-6.66 3.01 -7.32 2.02 -8 1 C-5.29120665 -0.35439668 -2.99066732 -0.06501451 0 0 Z M-10 2 C-9.01 2.495 -9.01 2.495 -8 3 C-8.99 3.495 -8.99 3.495 -10 4 C-10 3.34 -10 2.68 -10 2 Z " fill="#1AADA4" transform="translate(278,2)"/>
<path d="M0 0 C0.33 0.66 0.66 1.32 1 2 C1.639375 2.268125 2.27875 2.53625 2.9375 2.8125 C5.68156708 4.39241741 6.06890124 6.0515206 7 9 C6.01 9 5.02 9 4 9 C0 3.85714286 0 3.85714286 0 0 Z " fill="#53BAB4" transform="translate(186,473)"/>
<path d="M0 0 C1.32 0 2.64 0 4 0 C4 0.99 4 1.98 4 3 C4.99 3 5.98 3 7 3 C7.33 4.65 7.66 6.3 8 8 C6.85073734 7.04578192 5.70569459 6.08647955 4.5625 5.125 C3.92441406 4.59132813 3.28632813 4.05765625 2.62890625 3.5078125 C1 2 1 2 0 0 Z " fill="#D8DD4C" transform="translate(322,397)"/>
<path d="M0 0 C0.33 0.66 0.66 1.32 1 2 C-2.54950034 3.16306443 -5.55823948 2.92365049 -9.25 2.5625 C-10.32765625 2.46066406 -11.4053125 2.35882813 -12.515625 2.25390625 C-13.33546875 2.17011719 -14.1553125 2.08632813 -15 2 C-15 1.67 -15 1.34 -15 1 C-9.9752761 0.37470103 -5.07471573 -0.13012092 0 0 Z " fill="#6ABEBB" transform="translate(160,339)"/>
<path d="M0 0 C0.33 0 0.66 0 1 0 C0.98839844 0.74765625 0.97679687 1.4953125 0.96484375 2.265625 C0.95582031 3.25046875 0.94679687 4.2353125 0.9375 5.25 C0.92589844 6.22453125 0.91429687 7.1990625 0.90234375 8.203125 C0.98804423 10.65758678 1.29293934 12.66168914 2 15 C1.34 15 0.68 15 0 15 C-2.27571116 5.98468271 -2.27571116 5.98468271 -1.125 1.875 C-0.75375 1.25625 -0.3825 0.6375 0 0 Z " fill="#25ABA5" transform="translate(178,195)"/>
<path d="M0 0 C1.65 0 3.3 0 5 0 C3.02 2.31 1.04 4.62 -1 7 C-1.66 6.01 -2.32 5.02 -3 4 C-2.67 3.34 -2.34 2.68 -2 2 C-1.34 2.33 -0.68 2.66 0 3 C0 2.01 0 1.02 0 0 Z " fill="#52C1BA" transform="translate(316,102)"/>
<path d="M0 0 C2.64 0 5.28 0 8 0 C8 0.99 8 1.98 8 3 C4.7 3 1.4 3 -2 3 C-1.34 2.67 -0.68 2.34 0 2 C0 1.34 0 0.68 0 0 Z " fill="#26A9A4" transform="translate(113,176)"/>
<path d="M0 0 C-2.31 1.65 -4.62 3.3 -7 5 C-7.33 4.01 -7.66 3.02 -8 2 C-6.07422746 -1.85154509 -3.80227342 -0.95056836 0 0 Z " fill="#63C4BE" transform="translate(312,498)"/>
<path d="M0 0 C1.15957207 3.47871621 0.77456651 4.34219645 -0.4375 7.6875 C-0.72496094 8.49574219 -1.01242187 9.30398438 -1.30859375 10.13671875 C-1.65083984 11.05904297 -1.65083984 11.05904297 -2 12 C-2.33 12 -2.66 12 -3 12 C-2.88541307 10.56163249 -2.75790884 9.12429034 -2.625 7.6875 C-2.55539062 6.88699219 -2.48578125 6.08648437 -2.4140625 5.26171875 C-2 3 -2 3 0 0 Z " fill="#6CCCC6" transform="translate(338,451)"/>
<path d="M0 0 C0.33 2.31 0.66 4.62 1 7 C-0.98 5.35 -2.96 3.7 -5 2 C-2 0 -2 0 0 0 Z " fill="#D9DE3A" transform="translate(317,386)"/>
<path d="M0 0 C0.33 0.99 0.66 1.98 1 3 C-0.28965176 4.37562854 -1.62689293 5.70766393 -3 7 C-3.66 7 -4.32 7 -5 7 C-4.60196439 4.11424181 -4.20990931 3.17810487 -1.9375 1.25 C-1.298125 0.8375 -0.65875 0.425 0 0 Z " fill="#D2D92C" transform="translate(289,154)"/>
<path d="M0 0 C0.99 1.32 1.98 2.64 3 4 C2.01 4.33 1.02 4.66 0 5 C-0.33 5.66 -0.66 6.32 -1 7 C-1.66 6.34 -2.32 5.68 -3 5 C-2.75 2.9375 -2.75 2.9375 -2 1 C-1.34 0.67 -0.68 0.34 0 0 Z " fill="#2BB8B3" transform="translate(203,488)"/>
<path d="M0 0 C1.32 0.33 2.64 0.66 4 1 C5.046875 2.84765625 5.046875 2.84765625 5.75 5.0625 C5.99234375 5.79597656 6.2346875 6.52945312 6.484375 7.28515625 C6.65453125 7.85105469 6.8246875 8.41695313 7 9 C6.34 9 5.68 9 5 9 C3.35 6.03 1.7 3.06 0 0 Z " fill="#6BC4C0" transform="translate(12,301)"/>
<path d="M0 0 C0.66 0 1.32 0 2 0 C4.27678571 6.96428571 4.27678571 6.96428571 3 11 C2.49384702 9.73160474 1.99530901 8.46016898 1.5 7.1875 C1.2215625 6.47980469 0.943125 5.77210938 0.65625 5.04296875 C0 3 0 3 0 0 Z " fill="#60BFBA" transform="translate(2,277)"/>
<path d="M0 0 C0 3 0 3 -1.375 4.6875 C-3 6 -3 6 -5 6 C-5.33 6.66 -5.66 7.32 -6 8 C-6 6.35 -6 4.7 -6 3 C-4.02 2.01 -2.04 1.02 0 0 Z " fill="#D7DA46" transform="translate(434,218)"/>
<path d="M0 0 C0.33 1.32 0.66 2.64 1 4 C-1.475 5.485 -1.475 5.485 -4 7 C-4 4 -4 4 -2 1.8125 C-1.34 1.214375 -0.68 0.61625 0 0 Z " fill="#D7DD42" transform="translate(275,167)"/>
<path d="M0 0 C0.33 0 0.66 0 1 0 C0.50769231 6.52307692 0.50769231 6.52307692 -2.0625 8.9375 C-2.701875 9.288125 -3.34125 9.63875 -4 10 C-2.8905928 6.51329166 -1.73662334 3.22515763 0 0 Z " fill="#61BFBA" transform="translate(187,39)"/>
<path d="M0 0 C3.66881155 0.70554068 6.70450534 2.27735506 10 4 C5.82412255 5.39195915 3.86525224 3.82323219 0 2 C0 1.34 0 0.68 0 0 Z " fill="#6AC3BE" transform="translate(290,6)"/>
<path d="M0 0 C1.65 0 3.3 0 5 0 C4.67 0.99 4.34 1.98 4 3 C3.34 3 2.68 3 2 3 C1.67 3.99 1.34 4.98 1 6 C0.67 6 0.34 6 0 6 C0 4.02 0 2.04 0 0 Z " fill="#D9DD46" transform="translate(454,428)"/>
<path d="M0 0 C2 1.375 2 1.375 4 3 C4 3.66 4 4.32 4 5 C4.99 5.33 5.98 5.66 7 6 C7 6.66 7 7.32 7 8 C3.76912579 7.44295272 1.97638863 6.66812465 0 4 C0 2.68 0 1.36 0 0 Z " fill="#6BC9C6" transform="translate(213,306)"/>
<path d="M0 0 C1.65 0 3.3 0 5 0 C4.01 1.485 4.01 1.485 3 3 C2.34 3 1.68 3 1 3 C1 3.66 1 4.32 1 5 C0.34 5 -0.32 5 -1 5 C-1.33 5.66 -1.66 6.32 -2 7 C-2 6.01 -2 5.02 -2 4 C-1.34 4 -0.68 4 0 4 C0 2.68 0 1.36 0 0 Z " fill="#62C4BE" transform="translate(315,489)"/>
<path d="M0 0 C2.99693138 0.99897713 4.02709413 1.65130253 6 4 C6 4.66 6 5.32 6 6 C4.35 6 2.7 6 1 6 C0.67 4.02 0.34 2.04 0 0 Z " fill="#56BFC0" transform="translate(316,410)"/>
<path d="M0 0 C1.32 0 2.64 0 4 0 C4 0.66 4 1.32 4 2 C4.99 2 5.98 2 7 2 C7 3.32 7 4.64 7 6 C6.34 6 5.68 6 5 6 C5 5.34 5 4.68 5 4 C4.34 4 3.68 4 3 4 C1.375 2 1.375 2 0 0 Z " fill="#DEE161" transform="translate(214,290)"/>
<path d="M0 0 C0.66 0 1.32 0 2 0 C1.67 1.65 1.34 3.3 1 5 C-0.98 5.33 -2.96 5.66 -5 6 C-3.625 4 -3.625 4 -2 2 C-1.34 2 -0.68 2 0 2 C0 1.34 0 0.68 0 0 Z " fill="#D1DA3E" transform="translate(227,215)"/>
<path d="M0 0 C-0.99 1.485 -0.99 1.485 -2 3 C-2.66 3 -3.32 3 -4 3 C-4.33 3.66 -4.66 4.32 -5 5 C-5.33 3.35 -5.66 1.7 -6 0 C-3.50907189 -1.24546405 -2.58919267 -0.7767578 0 0 Z " fill="#4CBFB7" transform="translate(234,188)"/>
<path d="M0 0 C0.99 0 1.98 0 3 0 C1.8141763 3.37503669 0.72426311 5.64722731 -2 8 C-2 6.68 -2 5.36 -2 4 C-1.34 4 -0.68 4 0 4 C0 2.68 0 1.36 0 0 Z " fill="#5DC3BE" transform="translate(329,471)"/>
<path d="M0 0 C2.62187494 1.04874998 3.79371361 1.64931313 5.25 4.125 C5.4975 4.74375 5.745 5.3625 6 6 C3.83125748 5.49396008 2.00032373 5.00016187 0 4 C0 2.68 0 1.36 0 0 Z " fill="#D5DC51" transform="translate(423,287)"/>
<path d="M0 0 C0.33 0.66 0.66 1.32 1 2 C2.64363134 2.72159424 4.31050386 3.39351421 6 4 C3.10765685 4.82638376 1.11257569 5 -2 5 C-1.125 1.125 -1.125 1.125 0 0 Z " fill="#DAE158" transform="translate(196,246)"/>
<path d="M0 0 C0.66 0.33 1.32 0.66 2 1 C1.34 2.98 0.68 4.96 0 7 C-0.66 7 -1.32 7 -2 7 C-2 7.66 -2 8.32 -2 9 C-2.66 8.67 -3.32 8.34 -4 8 C-2.68 5.36 -1.36 2.72 0 0 Z " fill="#54BBB6" transform="translate(10,217)"/>
<path d="M0 0 C1.98 0 3.96 0 6 0 C5.34 0.66 4.68 1.32 4 2 C3.34 1.67 2.68 1.34 2 1 C1.67 1.99 1.34 2.98 1 4 C0.01 4 -0.98 4 -2 4 C-1.34 2.68 -0.68 1.36 0 0 Z " fill="#D4DD2E" transform="translate(231,211)"/>
<path d="M0 0 C0.66 0 1.32 0 2 0 C0.75023244 3.65316671 0.32901247 4.78065836 -3 7 C-3 5.35 -3 3.7 -3 2 C-2.01 2 -1.02 2 0 2 C0 1.34 0 0.68 0 0 Z " fill="#DCE054" transform="translate(467,183)"/>
<path d="M0 0 C0.66 0.33 1.32 0.66 2 1 C0.75023244 4.65316671 0.32901247 5.78065836 -3 8 C-2.67 6.35 -2.34 4.7 -2 3 C-1.34 3 -0.68 3 0 3 C0 2.01 0 1.02 0 0 Z " fill="#CFD819" transform="translate(268,174)"/>
<path d="M0 0 C-0.99 0.33 -1.98 0.66 -3 1 C-3 1.66 -3 2.32 -3 3 C-4.98 3 -6.96 3 -9 3 C-6.38997624 -0.48003168 -4.1689578 -0.27793052 0 0 Z " fill="#D8DF44" transform="translate(390,68)"/>
</svg>
