<svg width="24" height="22" viewBox="0 0 24 22" fill="none" xmlns="http://www.w3.org/2000/svg">
<path opacity="0.4" d="M3.17684 21.1943C3.16167 21.1943 3.14767 21.1943 3.13134 21.1931C2.76384 21.1744 2.40334 21.0951 2.06034 20.9563C0.372169 20.2703 -0.442164 18.3418 0.242669 16.6548L8.78384 1.6911C9.07784 1.1591 9.5235 0.713433 10.0672 0.412433C11.6597 -0.469567 13.6733 0.110266 14.5542 1.7016L23.0393 16.5509C23.2283 16.9954 23.3088 17.3571 23.3287 17.7258C23.3742 18.6078 23.0732 19.4536 22.4828 20.1081C21.8925 20.7626 21.0817 21.1488 20.2008 21.1931L3.26084 21.1943H3.17684Z" fill="#2AB2A8"/>
<path d="M11.6661 14.4543C12.2285 14.4543 12.6876 14.9092 12.6876 15.468C12.6875 16.0431 12.2284 16.5012 11.6661 16.5012C11.104 16.501 10.6457 16.0429 10.6456 15.4807C10.6456 14.915 11.104 14.4545 11.6661 14.4543ZM11.6661 7.16917C12.2284 7.16917 12.6874 7.6275 12.6876 8.18968V11.4895C12.6875 12.0529 12.2284 12.51 11.6661 12.51C11.104 12.5098 10.6457 12.0528 10.6456 11.4895V8.18968C10.6458 7.62761 11.1041 7.16935 11.6661 7.16917Z" fill="#2AB2A8"/>
</svg>
